<?xml version="1.0"?>
<!-- Created by MetaPost 2.01 on 2021.10.19:2335 -->
<svg version="1.1" xmlns="http://www.w3.org/2000/svg" xmlns:xlink="http://www.w3.org/1999/xlink" width="257.220612" height="75.559464" viewBox="0 0 257.220612 75.559464">
<!-- Original BoundingBox: -2.099991 -12.426895 255.120621 63.132568 -->
  <defs>
    <g transform="scale(0.009963,0.009963)" id="GLYPHcmsy10_24">
      <path style="fill-rule: evenodd;" d="M722.000000 -334.000000C722.000000 -356.000000,716.000000 -366.000000,708.000000 -366.000000C703.000000 -366.000000,695.000000 -359.000000,694.000000 -340.000000C690.000000 -244.000000,624.000000 -189.000000,554.000000 -189.000000C491.000000 -189.000000,443.000000 -232.000000,394.000000 -275.000000C343.000000 -321.000000,291.000000 -367.000000,223.000000 -367.000000C114.000000 -367.000000,55.000000 -257.000000,55.000000 -166.000000C55.000000 -134.000000,68.000000 -134.000000,69.000000 -134.000000C80.000000 -134.000000,83.000000 -154.000000,83.000000 -157.000000C87.000000 -267.000000,162.000000 -311.000000,223.000000 -311.000000C286.000000 -311.000000,334.000000 -268.000000,383.000000 -225.000000C434.000000 -179.000000,486.000000 -133.000000,554.000000 -133.000000C663.000000 -133.000000,722.000000 -243.000000,722.000000 -334.000000"></path>
    </g>
    <g transform="scale(0.006974,0.006974)" id="GLYPHcmsy7_48">
      <path style="fill-rule: evenodd;" d="M290.000000 -472.000000C298.000000 -489.000000,299.000000 -497.000000,299.000000 -504.000000C299.000000 -535.000000,271.000000 -559.000000,240.000000 -559.000000C202.000000 -559.000000,190.000000 -528.000000,185.000000 -512.000000L53.000000 -79.000000C52.000000 -77.000000,48.000000 -64.000000,48.000000 -63.000000C48.000000 -51.000000,79.000000 -41.000000,87.000000 -41.000000C94.000000 -41.000000,95.000000 -43.000000,102.000000 -58.000000"></path>
    </g>
    <g transform="scale(0.009963,0.009963)" id="GLYPHcmmi10_11">
      <path style="fill-rule: evenodd;" d="M477.000000 -236.000000C477.000000 -393.000000,384.000000 -442.000000,310.000000 -442.000000C173.000000 -442.000000,41.000000 -299.000000,41.000000 -158.000000C41.000000 -65.000000,101.000000 11.000000,203.000000 11.000000C266.000000 11.000000,338.000000 -12.000000,414.000000 -73.000000C427.000000 -20.000000,460.000000 11.000000,505.000000 11.000000C558.000000 11.000000,589.000000 -44.000000,589.000000 -60.000000C589.000000 -67.000000,583.000000 -70.000000,577.000000 -70.000000C570.000000 -70.000000,567.000000 -67.000000,564.000000 -60.000000C546.000000 -11.000000,510.000000 -11.000000,508.000000 -11.000000C477.000000 -11.000000,477.000000 -89.000000,477.000000 -113.000000C477.000000 -134.000000,477.000000 -136.000000,487.000000 -148.000000C581.000000 -266.000000,602.000000 -382.000000,602.000000 -383.000000C602.000000 -385.000000,601.000000 -393.000000,590.000000 -393.000000C580.000000 -393.000000,580.000000 -390.000000,575.000000 -372.000000C557.000000 -309.000000,524.000000 -233.000000,477.000000 -174.000000M410.000000 -99.000000C322.000000 -22.000000,245.000000 -11.000000,205.000000 -11.000000C145.000000 -11.000000,115.000000 -56.000000,115.000000 -120.000000C115.000000 -169.000000,141.000000 -277.000000,173.000000 -328.000000C220.000000 -401.000000,274.000000 -420.000000,309.000000 -420.000000C408.000000 -420.000000,408.000000 -289.000000,408.000000 -211.000000C408.000000 -174.000000,408.000000 -116.000000,410.000000 -99.000000"></path>
    </g>
    <g transform="scale(0.009963,0.009963)" id="GLYPHcmmi10_12">
      <path style="fill-rule: evenodd;" d="M575.000000 -569.000000C575.000000 -644.000000,520.000000 -706.000000,439.000000 -706.000000C381.000000 -706.000000,353.000000 -690.000000,318.000000 -664.000000C263.000000 -624.000000,208.000000 -527.000000,189.000000 -451.000000L30.000000 184.000000C29.000000 188.000000,34.000000 194.000000,42.000000 194.000000C50.000000 194.000000,53.000000 192.000000,54.000000 189.000000L124.000000 -87.000000C143.000000 -27.000000,187.000000 10.000000,260.000000 10.000000C333.000000 10.000000,408.000000 -25.000000,453.000000 -69.000000C501.000000 -115.000000,533.000000 -179.000000,533.000000 -253.000000C533.000000 -325.000000,496.000000 -377.000000,460.000000 -402.000000C518.000000 -435.000000,575.000000 -497.000000,575.000000 -569.000000M395.000000 -403.000000C382.000000 -398.000000,371.000000 -396.000000,347.000000 -396.000000C333.000000 -396.000000,313.000000 -395.000000,303.000000 -400.000000C305.000000 -410.000000,341.000000 -408.000000,352.000000 -408.000000C373.000000 -408.000000,382.000000 -408.000000,395.000000 -403.000000M519.000000 -592.000000C519.000000 -522.000000,481.000000 -450.000000,429.000000 -419.000000C402.000000 -429.000000,382.000000 -431.000000,352.000000 -431.000000C331.000000 -431.000000,275.000000 -432.000000,275.000000 -399.000000C274.000000 -371.000000,326.000000 -374.000000,344.000000 -374.000000C381.000000 -374.000000,396.000000 -375.000000,426.000000 -387.000000C464.000000 -351.000000,469.000000 -320.000000,470.000000 -274.000000C472.000000 -216.000000,448.000000 -141.000000,420.000000 -102.000000C381.000000 -48.000000,314.000000 -12.000000,257.000000 -12.000000C181.000000 -12.000000,143.000000 -70.000000,143.000000 -141.000000C143.000000 -151.000000,143.000000 -166.000000,148.000000 -185.000000L212.000000 -438.000000C234.000000 -524.000000,306.000000 -683.000000,426.000000 -683.000000C484.000000 -683.000000,519.000000 -652.000000,519.000000 -592.000000"></path>
    </g>
    <g transform="scale(0.009963,0.009963)" id="GLYPHcmmi10_13">
      <path style="fill-rule: evenodd;" d="M41.000000 -254.000000C80.000000 -369.000000,189.000000 -370.000000,200.000000 -370.000000C351.000000 -370.000000,362.000000 -195.000000,362.000000 -116.000000C362.000000 -55.000000,357.000000 -38.000000,350.000000 -18.000000C328.000000 55.000000,298.000000 171.000000,298.000000 197.000000C298.000000 208.000000,303.000000 215.000000,311.000000 215.000000C324.000000 215.000000,332.000000 193.000000,343.000000 155.000000C366.000000 71.000000,376.000000 14.000000,380.000000 -17.000000C382.000000 -30.000000,384.000000 -43.000000,388.000000 -56.000000C420.000000 -155.000000,484.000000 -304.000000,524.000000 -383.000000C531.000000 -395.000000,543.000000 -417.000000,543.000000 -421.000000C543.000000 -431.000000,533.000000 -431.000000,531.000000 -431.000000C528.000000 -431.000000,522.000000 -431.000000,519.000000 -424.000000C467.000000 -329.000000,427.000000 -229.000000,387.000000 -128.000000C386.000000 -159.000000,385.000000 -235.000000,346.000000 -332.000000C322.000000 -393.000000,282.000000 -442.000000,213.000000 -442.000000C88.000000 -442.000000,18.000000 -290.000000,18.000000 -259.000000C18.000000 -249.000000,27.000000 -249.000000,37.000000 -249.000000"></path>
    </g>
    <g transform="scale(0.009963,0.009963)" id="GLYPHcmmi10_120">
      <path style="fill-rule: evenodd;" d="M334.000000 -302.000000C340.000000 -328.000000,363.000000 -420.000000,433.000000 -420.000000C438.000000 -420.000000,462.000000 -420.000000,483.000000 -407.000000C455.000000 -402.000000,435.000000 -377.000000,435.000000 -353.000000C435.000000 -337.000000,446.000000 -318.000000,473.000000 -318.000000C495.000000 -318.000000,527.000000 -336.000000,527.000000 -376.000000C527.000000 -428.000000,468.000000 -442.000000,434.000000 -442.000000C376.000000 -442.000000,341.000000 -389.000000,329.000000 -366.000000C304.000000 -432.000000,250.000000 -442.000000,221.000000 -442.000000C117.000000 -442.000000,60.000000 -313.000000,60.000000 -288.000000C60.000000 -278.000000,70.000000 -278.000000,72.000000 -278.000000C80.000000 -278.000000,83.000000 -280.000000,85.000000 -289.000000C119.000000 -395.000000,185.000000 -420.000000,219.000000 -420.000000C238.000000 -420.000000,273.000000 -411.000000,273.000000 -353.000000C273.000000 -322.000000,256.000000 -255.000000,219.000000 -115.000000C203.000000 -53.000000,168.000000 -11.000000,124.000000 -11.000000C118.000000 -11.000000,95.000000 -11.000000,74.000000 -24.000000C99.000000 -29.000000,121.000000 -50.000000,121.000000 -78.000000C121.000000 -105.000000,99.000000 -113.000000,84.000000 -113.000000C54.000000 -113.000000,29.000000 -87.000000,29.000000 -55.000000C29.000000 -9.000000,79.000000 11.000000,123.000000 11.000000C189.000000 11.000000,225.000000 -59.000000,228.000000 -65.000000C240.000000 -28.000000,276.000000 11.000000,336.000000 11.000000C439.000000 11.000000,496.000000 -118.000000,496.000000 -143.000000C496.000000 -153.000000,487.000000 -153.000000,484.000000 -153.000000C475.000000 -153.000000,473.000000 -149.000000,471.000000 -142.000000C438.000000 -35.000000,370.000000 -11.000000,338.000000 -11.000000C299.000000 -11.000000,283.000000 -43.000000,283.000000 -77.000000C283.000000 -99.000000,289.000000 -121.000000,300.000000 -165.000000"></path>
    </g>
    <g transform="scale(0.009963,0.009963)" id="GLYPHcmmi10_121">
      <path style="fill-rule: evenodd;" d="M486.000000 -381.000000C490.000000 -395.000000,490.000000 -397.000000,490.000000 -404.000000C490.000000 -422.000000,476.000000 -431.000000,461.000000 -431.000000C451.000000 -431.000000,435.000000 -425.000000,426.000000 -410.000000C424.000000 -405.000000,416.000000 -374.000000,412.000000 -356.000000C405.000000 -330.000000,398.000000 -303.000000,392.000000 -276.000000L347.000000 -96.000000C343.000000 -81.000000,300.000000 -11.000000,234.000000 -11.000000C183.000000 -11.000000,172.000000 -55.000000,172.000000 -92.000000C172.000000 -138.000000,189.000000 -200.000000,223.000000 -288.000000C239.000000 -329.000000,243.000000 -340.000000,243.000000 -360.000000C243.000000 -405.000000,211.000000 -442.000000,161.000000 -442.000000C66.000000 -442.000000,29.000000 -297.000000,29.000000 -288.000000C29.000000 -278.000000,39.000000 -278.000000,41.000000 -278.000000C51.000000 -278.000000,52.000000 -280.000000,57.000000 -296.000000C84.000000 -390.000000,124.000000 -420.000000,158.000000 -420.000000C166.000000 -420.000000,183.000000 -420.000000,183.000000 -388.000000C183.000000 -363.000000,173.000000 -337.000000,166.000000 -318.000000C126.000000 -212.000000,108.000000 -155.000000,108.000000 -108.000000C108.000000 -19.000000,171.000000 11.000000,230.000000 11.000000C269.000000 11.000000,303.000000 -6.000000,331.000000 -34.000000C318.000000 18.000000,306.000000 67.000000,266.000000 120.000000C240.000000 154.000000,202.000000 183.000000,156.000000 183.000000C142.000000 183.000000,97.000000 180.000000,80.000000 141.000000C96.000000 141.000000,109.000000 141.000000,123.000000 129.000000C133.000000 120.000000,143.000000 107.000000,143.000000 88.000000C143.000000 57.000000,116.000000 53.000000,106.000000 53.000000C83.000000 53.000000,50.000000 69.000000,50.000000 118.000000C50.000000 168.000000,94.000000 205.000000,156.000000 205.000000C259.000000 205.000000,362.000000 114.000000,390.000000 1.000000"></path>
    </g>
    <g transform="scale(0.009963,0.009963)" id="GLYPHcmmi10_122">
      <path style="fill-rule: evenodd;" d="M133.000000 -83.000000C187.000000 -141.000000,216.000000 -166.000000,252.000000 -197.000000C252.000000 -198.000000,314.000000 -251.000000,350.000000 -287.000000C445.000000 -380.000000,467.000000 -428.000000,467.000000 -432.000000C467.000000 -442.000000,458.000000 -442.000000,456.000000 -442.000000C449.000000 -442.000000,446.000000 -440.000000,441.000000 -431.000000C411.000000 -383.000000,390.000000 -367.000000,366.000000 -367.000000C342.000000 -367.000000,330.000000 -382.000000,315.000000 -399.000000C296.000000 -422.000000,279.000000 -442.000000,246.000000 -442.000000C171.000000 -442.000000,125.000000 -349.000000,125.000000 -328.000000C125.000000 -323.000000,128.000000 -317.000000,137.000000 -317.000000C146.000000 -317.000000,148.000000 -322.000000,150.000000 -328.000000C169.000000 -374.000000,227.000000 -375.000000,235.000000 -375.000000C256.000000 -375.000000,275.000000 -368.000000,298.000000 -360.000000C338.000000 -345.000000,349.000000 -345.000000,375.000000 -345.000000C339.000000 -302.000000,255.000000 -230.000000,236.000000 -214.000000L146.000000 -130.000000C78.000000 -63.000000,43.000000 -6.000000,43.000000 1.000000C43.000000 11.000000,53.000000 11.000000,55.000000 11.000000C63.000000 11.000000,65.000000 9.000000,71.000000 -2.000000C94.000000 -37.000000,124.000000 -64.000000,156.000000 -64.000000C179.000000 -64.000000,189.000000 -55.000000,214.000000 -26.000000C231.000000 -5.000000,249.000000 11.000000,278.000000 11.000000C377.000000 11.000000,435.000000 -116.000000,435.000000 -143.000000C435.000000 -148.000000,431.000000 -153.000000,423.000000 -153.000000C414.000000 -153.000000,412.000000 -147.000000,409.000000 -140.000000C386.000000 -75.000000,322.000000 -56.000000,289.000000 -56.000000C269.000000 -56.000000,251.000000 -62.000000,230.000000 -69.000000C196.000000 -82.000000,181.000000 -86.000000,160.000000 -86.000000C158.000000 -86.000000,142.000000 -86.000000,133.000000 -83.000000"></path>
    </g>
  </defs>
  <g>
    <defs>
      <clipPath id="CLIP1">
        <path d="M-15.008041 80.008041L-15.008041 -39.048248L257.120621 -39.048248L257.120621 80.008041Z" style="fill: black; stroke: none;"></path>
      </clipPath>
    </defs>
    <g clip-path="url(#CLIP1);">
      <path d="M2.000000 63.000000L62.132568 2.867432L143.733597 63.000000Z" style="stroke:rgb(0.000000%,0.000000%,0.000000%); stroke-width: 1.250000;stroke-linecap: round;stroke-linejoin: round;stroke-miterlimit: 10.000000;fill: none;"></path>
      <path d="M172.080414 63.000000L208.159958 26.920456L257.120621 63.000000Z" style="stroke:rgb(0.000000%,0.000000%,0.000000%); stroke-width: 1.250000;stroke-linecap: round;stroke-linejoin: round;stroke-miterlimit: 10.000000;fill: none;"></path>
      <path d="M3.500000 63.000000C3.500000 62.602158,3.341934 62.220657,3.060638 61.939362C2.779343 61.658066,2.397842 61.500000,2.000000 61.500000C1.602158 61.500000,1.220657 61.658066,0.939362 61.939362C0.658066 62.220657,0.500000 62.602158,0.500000 63.000000C0.500000 63.397842,0.658066 63.779343,0.939362 64.060638C1.220657 64.341934,1.602158 64.500000,2.000000 64.500000C2.397842 64.500000,2.779343 64.341934,3.060638 64.060638C3.341934 63.779343,3.500000 63.397842,3.500000 63.000000Z" style="fill: rgb(0.000000%,0.000000%,0.000000%);stroke: none;"></path>
      <path d="M63.632568 2.867432C63.632568 2.469589,63.474503 2.088089,63.193207 1.806793C62.911911 1.525497,62.530411 1.367432,62.132568 1.367432C61.734726 1.367432,61.353226 1.525497,61.071930 1.806793C60.790634 2.088089,60.632568 2.469589,60.632568 2.867432C60.632568 3.265274,60.790634 3.646774,61.071930 3.928070C61.353226 4.209366,61.734726 4.367432,62.132568 4.367432C62.530411 4.367432,62.911911 4.209366,63.193207 3.928070C63.474503 3.646774,63.632568 3.265274,63.632568 2.867432Z" style="fill: rgb(0.000000%,0.000000%,0.000000%);stroke: none;"></path>
      <path d="M145.233597 63.000000C145.233597 62.602158,145.075531 62.220657,144.794235 61.939362C144.512939 61.658066,144.131439 61.500000,143.733597 61.500000C143.335754 61.500000,142.954254 61.658066,142.672958 61.939362C142.391663 62.220657,142.233597 62.602158,142.233597 63.000000C142.233597 63.397842,142.391663 63.779343,142.672958 64.060638C142.954254 64.341934,143.335754 64.500000,143.733597 64.500000C144.131439 64.500000,144.512939 64.341934,144.794235 64.060638C145.075531 63.779343,145.233597 63.397842,145.233597 63.000000Z" style="fill: rgb(0.000000%,0.000000%,0.000000%);stroke: none;"></path>
      <path d="M173.580414 63.000000C173.580414 62.602158,173.422348 62.220657,173.141052 61.939362C172.859756 61.658066,172.478256 61.500000,172.080414 61.500000C171.682571 61.500000,171.301071 61.658066,171.019775 61.939362C170.738480 62.220657,170.580414 62.602158,170.580414 63.000000C170.580414 63.397842,170.738480 63.779343,171.019775 64.060638C171.301071 64.341934,171.682571 64.500000,172.080414 64.500000C172.478256 64.500000,172.859756 64.341934,173.141052 64.060638C173.422348 63.779343,173.580414 63.397842,173.580414 63.000000Z" style="fill: rgb(0.000000%,0.000000%,0.000000%);stroke: none;"></path>
      <path d="M209.659958 26.920456C209.659958 26.522614,209.501892 26.141113,209.220596 25.859818C208.939301 25.578522,208.557800 25.420456,208.159958 25.420456C207.762115 25.420456,207.380615 25.578522,207.099319 25.859818C206.818024 26.141113,206.659958 26.522614,206.659958 26.920456C206.659958 27.318298,206.818024 27.699799,207.099319 27.981094C207.380615 28.262390,207.762115 28.420456,208.159958 28.420456C208.557800 28.420456,208.939301 28.262390,209.220596 27.981094C209.501892 27.699799,209.659958 27.318298,209.659958 26.920456Z" style="fill: rgb(0.000000%,0.000000%,0.000000%);stroke: none;"></path>
      <path d="M258.620621 63.000000C258.620621 62.602158,258.462555 62.220657,258.181259 61.939362C257.899963 61.658066,257.518463 61.500000,257.120621 61.500000C256.722778 61.500000,256.341278 61.658066,256.059982 61.939362C255.778687 62.220657,255.620621 62.602158,255.620621 63.000000C255.620621 63.397842,255.778687 63.779343,256.059982 64.060638C256.341278 64.341934,256.722778 64.500000,257.120621 64.500000C257.518463 64.500000,257.899963 64.341934,258.181259 64.060638C258.462555 63.779343,258.620621 63.397842,258.620621 63.000000Z" style="fill: rgb(0.000000%,0.000000%,0.000000%);stroke: none;"></path>
      <g transform="translate(59.052109 16.187485)" style="fill: rgb(0.000000%,0.000000%,0.000000%);">
        <use xlink:href="#GLYPHcmmi10_12"></use>
      </g>
      <g transform="translate(10.903107 60.900009)" style="fill: rgb(0.000000%,0.000000%,0.000000%);">
        <use xlink:href="#GLYPHcmmi10_11"></use>
      </g>
      <g transform="translate(122.315720 58.962814)" style="fill: rgb(0.000000%,0.000000%,0.000000%);">
        <use xlink:href="#GLYPHcmmi10_13"></use>
      </g>
      <g transform="translate(203.681961 40.811707)" style="fill: rgb(0.000000%,0.000000%,0.000000%);">
        <use xlink:href="#GLYPHcmmi10_12"></use>
      </g>
      <g transform="translate(209.842865 37.196304)" style="fill: rgb(0.000000%,0.000000%,0.000000%);">
        <use xlink:href="#GLYPHcmsy7_48"></use>
      </g>
      <g transform="translate(180.983521 60.900009)" style="fill: rgb(0.000000%,0.000000%,0.000000%);">
        <use xlink:href="#GLYPHcmmi10_11"></use>
      </g>
      <g transform="translate(187.393524 57.284607)" style="fill: rgb(0.000000%,0.000000%,0.000000%);">
        <use xlink:href="#GLYPHcmsy7_48"></use>
      </g>
      <g transform="translate(231.207001 58.962814)" style="fill: rgb(0.000000%,0.000000%,0.000000%);">
        <use xlink:href="#GLYPHcmmi10_13"></use>
      </g>
      <g transform="translate(236.918396 55.347412)" style="fill: rgb(0.000000%,0.000000%,0.000000%);">
        <use xlink:href="#GLYPHcmsy7_48"></use>
      </g>
      <g transform="translate(24.272537 30.833588)" style="fill: rgb(0.000000%,0.000000%,0.000000%);">
        <use xlink:href="#GLYPHcmmi10_120"></use>
      </g>
      <g transform="translate(105.033066 30.833847)" style="fill: rgb(0.000000%,0.000000%,0.000000%);">
        <use xlink:href="#GLYPHcmmi10_122"></use>
      </g>
      <g transform="translate(70.245972 70.289505)" style="fill: rgb(0.000000%,0.000000%,0.000000%);">
        <use xlink:href="#GLYPHcmmi10_121"></use>
      </g>
      <g transform="translate(179.531326 42.860107)" style="fill: rgb(0.000000%,0.000000%,0.000000%);">
        <use xlink:href="#GLYPHcmmi10_120"></use>
      </g>
      <g transform="translate(185.225220 39.244705)" style="fill: rgb(0.000000%,0.000000%,0.000000%);">
        <use xlink:href="#GLYPHcmsy7_48"></use>
      </g>
      <g transform="translate(234.740402 42.860367)" style="fill: rgb(0.000000%,0.000000%,0.000000%);">
        <use xlink:href="#GLYPHcmmi10_122"></use>
      </g>
      <g transform="translate(239.811707 39.244965)" style="fill: rgb(0.000000%,0.000000%,0.000000%);">
        <use xlink:href="#GLYPHcmsy7_48"></use>
      </g>
      <g transform="translate(210.582016 73.489700)" style="fill: rgb(0.000000%,0.000000%,0.000000%);">
        <use xlink:href="#GLYPHcmmi10_121"></use>
      </g>
      <g transform="translate(215.823914 69.874298)" style="fill: rgb(0.000000%,0.000000%,0.000000%);">
        <use xlink:href="#GLYPHcmsy7_48"></use>
      </g>
      <g transform="translate(151.198013 47.819458)" style="fill: rgb(0.000000%,0.000000%,0.000000%);">
        <use xlink:href="#GLYPHcmsy10_24"></use>
      </g>
    </g>
  </g>
</svg>
