<?xml version="1.0"?>
<!-- Created by MetaPost 2.01 on 2021.10.19:2335 -->
<svg version="1.1" xmlns="http://www.w3.org/2000/svg" xmlns:xlink="http://www.w3.org/1999/xlink" width="248.924164" height="66.367050" viewBox="0 0 248.924164 66.367050">
<!-- Original BoundingBox: -2.099991 -4.828690 246.824173 61.538361 -->
  <defs>
    <g transform="scale(0.009963,0.009963)" id="GLYPHcmsy10_40">
      <path style="fill-rule: evenodd;" d="M909.000000 -133.000000C926.000000 -133.000000,944.000000 -133.000000,944.000000 -153.000000C944.000000 -173.000000,926.000000 -173.000000,908.000000 -173.000000L273.000000 -173.000000C231.000000 -209.000000,180.000000 -235.000000,147.000000 -250.000000C183.000000 -266.000000,232.000000 -292.000000,273.000000 -327.000000L908.000000 -327.000000C926.000000 -327.000000,944.000000 -327.000000,944.000000 -347.000000C944.000000 -367.000000,926.000000 -367.000000,909.000000 -367.000000L318.000000 -367.000000C366.000000 -413.000000,418.000000 -501.000000,418.000000 -514.000000C418.000000 -525.000000,405.000000 -525.000000,399.000000 -525.000000C391.000000 -525.000000,384.000000 -525.000000,380.000000 -517.000000C359.000000 -479.000000,331.000000 -426.000000,266.000000 -368.000000C197.000000 -307.000000,130.000000 -280.000000,78.000000 -265.000000C61.000000 -259.000000,60.000000 -258.000000,58.000000 -256.000000C56.000000 -255.000000,56.000000 -252.000000,56.000000 -250.000000C56.000000 -248.000000,56.000000 -246.000000,57.000000 -244.000000L60.000000 -242.000000C62.000000 -241.000000,63.000000 -240.000000,82.000000 -234.000000C217.000000 -194.000000,317.000000 -103.000000,373.000000 4.000000C384.000000 24.000000,385.000000 25.000000,399.000000 25.000000C405.000000 25.000000,418.000000 25.000000,418.000000 14.000000C418.000000 1.000000,367.000000 -86.000000,318.000000 -133.000000"></path>
    </g>
    <g transform="scale(0.009963,0.009963)" id="GLYPHcmsy10_41">
      <path style="fill-rule: evenodd;" d="M726.000000 -327.000000C768.000000 -291.000000,819.000000 -265.000000,852.000000 -250.000000C816.000000 -234.000000,767.000000 -208.000000,726.000000 -173.000000L91.000000 -173.000000C74.000000 -173.000000,55.000000 -173.000000,55.000000 -153.000000C55.000000 -133.000000,73.000000 -133.000000,90.000000 -133.000000L681.000000 -133.000000C633.000000 -87.000000,581.000000 1.000000,581.000000 14.000000C581.000000 25.000000,594.000000 25.000000,600.000000 25.000000C608.000000 25.000000,615.000000 25.000000,619.000000 17.000000C640.000000 -21.000000,668.000000 -74.000000,733.000000 -132.000000C802.000000 -193.000000,869.000000 -220.000000,921.000000 -235.000000C938.000000 -241.000000,939.000000 -242.000000,941.000000 -244.000000C943.000000 -245.000000,943.000000 -248.000000,943.000000 -250.000000C943.000000 -252.000000,943.000000 -254.000000,942.000000 -256.000000L939.000000 -258.000000C937.000000 -259.000000,936.000000 -260.000000,917.000000 -266.000000C782.000000 -306.000000,682.000000 -397.000000,626.000000 -504.000000C615.000000 -524.000000,614.000000 -525.000000,600.000000 -525.000000C594.000000 -525.000000,581.000000 -525.000000,581.000000 -514.000000C581.000000 -501.000000,632.000000 -414.000000,681.000000 -367.000000L90.000000 -367.000000C73.000000 -367.000000,55.000000 -367.000000,55.000000 -347.000000C55.000000 -327.000000,74.000000 -327.000000,91.000000 -327.000000"></path>
    </g>
    <g transform="scale(0.009963,0.009963)" id="GLYPHcmr10_48">
      <path style="fill-rule: evenodd;" d="M460.000000 -320.000000C460.000000 -400.000000,455.000000 -480.000000,420.000000 -554.000000C374.000000 -650.000000,292.000000 -666.000000,250.000000 -666.000000C190.000000 -666.000000,117.000000 -640.000000,76.000000 -547.000000C44.000000 -478.000000,39.000000 -400.000000,39.000000 -320.000000C39.000000 -245.000000,43.000000 -155.000000,84.000000 -79.000000C127.000000 2.000000,200.000000 22.000000,249.000000 22.000000C303.000000 22.000000,379.000000 1.000000,423.000000 -94.000000C455.000000 -163.000000,460.000000 -241.000000,460.000000 -320.000000M249.000000 -0.000000C210.000000 -0.000000,151.000000 -25.000000,133.000000 -121.000000C122.000000 -181.000000,122.000000 -273.000000,122.000000 -332.000000C122.000000 -396.000000,122.000000 -462.000000,130.000000 -516.000000C149.000000 -635.000000,224.000000 -644.000000,249.000000 -644.000000C282.000000 -644.000000,348.000000 -626.000000,367.000000 -527.000000C377.000000 -471.000000,377.000000 -395.000000,377.000000 -332.000000C377.000000 -257.000000,377.000000 -189.000000,366.000000 -125.000000C351.000000 -30.000000,294.000000 -0.000000,249.000000 -0.000000"></path>
    </g>
    <g transform="scale(0.009963,0.009963)" id="GLYPHcmr10_49">
      <path style="fill-rule: evenodd;" d="M294.000000 -640.000000C294.000000 -664.000000,294.000000 -666.000000,271.000000 -666.000000C209.000000 -602.000000,121.000000 -602.000000,89.000000 -602.000000L89.000000 -571.000000C109.000000 -571.000000,168.000000 -571.000000,220.000000 -597.000000L220.000000 -79.000000C220.000000 -43.000000,217.000000 -31.000000,127.000000 -31.000000L95.000000 -31.000000L95.000000 -0.000000C130.000000 -3.000000,217.000000 -3.000000,257.000000 -3.000000C297.000000 -3.000000,384.000000 -3.000000,419.000000 -0.000000L419.000000 -31.000000L387.000000 -31.000000C297.000000 -31.000000,294.000000 -42.000000,294.000000 -79.000000"></path>
    </g>
    <g transform="scale(0.009963,0.009963)" id="GLYPHcmr10_51">
      <path style="fill-rule: evenodd;" d="M290.000000 -352.000000C372.000000 -379.000000,430.000000 -449.000000,430.000000 -528.000000C430.000000 -610.000000,342.000000 -666.000000,246.000000 -666.000000C145.000000 -666.000000,69.000000 -606.000000,69.000000 -530.000000C69.000000 -497.000000,91.000000 -478.000000,120.000000 -478.000000C151.000000 -478.000000,171.000000 -500.000000,171.000000 -529.000000C171.000000 -579.000000,124.000000 -579.000000,109.000000 -579.000000C140.000000 -628.000000,206.000000 -641.000000,242.000000 -641.000000C283.000000 -641.000000,338.000000 -619.000000,338.000000 -529.000000C338.000000 -517.000000,336.000000 -459.000000,310.000000 -415.000000C280.000000 -367.000000,246.000000 -364.000000,221.000000 -363.000000C213.000000 -362.000000,189.000000 -360.000000,182.000000 -360.000000C174.000000 -359.000000,167.000000 -358.000000,167.000000 -348.000000C167.000000 -337.000000,174.000000 -337.000000,191.000000 -337.000000L235.000000 -337.000000C317.000000 -337.000000,354.000000 -269.000000,354.000000 -171.000000C354.000000 -35.000000,285.000000 -6.000000,241.000000 -6.000000C198.000000 -6.000000,123.000000 -23.000000,88.000000 -82.000000C123.000000 -77.000000,154.000000 -99.000000,154.000000 -137.000000C154.000000 -173.000000,127.000000 -193.000000,98.000000 -193.000000C74.000000 -193.000000,42.000000 -179.000000,42.000000 -135.000000C42.000000 -44.000000,135.000000 22.000000,244.000000 22.000000C366.000000 22.000000,457.000000 -69.000000,457.000000 -171.000000C457.000000 -253.000000,394.000000 -331.000000,290.000000 -352.000000"></path>
    </g>
    <g transform="scale(0.009963,0.009963)" id="GLYPHcmr10_53">
      <path style="fill-rule: evenodd;" d="M449.000000 -201.000000C449.000000 -320.000000,367.000000 -420.000000,259.000000 -420.000000C211.000000 -420.000000,168.000000 -404.000000,132.000000 -369.000000L132.000000 -564.000000C152.000000 -558.000000,185.000000 -551.000000,217.000000 -551.000000C340.000000 -551.000000,410.000000 -642.000000,410.000000 -655.000000C410.000000 -661.000000,407.000000 -666.000000,400.000000 -666.000000C399.000000 -666.000000,397.000000 -666.000000,392.000000 -663.000000C372.000000 -654.000000,323.000000 -634.000000,256.000000 -634.000000C216.000000 -634.000000,170.000000 -641.000000,123.000000 -662.000000C115.000000 -665.000000,113.000000 -665.000000,111.000000 -665.000000C101.000000 -665.000000,101.000000 -657.000000,101.000000 -641.000000L101.000000 -345.000000C101.000000 -327.000000,101.000000 -319.000000,115.000000 -319.000000C122.000000 -319.000000,124.000000 -322.000000,128.000000 -328.000000C139.000000 -344.000000,176.000000 -398.000000,257.000000 -398.000000C309.000000 -398.000000,334.000000 -352.000000,342.000000 -334.000000C358.000000 -297.000000,360.000000 -258.000000,360.000000 -208.000000C360.000000 -173.000000,360.000000 -113.000000,336.000000 -71.000000C312.000000 -32.000000,275.000000 -6.000000,229.000000 -6.000000C156.000000 -6.000000,99.000000 -59.000000,82.000000 -118.000000C85.000000 -117.000000,88.000000 -116.000000,99.000000 -116.000000C132.000000 -116.000000,149.000000 -141.000000,149.000000 -165.000000C149.000000 -189.000000,132.000000 -214.000000,99.000000 -214.000000C85.000000 -214.000000,50.000000 -207.000000,50.000000 -161.000000C50.000000 -75.000000,119.000000 22.000000,231.000000 22.000000C347.000000 22.000000,449.000000 -74.000000,449.000000 -201.000000"></path>
    </g>
    <g transform="scale(0.009963,0.009963)" id="GLYPHcmr10_54">
      <path style="fill-rule: evenodd;" d="M132.000000 -328.000000L132.000000 -352.000000C132.000000 -605.000000,256.000000 -641.000000,307.000000 -641.000000C331.000000 -641.000000,373.000000 -635.000000,395.000000 -601.000000C380.000000 -601.000000,340.000000 -601.000000,340.000000 -556.000000C340.000000 -525.000000,364.000000 -510.000000,386.000000 -510.000000C402.000000 -510.000000,432.000000 -519.000000,432.000000 -558.000000C432.000000 -618.000000,388.000000 -666.000000,305.000000 -666.000000C177.000000 -666.000000,42.000000 -537.000000,42.000000 -316.000000C42.000000 -49.000000,158.000000 22.000000,251.000000 22.000000C362.000000 22.000000,457.000000 -72.000000,457.000000 -204.000000C457.000000 -331.000000,368.000000 -427.000000,257.000000 -427.000000C189.000000 -427.000000,152.000000 -376.000000,132.000000 -328.000000M251.000000 -6.000000C188.000000 -6.000000,158.000000 -66.000000,152.000000 -81.000000C134.000000 -128.000000,134.000000 -208.000000,134.000000 -226.000000C134.000000 -304.000000,166.000000 -404.000000,256.000000 -404.000000C272.000000 -404.000000,318.000000 -404.000000,349.000000 -342.000000C367.000000 -305.000000,367.000000 -254.000000,367.000000 -205.000000C367.000000 -157.000000,367.000000 -107.000000,350.000000 -71.000000C320.000000 -11.000000,274.000000 -6.000000,251.000000 -6.000000"></path>
    </g>
    <g transform="scale(0.009963,0.009963)" id="GLYPHcmr10_63">
      <path style="fill-rule: evenodd;" d="M235.000000 -249.000000C235.000000 -375.000000,332.000000 -446.000000,367.000000 -472.000000C394.000000 -492.000000,415.000000 -528.000000,415.000000 -570.000000C415.000000 -628.000000,375.000000 -705.000000,226.000000 -705.000000C118.000000 -705.000000,56.000000 -637.000000,56.000000 -572.000000C56.000000 -538.000000,79.000000 -524.000000,102.000000 -524.000000C130.000000 -524.000000,148.000000 -544.000000,148.000000 -570.000000C148.000000 -615.000000,106.000000 -615.000000,92.000000 -615.000000C123.000000 -668.000000,181.000000 -683.000000,223.000000 -683.000000C332.000000 -683.000000,332.000000 -615.000000,332.000000 -576.000000C332.000000 -517.000000,316.000000 -499.000000,298.000000 -481.000000C232.000000 -409.000000,210.000000 -317.000000,210.000000 -256.000000L210.000000 -211.000000C210.000000 -193.000000,210.000000 -187.000000,222.000000 -187.000000C235.000000 -187.000000,235.000000 -196.000000,235.000000 -214.000000M275.000000 -53.000000C275.000000 -82.000000,251.000000 -106.000000,222.000000 -106.000000C193.000000 -106.000000,169.000000 -82.000000,169.000000 -53.000000C169.000000 -24.000000,193.000000 -0.000000,222.000000 -0.000000C251.000000 -0.000000,275.000000 -24.000000,275.000000 -53.000000"></path>
    </g>
  </defs>
  <g>
    <defs>
      <clipPath id="CLIP1">
        <path d="M-15.008041 78.008041L-15.008041 -41.048248L257.120621 -41.048248L257.120621 78.008041Z" style="fill: black; stroke: none;"></path>
      </clipPath>
    </defs>
    <g clip-path="url(#CLIP1);">
      <path d="M2.000000 61.000000L43.873886 53.616592L32.108200 30.980820Z" style="stroke:rgb(0.000000%,0.000000%,0.000000%); stroke-width: 1.250000;stroke-linecap: round;stroke-linejoin: round;stroke-miterlimit: 10.000000;fill: none;"></path>
      <path d="M3.500000 61.000000C3.500000 60.602158,3.341934 60.220657,3.060638 59.939362C2.779343 59.658066,2.397842 59.500000,2.000000 59.500000C1.602158 59.500000,1.220657 59.658066,0.939362 59.939362C0.658066 60.220657,0.500000 60.602158,0.500000 61.000000C0.500000 61.397842,0.658066 61.779343,0.939362 62.060638C1.220657 62.341934,1.602158 62.500000,2.000000 62.500000C2.397842 62.500000,2.779343 62.341934,3.060638 62.060638C3.341934 61.779343,3.500000 61.397842,3.500000 61.000000Z" style="fill: rgb(0.000000%,0.000000%,0.000000%);stroke: none;"></path>
      <path d="M45.373886 53.616592C45.373886 53.218750,45.215820 52.837250,44.934525 52.555954C44.653229 52.274658,44.271729 52.116592,43.873886 52.116592C43.476044 52.116592,43.094543 52.274658,42.813248 52.555954C42.531952 52.837250,42.373886 53.218750,42.373886 53.616592C42.373886 54.014435,42.531952 54.395935,42.813248 54.677231C43.094543 54.958527,43.476044 55.116592,43.873886 55.116592C44.271729 55.116592,44.653229 54.958527,44.934525 54.677231C45.215820 54.395935,45.373886 54.014435,45.373886 53.616592Z" style="fill: rgb(0.000000%,0.000000%,0.000000%);stroke: none;"></path>
      <path d="M33.608200 30.980820C33.608200 30.582977,33.450134 30.201477,33.168839 29.920181C32.887543 29.638885,32.506042 29.480820,32.108200 29.480820C31.710358 29.480820,31.328857 29.638885,31.047562 29.920181C30.766266 30.201477,30.608200 30.582977,30.608200 30.980820C30.608200 31.378662,30.766266 31.760162,31.047562 32.041458C31.328857 32.322754,31.710358 32.480820,32.108200 32.480820C32.506042 32.480820,32.887543 32.322754,33.168839 32.041458C33.450134 31.760162,33.608200 31.378662,33.608200 30.980820Z" style="fill: rgb(0.000000%,0.000000%,0.000000%);stroke: none;"></path>
      <path d="M2.000000 61.000000L13.164642 59.031265C12.759521 56.733978,11.659149 54.634445,10.035843 53.003342Z" style="stroke:rgb(0.000000%,0.000000%,0.000000%); stroke-width: 0.500000;stroke-linecap: round;stroke-linejoin: round;stroke-miterlimit: 10.000000;fill: none;"></path>
      <g transform="translate(25.036942 65.828690)" style="fill: rgb(0.000000%,0.000000%,0.000000%);">
        <use xlink:href="#GLYPHcmr10_53"></use>
      </g>
      <g transform="translate(40.091034 40.198593)" style="fill: rgb(0.000000%,0.000000%,0.000000%);">
        <use xlink:href="#GLYPHcmr10_51"></use>
      </g>
      <g transform="translate(9.972809 43.890289)" style="fill: rgb(0.000000%,0.000000%,0.000000%);">
        <use xlink:href="#GLYPHcmr10_53"></use>
      </g>
      <path d="M121.744537 0.961639L61.528152 61.000000L145.275925 46.233185" style="stroke:rgb(0.000000%,0.000000%,0.000000%); stroke-width: 1.250000;stroke-linecap: round;stroke-linejoin: round;stroke-miterlimit: 10.000000;fill: none;"></path>
      <path d="M121.744537 0.961639L145.275925 46.233185" style="stroke:rgb(0.000000%,0.000000%,0.000000%); stroke-width: 0.500000;stroke-linecap: round;stroke-dasharray: 3.000000 3.000000 ;stroke-linejoin: round;stroke-miterlimit: 10.000000;fill: none;"></path>
      <path d="M63.028152 61.000000C63.028152 60.602158,62.870087 60.220657,62.588791 59.939362C62.307495 59.658066,61.925995 59.500000,61.528152 59.500000C61.130310 59.500000,60.748810 59.658066,60.467514 59.939362C60.186218 60.220657,60.028152 60.602158,60.028152 61.000000C60.028152 61.397842,60.186218 61.779343,60.467514 62.060638C60.748810 62.341934,61.130310 62.500000,61.528152 62.500000C61.925995 62.500000,62.307495 62.341934,62.588791 62.060638C62.870087 61.779343,63.028152 61.397842,63.028152 61.000000Z" style="fill: rgb(0.000000%,0.000000%,0.000000%);stroke: none;"></path>
      <path d="M146.775925 46.233185C146.775925 45.835342,146.617859 45.453842,146.336563 45.172546C146.055267 44.891251,145.673767 44.733185,145.275925 44.733185C144.878082 44.733185,144.496582 44.891251,144.215286 45.172546C143.933990 45.453842,143.775925 45.835342,143.775925 46.233185C143.775925 46.631027,143.933990 47.012527,144.215286 47.293823C144.496582 47.575119,144.878082 47.733185,145.275925 47.733185C145.673767 47.733185,146.055267 47.575119,146.336563 47.293823C146.617859 47.012527,146.775925 46.631027,146.775925 46.233185Z" style="fill: rgb(0.000000%,0.000000%,0.000000%);stroke: none;"></path>
      <path d="M123.244537 0.961639C123.244537 0.563797,123.086472 0.182297,122.805176 -0.098999C122.523880 -0.380295,122.142380 -0.538361,121.744537 -0.538361C121.346695 -0.538361,120.965195 -0.380295,120.683899 -0.098999C120.402603 0.182297,120.244537 0.563797,120.244537 0.961639C120.244537 1.359482,120.402603 1.740982,120.683899 2.022278C120.965195 2.303574,121.346695 2.461639,121.744537 2.461639C122.142380 2.461639,122.523880 2.303574,122.805176 2.022278C123.086472 1.740982,123.244537 1.359482,123.244537 0.961639Z" style="fill: rgb(0.000000%,0.000000%,0.000000%);stroke: none;"></path>
      <path d="M61.528152 61.000000L72.685516 59.031265C72.280411 56.733719,71.179779 54.634705,69.555939 53.003860Z" style="stroke:rgb(0.000000%,0.000000%,0.000000%); stroke-width: 0.500000;stroke-linecap: round;stroke-linejoin: round;stroke-miterlimit: 10.000000;fill: none;"></path>
      <g transform="translate(105.502029 62.136978)" style="fill: rgb(0.000000%,0.000000%,0.000000%);">
        <use xlink:href="#GLYPHcmr10_49"></use>
        <use xlink:href="#GLYPHcmr10_48" x="5.000095"></use>
      </g>
      <g transform="translate(135.610229 21.497421)" style="fill: rgb(0.000000%,0.000000%,0.000000%);">
        <use xlink:href="#GLYPHcmr10_63"></use>
      </g>
      <g transform="translate(79.573639 28.880829)" style="fill: rgb(0.000000%,0.000000%,0.000000%);">
        <use xlink:href="#GLYPHcmr10_49"></use>
        <use xlink:href="#GLYPHcmr10_48" x="5.000095"></use>
      </g>
      <path d="M163.576401 61.000000L247.324173 46.233185L223.792786 0.961639Z" style="stroke:rgb(0.000000%,0.000000%,0.000000%); stroke-width: 1.250000;stroke-linecap: round;stroke-linejoin: round;stroke-miterlimit: 10.000000;fill: none;"></path>
      <path d="M165.076401 61.000000C165.076401 60.602158,164.918335 60.220657,164.637039 59.939362C164.355743 59.658066,163.974243 59.500000,163.576401 59.500000C163.178558 59.500000,162.797058 59.658066,162.515762 59.939362C162.234467 60.220657,162.076401 60.602158,162.076401 61.000000C162.076401 61.397842,162.234467 61.779343,162.515762 62.060638C162.797058 62.341934,163.178558 62.500000,163.576401 62.500000C163.974243 62.500000,164.355743 62.341934,164.637039 62.060638C164.918335 61.779343,165.076401 61.397842,165.076401 61.000000Z" style="fill: rgb(0.000000%,0.000000%,0.000000%);stroke: none;"></path>
      <path d="M248.824173 46.233185C248.824173 45.835342,248.666107 45.453842,248.384811 45.172546C248.103516 44.891251,247.722015 44.733185,247.324173 44.733185C246.926331 44.733185,246.544830 44.891251,246.263535 45.172546C245.982239 45.453842,245.824173 45.835342,245.824173 46.233185C245.824173 46.631027,245.982239 47.012527,246.263535 47.293823C246.544830 47.575119,246.926331 47.733185,247.324173 47.733185C247.722015 47.733185,248.103516 47.575119,248.384811 47.293823C248.666107 47.012527,248.824173 46.631027,248.824173 46.233185Z" style="fill: rgb(0.000000%,0.000000%,0.000000%);stroke: none;"></path>
      <path d="M225.292786 0.961639C225.292786 0.563797,225.134720 0.182297,224.853424 -0.098999C224.572128 -0.380295,224.190628 -0.538361,223.792786 -0.538361C223.394943 -0.538361,223.013443 -0.380295,222.732147 -0.098999C222.450851 0.182297,222.292786 0.563797,222.292786 0.961639C222.292786 1.359482,222.450851 1.740982,222.732147 2.022278C223.013443 2.303574,223.394943 2.461639,223.792786 2.461639C224.190628 2.461639,224.572128 2.303574,224.853424 2.022278C225.134720 1.740982,225.292786 1.359482,225.292786 0.961639Z" style="fill: rgb(0.000000%,0.000000%,0.000000%);stroke: none;"></path>
      <path d="M163.576401 61.000000L174.721313 59.031265C174.315933 56.733978,173.214783 54.635223,171.590698 53.005157Z" style="stroke:rgb(0.000000%,0.000000%,0.000000%); stroke-width: 0.500000;stroke-linecap: round;stroke-linejoin: round;stroke-miterlimit: 10.000000;fill: none;"></path>
      <g transform="translate(207.550278 62.136978)" style="fill: rgb(0.000000%,0.000000%,0.000000%);">
        <use xlink:href="#GLYPHcmr10_49"></use>
        <use xlink:href="#GLYPHcmr10_48" x="5.000095"></use>
      </g>
      <g transform="translate(237.658478 21.497421)" style="fill: rgb(0.000000%,0.000000%,0.000000%);">
        <use xlink:href="#GLYPHcmr10_54"></use>
      </g>
      <g transform="translate(181.621887 28.880829)" style="fill: rgb(0.000000%,0.000000%,0.000000%);">
        <use xlink:href="#GLYPHcmr10_49"></use>
        <use xlink:href="#GLYPHcmr10_48" x="5.000095"></use>
      </g>
      <g transform="translate(150.191940 28.811417)" style="fill: rgb(0.000000%,0.000000%,0.000000%);">
        <use xlink:href="#GLYPHcmsy10_40"></use>
      </g>
      <g transform="translate(158.494247 28.811417)" style="fill: rgb(0.000000%,0.000000%,0.000000%);">
        <use xlink:href="#GLYPHcmsy10_41"></use>
      </g>
    </g>
  </g>
</svg>
