<?xml version="1.0"?>
<!-- Created by MetaPost 2.01 on 2021.10.19:2335 -->
<svg version="1.1" xmlns="http://www.w3.org/2000/svg" xmlns:xlink="http://www.w3.org/1999/xlink" width="105.648239" height="91.975830" viewBox="0 0 105.648239 91.975830">
<!-- Original BoundingBox: -27.012848 -2.099991 78.635391 89.875839 -->
  <g>
    <defs>
      <clipPath id="CLIP1">
        <path d="M-24.024124 106.008041L-24.024124 -30.056290L163.064331 -30.056290L163.064331 106.008041Z" style="fill: black; stroke: none;"></path>
      </clipPath>
    </defs>
    <g clip-path="url(#CLIP1);">
      <path d="M27.000000 89.000000L1.487152 44.812469L26.999222 0.624161L78.023346 0.624161L103.535400 44.812469L78.022568 89.000000L27.000000 89.000000" style="stroke:rgb(0.000000%,0.000000%,0.000000%); stroke-width: 1.250000;stroke-linecap: round;stroke-linejoin: round;stroke-miterlimit: 10.000000;fill: none;"></path>
      <path d="M26.999222 0.624161L27.000000 89.000000L78.023346 0.624161L78.022568 89.000000" style="stroke:rgb(0.000000%,0.000000%,0.000000%); stroke-width: 1.250000;stroke-linecap: round;stroke-linejoin: round;stroke-miterlimit: 10.000000;fill: none;"></path>
      <path d="M28.500000 89.000000C28.500000 88.602158,28.341934 88.220657,28.060638 87.939362C27.779343 87.658066,27.397842 87.500000,27.000000 87.500000C26.602158 87.500000,26.220657 87.658066,25.939362 87.939362C25.658066 88.220657,25.500000 88.602158,25.500000 89.000000C25.500000 89.397842,25.658066 89.779343,25.939362 90.060638C26.220657 90.341934,26.602158 90.500000,27.000000 90.500000C27.397842 90.500000,27.779343 90.341934,28.060638 90.060638C28.341934 89.779343,28.500000 89.397842,28.500000 89.000000Z" style="fill: rgb(0.000000%,0.000000%,0.000000%);stroke: none;"></path>
      <path d="M2.987152 44.812469C2.987152 44.414627,2.829086 44.033127,2.547791 43.751831C2.266495 43.470535,1.884995 43.312469,1.487152 43.312469C1.089310 43.312469,0.707809 43.470535,0.426514 43.751831C0.145218 44.033127,-0.012848 44.414627,-0.012848 44.812469C-0.012848 45.210312,0.145218 45.591812,0.426514 45.873108C0.707809 46.154404,1.089310 46.312469,1.487152 46.312469C1.884995 46.312469,2.266495 46.154404,2.547791 45.873108C2.829086 45.591812,2.987152 45.210312,2.987152 44.812469Z" style="fill: rgb(0.000000%,0.000000%,0.000000%);stroke: none;"></path>
      <path d="M28.499222 0.624161C28.499222 0.226318,28.341156 -0.155182,28.059860 -0.436478C27.778564 -0.717773,27.397064 -0.875839,26.999222 -0.875839C26.601379 -0.875839,26.219879 -0.717773,25.938583 -0.436478C25.657288 -0.155182,25.499222 0.226318,25.499222 0.624161C25.499222 1.022003,25.657288 1.403503,25.938583 1.684799C26.219879 1.966095,26.601379 2.124161,26.999222 2.124161C27.397064 2.124161,27.778564 1.966095,28.059860 1.684799C28.341156 1.403503,28.499222 1.022003,28.499222 0.624161Z" style="fill: rgb(0.000000%,0.000000%,0.000000%);stroke: none;"></path>
      <path d="M79.523346 0.624161C79.523346 0.226318,79.365280 -0.155182,79.083984 -0.436478C78.802689 -0.717773,78.421188 -0.875839,78.023346 -0.875839C77.625504 -0.875839,77.244003 -0.717773,76.962708 -0.436478C76.681412 -0.155182,76.523346 0.226318,76.523346 0.624161C76.523346 1.022003,76.681412 1.403503,76.962708 1.684799C77.244003 1.966095,77.625504 2.124161,78.023346 2.124161C78.421188 2.124161,78.802689 1.966095,79.083984 1.684799C79.365280 1.403503,79.523346 1.022003,79.523346 0.624161Z" style="fill: rgb(0.000000%,0.000000%,0.000000%);stroke: none;"></path>
      <path d="M105.035400 44.812469C105.035400 44.414627,104.877335 44.033127,104.596039 43.751831C104.314743 43.470535,103.933243 43.312469,103.535400 43.312469C103.137558 43.312469,102.756058 43.470535,102.474762 43.751831C102.193466 44.033127,102.035400 44.414627,102.035400 44.812469C102.035400 45.210312,102.193466 45.591812,102.474762 45.873108C102.756058 46.154404,103.137558 46.312469,103.535400 46.312469C103.933243 46.312469,104.314743 46.154404,104.596039 45.873108C104.877335 45.591812,105.035400 45.210312,105.035400 44.812469Z" style="fill: rgb(0.000000%,0.000000%,0.000000%);stroke: none;"></path>
      <path d="M79.522568 89.000000C79.522568 88.602158,79.364502 88.220657,79.083206 87.939362C78.801910 87.658066,78.420410 87.500000,78.022568 87.500000C77.624725 87.500000,77.243225 87.658066,76.961929 87.939362C76.680634 88.220657,76.522568 88.602158,76.522568 89.000000C76.522568 89.397842,76.680634 89.779343,76.961929 90.060638C77.243225 90.341934,77.624725 90.500000,78.022568 90.500000C78.420410 90.500000,78.801910 90.341934,79.083206 90.060638C79.364502 89.779343,79.522568 89.397842,79.522568 89.000000Z" style="fill: rgb(0.000000%,0.000000%,0.000000%);stroke: none;"></path>
    </g>
  </g>
</svg>
