<?xml version="1.0"?>
<!-- Created by MetaPost 2.01 on 2021.10.19:2335 -->
<svg version="1.1" xmlns="http://www.w3.org/2000/svg" xmlns:xlink="http://www.w3.org/1999/xlink" width="113.384094" height="91.957275" viewBox="0 0 113.384094 91.957275">
<!-- Original BoundingBox: -56.692047 -45.978638 56.692047 45.978638 -->
  <defs>
    <g transform="scale(0.009963,0.009963)" id="GLYPHcmmi10_11">
      <path style="fill-rule: evenodd;" d="M477.000000 -236.000000C477.000000 -393.000000,384.000000 -442.000000,310.000000 -442.000000C173.000000 -442.000000,41.000000 -299.000000,41.000000 -158.000000C41.000000 -65.000000,101.000000 11.000000,203.000000 11.000000C266.000000 11.000000,338.000000 -12.000000,414.000000 -73.000000C427.000000 -20.000000,460.000000 11.000000,505.000000 11.000000C558.000000 11.000000,589.000000 -44.000000,589.000000 -60.000000C589.000000 -67.000000,583.000000 -70.000000,577.000000 -70.000000C570.000000 -70.000000,567.000000 -67.000000,564.000000 -60.000000C546.000000 -11.000000,510.000000 -11.000000,508.000000 -11.000000C477.000000 -11.000000,477.000000 -89.000000,477.000000 -113.000000C477.000000 -134.000000,477.000000 -136.000000,487.000000 -148.000000C581.000000 -266.000000,602.000000 -382.000000,602.000000 -383.000000C602.000000 -385.000000,601.000000 -393.000000,590.000000 -393.000000C580.000000 -393.000000,580.000000 -390.000000,575.000000 -372.000000C557.000000 -309.000000,524.000000 -233.000000,477.000000 -174.000000M410.000000 -99.000000C322.000000 -22.000000,245.000000 -11.000000,205.000000 -11.000000C145.000000 -11.000000,115.000000 -56.000000,115.000000 -120.000000C115.000000 -169.000000,141.000000 -277.000000,173.000000 -328.000000C220.000000 -401.000000,274.000000 -420.000000,309.000000 -420.000000C408.000000 -420.000000,408.000000 -289.000000,408.000000 -211.000000C408.000000 -174.000000,408.000000 -116.000000,410.000000 -99.000000"></path>
    </g>
    <g transform="scale(0.009963,0.009963)" id="GLYPHcmmi10_12">
      <path style="fill-rule: evenodd;" d="M575.000000 -569.000000C575.000000 -644.000000,520.000000 -706.000000,439.000000 -706.000000C381.000000 -706.000000,353.000000 -690.000000,318.000000 -664.000000C263.000000 -624.000000,208.000000 -527.000000,189.000000 -451.000000L30.000000 184.000000C29.000000 188.000000,34.000000 194.000000,42.000000 194.000000C50.000000 194.000000,53.000000 192.000000,54.000000 189.000000L124.000000 -87.000000C143.000000 -27.000000,187.000000 10.000000,260.000000 10.000000C333.000000 10.000000,408.000000 -25.000000,453.000000 -69.000000C501.000000 -115.000000,533.000000 -179.000000,533.000000 -253.000000C533.000000 -325.000000,496.000000 -377.000000,460.000000 -402.000000C518.000000 -435.000000,575.000000 -497.000000,575.000000 -569.000000M395.000000 -403.000000C382.000000 -398.000000,371.000000 -396.000000,347.000000 -396.000000C333.000000 -396.000000,313.000000 -395.000000,303.000000 -400.000000C305.000000 -410.000000,341.000000 -408.000000,352.000000 -408.000000C373.000000 -408.000000,382.000000 -408.000000,395.000000 -403.000000M519.000000 -592.000000C519.000000 -522.000000,481.000000 -450.000000,429.000000 -419.000000C402.000000 -429.000000,382.000000 -431.000000,352.000000 -431.000000C331.000000 -431.000000,275.000000 -432.000000,275.000000 -399.000000C274.000000 -371.000000,326.000000 -374.000000,344.000000 -374.000000C381.000000 -374.000000,396.000000 -375.000000,426.000000 -387.000000C464.000000 -351.000000,469.000000 -320.000000,470.000000 -274.000000C472.000000 -216.000000,448.000000 -141.000000,420.000000 -102.000000C381.000000 -48.000000,314.000000 -12.000000,257.000000 -12.000000C181.000000 -12.000000,143.000000 -70.000000,143.000000 -141.000000C143.000000 -151.000000,143.000000 -166.000000,148.000000 -185.000000L212.000000 -438.000000C234.000000 -524.000000,306.000000 -683.000000,426.000000 -683.000000C484.000000 -683.000000,519.000000 -652.000000,519.000000 -592.000000"></path>
    </g>
    <g transform="scale(0.009963,0.009963)" id="GLYPHcmmi10_13">
      <path style="fill-rule: evenodd;" d="M41.000000 -254.000000C80.000000 -369.000000,189.000000 -370.000000,200.000000 -370.000000C351.000000 -370.000000,362.000000 -195.000000,362.000000 -116.000000C362.000000 -55.000000,357.000000 -38.000000,350.000000 -18.000000C328.000000 55.000000,298.000000 171.000000,298.000000 197.000000C298.000000 208.000000,303.000000 215.000000,311.000000 215.000000C324.000000 215.000000,332.000000 193.000000,343.000000 155.000000C366.000000 71.000000,376.000000 14.000000,380.000000 -17.000000C382.000000 -30.000000,384.000000 -43.000000,388.000000 -56.000000C420.000000 -155.000000,484.000000 -304.000000,524.000000 -383.000000C531.000000 -395.000000,543.000000 -417.000000,543.000000 -421.000000C543.000000 -431.000000,533.000000 -431.000000,531.000000 -431.000000C528.000000 -431.000000,522.000000 -431.000000,519.000000 -424.000000C467.000000 -329.000000,427.000000 -229.000000,387.000000 -128.000000C386.000000 -159.000000,385.000000 -235.000000,346.000000 -332.000000C322.000000 -393.000000,282.000000 -442.000000,213.000000 -442.000000C88.000000 -442.000000,18.000000 -290.000000,18.000000 -259.000000C18.000000 -249.000000,27.000000 -249.000000,37.000000 -249.000000"></path>
    </g>
    <g transform="scale(0.009963,0.009963)" id="GLYPHcmmi10_18">
      <path style="fill-rule: evenodd;" d="M455.000000 -500.000000C455.000000 -566.000000,437.000000 -705.000000,335.000000 -705.000000C196.000000 -705.000000,42.000000 -423.000000,42.000000 -194.000000C42.000000 -100.000000,71.000000 11.000000,162.000000 11.000000C303.000000 11.000000,455.000000 -276.000000,455.000000 -500.000000M148.000000 -363.000000C165.000000 -427.000000,185.000000 -507.000000,225.000000 -578.000000C252.000000 -627.000000,289.000000 -683.000000,334.000000 -683.000000C383.000000 -683.000000,389.000000 -619.000000,389.000000 -562.000000C389.000000 -513.000000,381.000000 -462.000000,357.000000 -363.000000M348.000000 -331.000000C337.000000 -285.000000,316.000000 -200.000000,278.000000 -128.000000C243.000000 -60.000000,205.000000 -11.000000,162.000000 -11.000000C129.000000 -11.000000,108.000000 -40.000000,108.000000 -133.000000C108.000000 -175.000000,114.000000 -233.000000,140.000000 -331.000000"></path>
    </g>
    <g transform="scale(0.009963,0.009963)" id="GLYPHcmmi10_108">
      <path style="fill-rule: evenodd;" d="M258.000000 -683.000000C258.000000 -684.000000,258.000000 -694.000000,245.000000 -694.000000C222.000000 -694.000000,149.000000 -686.000000,123.000000 -684.000000C115.000000 -683.000000,104.000000 -682.000000,104.000000 -663.000000C104.000000 -652.000000,114.000000 -652.000000,129.000000 -652.000000C177.000000 -652.000000,178.000000 -643.000000,178.000000 -635.000000L175.000000 -615.000000L49.000000 -115.000000C46.000000 -104.000000,44.000000 -97.000000,44.000000 -81.000000C44.000000 -24.000000,88.000000 11.000000,135.000000 11.000000C168.000000 11.000000,193.000000 -9.000000,210.000000 -45.000000C228.000000 -83.000000,240.000000 -141.000000,240.000000 -143.000000C240.000000 -153.000000,231.000000 -153.000000,228.000000 -153.000000C218.000000 -153.000000,217.000000 -149.000000,214.000000 -135.000000C197.000000 -70.000000,178.000000 -11.000000,138.000000 -11.000000C108.000000 -11.000000,108.000000 -43.000000,108.000000 -57.000000C108.000000 -81.000000,109.000000 -86.000000,114.000000 -105.000000"></path>
    </g>
    <g transform="scale(0.009963,0.009963)" id="GLYPHcmmi10_109">
      <path style="fill-rule: evenodd;" d="M88.000000 -59.000000C85.000000 -44.000000,79.000000 -21.000000,79.000000 -16.000000C79.000000 2.000000,93.000000 11.000000,108.000000 11.000000C120.000000 11.000000,138.000000 3.000000,145.000000 -17.000000C146.000000 -19.000000,158.000000 -66.000000,164.000000 -91.000000L186.000000 -181.000000C192.000000 -203.000000,198.000000 -225.000000,203.000000 -248.000000C207.000000 -265.000000,215.000000 -294.000000,216.000000 -298.000000C231.000000 -329.000000,284.000000 -420.000000,379.000000 -420.000000C424.000000 -420.000000,433.000000 -383.000000,433.000000 -350.000000C433.000000 -325.000000,426.000000 -297.000000,418.000000 -267.000000L390.000000 -151.000000L370.000000 -75.000000C366.000000 -55.000000,357.000000 -21.000000,357.000000 -16.000000C357.000000 2.000000,371.000000 11.000000,386.000000 11.000000C417.000000 11.000000,423.000000 -14.000000,431.000000 -46.000000C445.000000 -102.000000,482.000000 -248.000000,491.000000 -287.000000C494.000000 -300.000000,547.000000 -420.000000,656.000000 -420.000000C699.000000 -420.000000,710.000000 -386.000000,710.000000 -350.000000C710.000000 -293.000000,668.000000 -179.000000,648.000000 -126.000000C639.000000 -102.000000,635.000000 -91.000000,635.000000 -71.000000C635.000000 -24.000000,670.000000 11.000000,717.000000 11.000000C811.000000 11.000000,848.000000 -135.000000,848.000000 -143.000000C848.000000 -153.000000,839.000000 -153.000000,836.000000 -153.000000C826.000000 -153.000000,826.000000 -150.000000,821.000000 -135.000000C806.000000 -82.000000,774.000000 -11.000000,719.000000 -11.000000C702.000000 -11.000000,695.000000 -21.000000,695.000000 -44.000000C695.000000 -69.000000,704.000000 -93.000000,713.000000 -115.000000C732.000000 -167.000000,774.000000 -278.000000,774.000000 -335.000000C774.000000 -400.000000,734.000000 -442.000000,659.000000 -442.000000C584.000000 -442.000000,533.000000 -398.000000,496.000000 -345.000000C495.000000 -358.000000,492.000000 -392.000000,464.000000 -416.000000C439.000000 -437.000000,407.000000 -442.000000,382.000000 -442.000000C292.000000 -442.000000,243.000000 -378.000000,226.000000 -355.000000C221.000000 -412.000000,179.000000 -442.000000,134.000000 -442.000000C88.000000 -442.000000,69.000000 -403.000000,60.000000 -385.000000C42.000000 -350.000000,29.000000 -291.000000,29.000000 -288.000000C29.000000 -278.000000,39.000000 -278.000000,41.000000 -278.000000C51.000000 -278.000000,52.000000 -279.000000,58.000000 -301.000000C75.000000 -372.000000,95.000000 -420.000000,131.000000 -420.000000C147.000000 -420.000000,162.000000 -412.000000,162.000000 -374.000000C162.000000 -353.000000,159.000000 -342.000000,146.000000 -290.000000"></path>
    </g>
    <g transform="scale(0.009963,0.009963)" id="GLYPHcmmi10_110">
      <path style="fill-rule: evenodd;" d="M88.000000 -59.000000C85.000000 -44.000000,79.000000 -21.000000,79.000000 -16.000000C79.000000 2.000000,93.000000 11.000000,108.000000 11.000000C120.000000 11.000000,138.000000 3.000000,145.000000 -17.000000C146.000000 -19.000000,158.000000 -66.000000,164.000000 -91.000000L186.000000 -181.000000C192.000000 -203.000000,198.000000 -225.000000,203.000000 -248.000000C207.000000 -265.000000,215.000000 -294.000000,216.000000 -298.000000C231.000000 -329.000000,284.000000 -420.000000,379.000000 -420.000000C424.000000 -420.000000,433.000000 -383.000000,433.000000 -350.000000C433.000000 -288.000000,384.000000 -160.000000,368.000000 -117.000000C359.000000 -94.000000,358.000000 -82.000000,358.000000 -71.000000C358.000000 -24.000000,393.000000 11.000000,440.000000 11.000000C534.000000 11.000000,571.000000 -135.000000,571.000000 -143.000000C571.000000 -153.000000,562.000000 -153.000000,559.000000 -153.000000C549.000000 -153.000000,549.000000 -150.000000,544.000000 -135.000000C524.000000 -67.000000,491.000000 -11.000000,442.000000 -11.000000C425.000000 -11.000000,418.000000 -21.000000,418.000000 -44.000000C418.000000 -69.000000,427.000000 -93.000000,436.000000 -115.000000C455.000000 -168.000000,497.000000 -278.000000,497.000000 -335.000000C497.000000 -402.000000,454.000000 -442.000000,382.000000 -442.000000C292.000000 -442.000000,243.000000 -378.000000,226.000000 -355.000000C221.000000 -411.000000,180.000000 -442.000000,134.000000 -442.000000C88.000000 -442.000000,69.000000 -403.000000,59.000000 -385.000000C43.000000 -351.000000,29.000000 -292.000000,29.000000 -288.000000C29.000000 -278.000000,39.000000 -278.000000,41.000000 -278.000000C51.000000 -278.000000,52.000000 -279.000000,58.000000 -301.000000C75.000000 -372.000000,95.000000 -420.000000,131.000000 -420.000000C151.000000 -420.000000,162.000000 -407.000000,162.000000 -374.000000C162.000000 -353.000000,159.000000 -342.000000,146.000000 -290.000000"></path>
    </g>
  </defs>
  <g>
    <defs>
      <clipPath id="CLIP1">
        <path d="M-0.692047 101.692047L-0.692047 -11.692047L112.692047 -11.692047L112.692047 101.692047Z" style="fill: black; stroke: none;"></path>
      </clipPath>
    </defs>
    <g clip-path="url(#CLIP1);">
      <path d="M-0.692047 27.992386L112.692047 27.992386" style="stroke:rgb(0.000000%,0.000000%,0.000000%); stroke-width: 1.250000;stroke-linecap: round;stroke-linejoin: round;stroke-miterlimit: 10.000000;fill: none;"></path>
      <path d="M-0.692047 62.007614L112.692047 62.007614" style="stroke:rgb(0.000000%,0.000000%,0.000000%); stroke-width: 1.250000;stroke-linecap: round;stroke-linejoin: round;stroke-miterlimit: 10.000000;fill: none;"></path>
      <path d="M78.676819 -0.353638L33.323181 90.353638" style="stroke:rgb(0.000000%,0.000000%,0.000000%); stroke-width: 1.250000;stroke-linecap: round;stroke-linejoin: round;stroke-miterlimit: 10.000000;fill: none;"></path>
      <g transform="translate(3.392975 24.992386)" style="fill: rgb(0.000000%,0.000000%,0.000000%);">
        <use xlink:href="#GLYPHcmmi10_108"></use>
      </g>
      <g transform="translate(0.603668 59.007614)" style="fill: rgb(0.000000%,0.000000%,0.000000%);">
        <use xlink:href="#GLYPHcmmi10_109"></use>
      </g>
      <g transform="translate(78.509155 10.571671)" style="fill: rgb(0.000000%,0.000000%,0.000000%);">
        <use xlink:href="#GLYPHcmmi10_110"></use>
      </g>
      <g transform="translate(66.603622 37.010712)" style="fill: rgb(0.000000%,0.000000%,0.000000%);">
        <use xlink:href="#GLYPHcmmi10_18"></use>
      </g>
      <g transform="translate(50.573532 37.010712)" style="fill: rgb(0.000000%,0.000000%,0.000000%);">
        <use xlink:href="#GLYPHcmmi10_12"></use>
      </g>
      <g transform="translate(34.015778 68.397278)" style="fill: rgb(0.000000%,0.000000%,0.000000%);">
        <use xlink:href="#GLYPHcmmi10_13"></use>
      </g>
      <g transform="translate(55.265564 59.907791)" style="fill: rgb(0.000000%,0.000000%,0.000000%);">
        <use xlink:href="#GLYPHcmmi10_11"></use>
      </g>
    </g>
  </g>
</svg>
