<?xml version="1.0"?>
<!-- Created by MetaPost 2.01 on 2021.10.19:2335 -->
<svg version="1.1" xmlns="http://www.w3.org/2000/svg" xmlns:xlink="http://www.w3.org/1999/xlink" width="99.919022" height="95.204025" viewBox="0 0 99.919022 95.204025">
<!-- Original BoundingBox: -19.896484 -2.099991 80.022537 93.104034 -->
  <g>
    <defs>
      <clipPath id="CLIP1">
        <path d="M-32.024124 110.008041L-32.024124 -9.048248L155.064331 -9.048248L155.064331 110.008041Z" style="fill: black; stroke: none;"></path>
      </clipPath>
    </defs>
    <g clip-path="url(#CLIP1);">
      <path d="M19.000000 93.000000L0.603516 36.385773L48.763031 1.395966L96.922546 36.385773L78.526062 93.000000L19.000000 93.000000" style="stroke:rgb(0.000000%,0.000000%,0.000000%); stroke-width: 1.250000;stroke-linecap: round;stroke-linejoin: round;stroke-miterlimit: 10.000000;fill: none;"></path>
      <path d="M0.603516 36.385773L96.922546 36.385773L19.000000 93.000000" style="stroke:rgb(0.000000%,0.000000%,0.000000%); stroke-width: 1.250000;stroke-linecap: round;stroke-linejoin: round;stroke-miterlimit: 10.000000;fill: none;"></path>
      <path d="M20.500000 93.000000C20.500000 92.602158,20.341934 92.220657,20.060638 91.939362C19.779343 91.658066,19.397842 91.500000,19.000000 91.500000C18.602158 91.500000,18.220657 91.658066,17.939362 91.939362C17.658066 92.220657,17.500000 92.602158,17.500000 93.000000C17.500000 93.397842,17.658066 93.779343,17.939362 94.060638C18.220657 94.341934,18.602158 94.500000,19.000000 94.500000C19.397842 94.500000,19.779343 94.341934,20.060638 94.060638C20.341934 93.779343,20.500000 93.397842,20.500000 93.000000Z" style="fill: rgb(0.000000%,0.000000%,0.000000%);stroke: none;"></path>
      <path d="M2.103516 36.385773C2.103516 35.987930,1.945450 35.606430,1.664154 35.325134C1.382858 35.043839,1.001358 34.885773,0.603516 34.885773C0.205673 34.885773,-0.175827 35.043839,-0.457123 35.325134C-0.738419 35.606430,-0.896484 35.987930,-0.896484 36.385773C-0.896484 36.783615,-0.738419 37.165115,-0.457123 37.446411C-0.175827 37.727707,0.205673 37.885773,0.603516 37.885773C1.001358 37.885773,1.382858 37.727707,1.664154 37.446411C1.945450 37.165115,2.103516 36.783615,2.103516 36.385773Z" style="fill: rgb(0.000000%,0.000000%,0.000000%);stroke: none;"></path>
      <path d="M50.263031 1.395966C50.263031 0.998123,50.104965 0.616623,49.823669 0.335327C49.542374 0.054031,49.160873 -0.104034,48.763031 -0.104034C48.365189 -0.104034,47.983688 0.054031,47.702393 0.335327C47.421097 0.616623,47.263031 0.998123,47.263031 1.395966C47.263031 1.793808,47.421097 2.175308,47.702393 2.456604C47.983688 2.737900,48.365189 2.895966,48.763031 2.895966C49.160873 2.895966,49.542374 2.737900,49.823669 2.456604C50.104965 2.175308,50.263031 1.793808,50.263031 1.395966Z" style="fill: rgb(0.000000%,0.000000%,0.000000%);stroke: none;"></path>
      <path d="M98.422546 36.385773C98.422546 35.987930,98.264481 35.606430,97.983185 35.325134C97.701889 35.043839,97.320389 34.885773,96.922546 34.885773C96.524704 34.885773,96.143204 35.043839,95.861908 35.325134C95.580612 35.606430,95.422546 35.987930,95.422546 36.385773C95.422546 36.783615,95.580612 37.165115,95.861908 37.446411C96.143204 37.727707,96.524704 37.885773,96.922546 37.885773C97.320389 37.885773,97.701889 37.727707,97.983185 37.446411C98.264481 37.165115,98.422546 36.783615,98.422546 36.385773Z" style="fill: rgb(0.000000%,0.000000%,0.000000%);stroke: none;"></path>
      <path d="M80.026062 93.000000C80.026062 92.602158,79.867996 92.220657,79.586700 91.939362C79.305405 91.658066,78.923904 91.500000,78.526062 91.500000C78.128220 91.500000,77.746719 91.658066,77.465424 91.939362C77.184128 92.220657,77.026062 92.602158,77.026062 93.000000C77.026062 93.397842,77.184128 93.779343,77.465424 94.060638C77.746719 94.341934,78.128220 94.500000,78.526062 94.500000C78.923904 94.500000,79.305405 94.341934,79.586700 94.060638C79.867996 93.779343,80.026062 93.397842,80.026062 93.000000Z" style="fill: rgb(0.000000%,0.000000%,0.000000%);stroke: none;"></path>
    </g>
  </g>
</svg>
