<?xml version="1.0"?>
<!-- Created by MetaPost 2.01 on 2021.10.20:2232 -->
<svg version="1.1" xmlns="http://www.w3.org/2000/svg" xmlns:xlink="http://www.w3.org/1999/xlink" width="126.105286" height="117.951370" viewBox="0 0 126.105286 117.951370">
<!-- Original BoundingBox: -30.857742 -8.907791 95.247543 109.043579 -->
  <defs>
    <g transform="scale(0.009963,0.009963)" id="GLYPHcmmi10_65">
      <path style="fill-rule: evenodd;" d="M179.000000 -115.000000C139.000000 -48.000000,100.000000 -34.000000,56.000000 -31.000000C44.000000 -30.000000,35.000000 -30.000000,35.000000 -11.000000C35.000000 -5.000000,40.000000 -0.000000,48.000000 -0.000000C75.000000 -0.000000,106.000000 -3.000000,134.000000 -3.000000C167.000000 -3.000000,202.000000 -0.000000,234.000000 -0.000000C240.000000 -0.000000,253.000000 -0.000000,253.000000 -19.000000C253.000000 -30.000000,244.000000 -31.000000,237.000000 -31.000000C214.000000 -33.000000,190.000000 -41.000000,190.000000 -66.000000C190.000000 -78.000000,196.000000 -89.000000,204.000000 -103.000000L280.000000 -231.000000L531.000000 -231.000000C533.000000 -210.000000,547.000000 -74.000000,547.000000 -64.000000C547.000000 -34.000000,495.000000 -31.000000,475.000000 -31.000000C461.000000 -31.000000,451.000000 -31.000000,451.000000 -11.000000C451.000000 -0.000000,463.000000 -0.000000,465.000000 -0.000000C506.000000 -0.000000,549.000000 -3.000000,590.000000 -3.000000C615.000000 -3.000000,678.000000 -0.000000,703.000000 -0.000000C709.000000 -0.000000,721.000000 -0.000000,721.000000 -20.000000C721.000000 -31.000000,711.000000 -31.000000,698.000000 -31.000000C636.000000 -31.000000,636.000000 -38.000000,633.000000 -67.000000L572.000000 -692.000000C570.000000 -712.000000,570.000000 -716.000000,553.000000 -716.000000C537.000000 -716.000000,533.000000 -709.000000,527.000000 -699.000000M299.000000 -262.000000L496.000000 -592.000000L528.000000 -262.000000"></path>
    </g>
    <g transform="scale(0.009963,0.009963)" id="GLYPHcmmi10_66">
      <path style="fill-rule: evenodd;" d="M160.000000 -78.000000C150.000000 -39.000000,148.000000 -31.000000,69.000000 -31.000000C52.000000 -31.000000,42.000000 -31.000000,42.000000 -11.000000C42.000000 -0.000000,51.000000 -0.000000,69.000000 -0.000000L426.000000 -0.000000C584.000000 -0.000000,702.000000 -118.000000,702.000000 -216.000000C702.000000 -288.000000,644.000000 -346.000000,547.000000 -357.000000C651.000000 -376.000000,756.000000 -450.000000,756.000000 -545.000000C756.000000 -619.000000,690.000000 -683.000000,570.000000 -683.000000L234.000000 -683.000000C215.000000 -683.000000,205.000000 -683.000000,205.000000 -663.000000C205.000000 -652.000000,214.000000 -652.000000,233.000000 -652.000000C235.000000 -652.000000,254.000000 -652.000000,271.000000 -650.000000C289.000000 -648.000000,298.000000 -647.000000,298.000000 -634.000000C298.000000 -630.000000,297.000000 -627.000000,294.000000 -615.000000M311.000000 -366.000000L373.000000 -614.000000C382.000000 -649.000000,384.000000 -652.000000,427.000000 -652.000000L556.000000 -652.000000C644.000000 -652.000000,665.000000 -593.000000,665.000000 -549.000000C665.000000 -461.000000,579.000000 -366.000000,457.000000 -366.000000M266.000000 -31.000000C252.000000 -31.000000,250.000000 -31.000000,244.000000 -32.000000C234.000000 -33.000000,231.000000 -34.000000,231.000000 -42.000000C231.000000 -45.000000,231.000000 -47.000000,236.000000 -65.000000L305.000000 -344.000000L494.000000 -344.000000C590.000000 -344.000000,609.000000 -270.000000,609.000000 -227.000000C609.000000 -128.000000,520.000000 -31.000000,402.000000 -31.000000"></path>
    </g>
    <g transform="scale(0.009963,0.009963)" id="GLYPHcmmi10_67">
      <path style="fill-rule: evenodd;" d="M760.000000 -695.000000C760.000000 -698.000000,758.000000 -705.000000,749.000000 -705.000000C746.000000 -705.000000,745.000000 -704.000000,734.000000 -693.000000L664.000000 -616.000000C655.000000 -630.000000,609.000000 -705.000000,498.000000 -705.000000C275.000000 -705.000000,50.000000 -484.000000,50.000000 -252.000000C50.000000 -87.000000,168.000000 22.000000,321.000000 22.000000C408.000000 22.000000,484.000000 -18.000000,537.000000 -64.000000C630.000000 -146.000000,647.000000 -237.000000,647.000000 -240.000000C647.000000 -250.000000,637.000000 -250.000000,635.000000 -250.000000C629.000000 -250.000000,624.000000 -248.000000,622.000000 -240.000000C613.000000 -211.000000,590.000000 -140.000000,521.000000 -82.000000C452.000000 -26.000000,389.000000 -9.000000,337.000000 -9.000000C247.000000 -9.000000,141.000000 -61.000000,141.000000 -217.000000C141.000000 -274.000000,162.000000 -436.000000,262.000000 -553.000000C323.000000 -624.000000,417.000000 -674.000000,506.000000 -674.000000C608.000000 -674.000000,667.000000 -597.000000,667.000000 -481.000000C667.000000 -441.000000,664.000000 -440.000000,664.000000 -430.000000C664.000000 -420.000000,675.000000 -420.000000,679.000000 -420.000000C692.000000 -420.000000,692.000000 -422.000000,697.000000 -440.000000"></path>
    </g>
    <g transform="scale(0.009963,0.009963)" id="GLYPHcmmi10_68">
      <path style="fill-rule: evenodd;" d="M159.000000 -78.000000C149.000000 -39.000000,147.000000 -31.000000,68.000000 -31.000000C51.000000 -31.000000,40.000000 -31.000000,40.000000 -12.000000C40.000000 -0.000000,49.000000 -0.000000,68.000000 -0.000000L399.000000 -0.000000C607.000000 -0.000000,804.000000 -211.000000,804.000000 -430.000000C804.000000 -571.000000,719.000000 -683.000000,569.000000 -683.000000L233.000000 -683.000000C214.000000 -683.000000,203.000000 -683.000000,203.000000 -664.000000C203.000000 -652.000000,212.000000 -652.000000,232.000000 -652.000000C245.000000 -652.000000,263.000000 -651.000000,275.000000 -650.000000C291.000000 -648.000000,297.000000 -645.000000,297.000000 -634.000000C297.000000 -630.000000,296.000000 -627.000000,293.000000 -615.000000M375.000000 -614.000000C384.000000 -649.000000,386.000000 -652.000000,429.000000 -652.000000L536.000000 -652.000000C634.000000 -652.000000,717.000000 -599.000000,717.000000 -467.000000C717.000000 -418.000000,697.000000 -254.000000,612.000000 -144.000000C583.000000 -107.000000,504.000000 -31.000000,381.000000 -31.000000L268.000000 -31.000000C254.000000 -31.000000,252.000000 -31.000000,246.000000 -32.000000C236.000000 -33.000000,233.000000 -34.000000,233.000000 -42.000000C233.000000 -45.000000,233.000000 -47.000000,238.000000 -65.000000"></path>
    </g>
    <g transform="scale(0.009963,0.009963)" id="GLYPHcmmi10_69">
      <path style="fill-rule: evenodd;" d="M708.000000 -233.000000C710.000000 -238.000000,713.000000 -245.000000,713.000000 -247.000000C713.000000 -248.000000,713.000000 -258.000000,701.000000 -258.000000C692.000000 -258.000000,690.000000 -252.000000,688.000000 -246.000000C623.000000 -98.000000,586.000000 -31.000000,415.000000 -31.000000L269.000000 -31.000000C255.000000 -31.000000,253.000000 -31.000000,247.000000 -32.000000C237.000000 -33.000000,234.000000 -34.000000,234.000000 -42.000000C234.000000 -45.000000,234.000000 -47.000000,239.000000 -65.000000L307.000000 -338.000000L406.000000 -338.000000C491.000000 -338.000000,491.000000 -317.000000,491.000000 -292.000000C491.000000 -285.000000,491.000000 -273.000000,484.000000 -243.000000C482.000000 -238.000000,481.000000 -235.000000,481.000000 -232.000000C481.000000 -227.000000,485.000000 -221.000000,494.000000 -221.000000C502.000000 -221.000000,505.000000 -226.000000,509.000000 -241.000000L566.000000 -475.000000C566.000000 -481.000000,561.000000 -486.000000,554.000000 -486.000000C545.000000 -486.000000,543.000000 -480.000000,540.000000 -468.000000C519.000000 -392.000000,501.000000 -369.000000,409.000000 -369.000000L315.000000 -369.000000L375.000000 -610.000000C384.000000 -645.000000,385.000000 -649.000000,429.000000 -649.000000L570.000000 -649.000000C692.000000 -649.000000,722.000000 -620.000000,722.000000 -538.000000C722.000000 -514.000000,722.000000 -512.000000,718.000000 -485.000000C718.000000 -479.000000,717.000000 -472.000000,717.000000 -467.000000C717.000000 -462.000000,720.000000 -455.000000,729.000000 -455.000000C740.000000 -455.000000,741.000000 -461.000000,743.000000 -480.000000L763.000000 -653.000000C766.000000 -680.000000,761.000000 -680.000000,736.000000 -680.000000L231.000000 -680.000000C211.000000 -680.000000,201.000000 -680.000000,201.000000 -660.000000C201.000000 -649.000000,210.000000 -649.000000,229.000000 -649.000000C266.000000 -649.000000,294.000000 -649.000000,294.000000 -631.000000C294.000000 -627.000000,294.000000 -625.000000,289.000000 -607.000000L157.000000 -78.000000C147.000000 -39.000000,145.000000 -31.000000,66.000000 -31.000000C49.000000 -31.000000,38.000000 -31.000000,38.000000 -12.000000C38.000000 -0.000000,47.000000 -0.000000,66.000000 -0.000000L585.000000 -0.000000C608.000000 -0.000000,609.000000 -1.000000,616.000000 -17.000000"></path>
    </g>
    <g transform="scale(0.009963,0.009963)" id="GLYPHcmmi10_70">
      <path style="fill-rule: evenodd;" d="M303.000000 -325.000000L400.000000 -325.000000C475.000000 -325.000000,483.000000 -309.000000,483.000000 -280.000000C483.000000 -273.000000,483.000000 -261.000000,476.000000 -231.000000C474.000000 -226.000000,473.000000 -222.000000,473.000000 -220.000000C473.000000 -212.000000,479.000000 -208.000000,485.000000 -208.000000C495.000000 -208.000000,495.000000 -211.000000,500.000000 -229.000000L555.000000 -446.000000C558.000000 -457.000000,558.000000 -459.000000,558.000000 -462.000000C558.000000 -464.000000,556.000000 -473.000000,546.000000 -473.000000C536.000000 -473.000000,535.000000 -468.000000,531.000000 -452.000000C510.000000 -374.000000,487.000000 -356.000000,402.000000 -356.000000L311.000000 -356.000000L375.000000 -610.000000C384.000000 -645.000000,385.000000 -649.000000,429.000000 -649.000000L561.000000 -649.000000C684.000000 -649.000000,707.000000 -616.000000,707.000000 -539.000000C707.000000 -516.000000,707.000000 -512.000000,704.000000 -485.000000C702.000000 -472.000000,702.000000 -470.000000,702.000000 -467.000000C702.000000 -462.000000,705.000000 -455.000000,714.000000 -455.000000C725.000000 -455.000000,726.000000 -461.000000,728.000000 -480.000000L748.000000 -653.000000C751.000000 -680.000000,746.000000 -680.000000,721.000000 -680.000000L231.000000 -680.000000C211.000000 -680.000000,201.000000 -680.000000,201.000000 -660.000000C201.000000 -649.000000,210.000000 -649.000000,229.000000 -649.000000C266.000000 -649.000000,294.000000 -649.000000,294.000000 -631.000000C294.000000 -627.000000,294.000000 -625.000000,289.000000 -607.000000L157.000000 -78.000000C147.000000 -39.000000,145.000000 -31.000000,66.000000 -31.000000C49.000000 -31.000000,38.000000 -31.000000,38.000000 -12.000000C38.000000 -0.000000,50.000000 -0.000000,53.000000 -0.000000C82.000000 -0.000000,156.000000 -3.000000,185.000000 -3.000000C218.000000 -3.000000,301.000000 -0.000000,334.000000 -0.000000C343.000000 -0.000000,355.000000 -0.000000,355.000000 -19.000000C355.000000 -27.000000,349.000000 -29.000000,349.000000 -30.000000C346.000000 -31.000000,344.000000 -31.000000,321.000000 -31.000000C299.000000 -31.000000,294.000000 -31.000000,269.000000 -33.000000C240.000000 -36.000000,237.000000 -40.000000,237.000000 -53.000000C237.000000 -55.000000,237.000000 -61.000000,241.000000 -76.000000"></path>
    </g>
    <g transform="scale(0.009963,0.009963)" id="GLYPHcmmi10_71">
      <path style="fill-rule: evenodd;" d="M760.000000 -695.000000C760.000000 -698.000000,758.000000 -705.000000,749.000000 -705.000000C746.000000 -705.000000,745.000000 -704.000000,734.000000 -693.000000L664.000000 -616.000000C655.000000 -630.000000,609.000000 -705.000000,498.000000 -705.000000C275.000000 -705.000000,50.000000 -484.000000,50.000000 -252.000000C50.000000 -93.000000,161.000000 22.000000,323.000000 22.000000C367.000000 22.000000,412.000000 13.000000,448.000000 -2.000000C498.000000 -22.000000,517.000000 -43.000000,535.000000 -63.000000C544.000000 -38.000000,570.000000 -1.000000,580.000000 -1.000000C585.000000 -1.000000,587.000000 -4.000000,587.000000 -5.000000C589.000000 -7.000000,599.000000 -45.000000,604.000000 -66.000000L623.000000 -143.000000C627.000000 -160.000000,632.000000 -177.000000,636.000000 -194.000000C647.000000 -239.000000,648.000000 -241.000000,705.000000 -242.000000C710.000000 -242.000000,721.000000 -243.000000,721.000000 -262.000000C721.000000 -269.000000,716.000000 -273.000000,708.000000 -273.000000C685.000000 -273.000000,626.000000 -270.000000,603.000000 -270.000000C572.000000 -270.000000,494.000000 -273.000000,463.000000 -273.000000C454.000000 -273.000000,442.000000 -273.000000,442.000000 -253.000000C442.000000 -242.000000,450.000000 -242.000000,472.000000 -242.000000C473.000000 -242.000000,502.000000 -242.000000,525.000000 -240.000000C551.000000 -237.000000,556.000000 -234.000000,556.000000 -221.000000C556.000000 -212.000000,545.000000 -167.000000,535.000000 -130.000000C507.000000 -20.000000,377.000000 -9.000000,342.000000 -9.000000C246.000000 -9.000000,141.000000 -66.000000,141.000000 -219.000000C141.000000 -250.000000,151.000000 -415.000000,256.000000 -545.000000C310.000000 -613.000000,407.000000 -674.000000,506.000000 -674.000000C608.000000 -674.000000,667.000000 -597.000000,667.000000 -481.000000C667.000000 -441.000000,664.000000 -440.000000,664.000000 -430.000000C664.000000 -420.000000,675.000000 -420.000000,679.000000 -420.000000C692.000000 -420.000000,692.000000 -422.000000,697.000000 -440.000000"></path>
    </g>
  </defs>
  <g>
    <defs>
      <clipPath id="CLIP1">
        <path d="M-25.275055 127.425018L-25.275055 -1.550110L177.400146 -1.550110L177.400146 127.425018Z" style="fill: black; stroke: none;"></path>
      </clipPath>
    </defs>
    <g clip-path="url(#CLIP1);">
      <path d="M30.000000 109.000000L10.070862 47.669113L62.242661 9.764221L114.414444 47.669113L94.485321 109.000000L30.000000 109.000000" style="stroke:rgb(0.000000%,0.000000%,0.000000%); stroke-width: 1.250000;stroke-linecap: round;stroke-linejoin: round;stroke-miterlimit: 10.000000;fill: none;"></path>
      <path d="M30.000000 109.000000L30.000000 44.512436L94.487564 44.512436L94.485321 109.000000" style="stroke:rgb(0.000000%,0.000000%,0.000000%); stroke-width: 1.250000;stroke-linecap: round;stroke-linejoin: round;stroke-miterlimit: 10.000000;fill: none;"></path>
      <path d="M62.242661 9.764221L30.000000 109.000000L94.487564 44.512436" style="stroke:rgb(0.000000%,50.000000%,0.000000%); stroke-width: 1.250000;stroke-linecap: round;stroke-linejoin: round;stroke-miterlimit: 10.000000;fill: none;"></path>
      <path d="M31.500000 109.000000C31.500000 108.602158,31.341934 108.220657,31.060638 107.939362C30.779343 107.658066,30.397842 107.500000,30.000000 107.500000C29.602158 107.500000,29.220657 107.658066,28.939362 107.939362C28.658066 108.220657,28.500000 108.602158,28.500000 109.000000C28.500000 109.397842,28.658066 109.779343,28.939362 110.060638C29.220657 110.341934,29.602158 110.500000,30.000000 110.500000C30.397842 110.500000,30.779343 110.341934,31.060638 110.060638C31.341934 109.779343,31.500000 109.397842,31.500000 109.000000Z" style="fill: rgb(0.000000%,0.000000%,0.000000%);stroke: none;"></path>
      <g transform="translate(20.428009 117.907791)" style="fill: rgb(0.000000%,0.000000%,0.000000%);">
        <use xlink:href="#GLYPHcmmi10_65"></use>
      </g>
      <path d="M11.570862 47.669113C11.570862 47.271271,11.412796 46.889771,11.131500 46.608475C10.850204 46.327179,10.468704 46.169113,10.070862 46.169113C9.673019 46.169113,9.291519 46.327179,9.010223 46.608475C8.728928 46.889771,8.570862 47.271271,8.570862 47.669113C8.570862 48.066956,8.728928 48.448456,9.010223 48.729752C9.291519 49.011047,9.673019 49.169113,10.070862 49.169113C10.468704 49.169113,10.850204 49.011047,11.131500 48.729752C11.412796 48.448456,11.570862 48.066956,11.570862 47.669113Z" style="fill: rgb(0.000000%,0.000000%,0.000000%);stroke: none;"></path>
      <g transform="translate(-0.857742 51.073013)" style="fill: rgb(0.000000%,0.000000%,0.000000%);">
        <use xlink:href="#GLYPHcmmi10_69"></use>
      </g>
      <path d="M63.742661 9.764221C63.742661 9.366379,63.584595 8.984879,63.303299 8.703583C63.022003 8.422287,62.640503 8.264221,62.242661 8.264221C61.844818 8.264221,61.463318 8.422287,61.182022 8.703583C60.900726 8.984879,60.742661 9.366379,60.742661 9.764221C60.742661 10.162064,60.900726 10.543564,61.182022 10.824860C61.463318 11.106155,61.844818 11.264221,62.242661 11.264221C62.640503 11.264221,63.022003 11.106155,63.303299 10.824860C63.584595 10.543564,63.742661 10.162064,63.742661 9.764221Z" style="fill: rgb(0.000000%,0.000000%,0.000000%);stroke: none;"></path>
      <g transform="translate(57.980164 6.764221)" style="fill: rgb(0.000000%,0.000000%,0.000000%);">
        <use xlink:href="#GLYPHcmmi10_68"></use>
      </g>
      <path d="M115.914444 47.669113C115.914444 47.271271,115.756378 46.889771,115.475082 46.608475C115.193787 46.327179,114.812286 46.169113,114.414444 46.169113C114.016602 46.169113,113.635101 46.327179,113.353806 46.608475C113.072510 46.889771,112.914444 47.271271,112.914444 47.669113C112.914444 48.066956,113.072510 48.448456,113.353806 48.729752C113.635101 49.011047,114.016602 49.169113,114.414444 49.169113C114.812286 49.169113,115.193787 49.011047,115.475082 48.729752C115.756378 48.448456,115.914444 48.066956,115.914444 47.669113Z" style="fill: rgb(0.000000%,0.000000%,0.000000%);stroke: none;"></path>
      <g transform="translate(117.414444 51.073013)" style="fill: rgb(0.000000%,0.000000%,0.000000%);">
        <use xlink:href="#GLYPHcmmi10_67"></use>
      </g>
      <path d="M95.985321 109.000000C95.985321 108.602158,95.827255 108.220657,95.545959 107.939362C95.264664 107.658066,94.883163 107.500000,94.485321 107.500000C94.087479 107.500000,93.705978 107.658066,93.424683 107.939362C93.143387 108.220657,92.985321 108.602158,92.985321 109.000000C92.985321 109.397842,93.143387 109.779343,93.424683 110.060638C93.705978 110.341934,94.087479 110.500000,94.485321 110.500000C94.883163 110.500000,95.264664 110.341934,95.545959 110.060638C95.827255 109.779343,95.985321 109.397842,95.985321 109.000000Z" style="fill: rgb(0.000000%,0.000000%,0.000000%);stroke: none;"></path>
      <g transform="translate(96.585312 117.907791)" style="fill: rgb(0.000000%,0.000000%,0.000000%);">
        <use xlink:href="#GLYPHcmmi10_66"></use>
      </g>
      <path d="M31.500000 44.512436C31.500000 44.114594,31.341934 43.733093,31.060638 43.451797C30.779343 43.170502,30.397842 43.012436,30.000000 43.012436C29.602158 43.012436,29.220657 43.170502,28.939362 43.451797C28.658066 43.733093,28.500000 44.114594,28.500000 44.512436C28.500000 44.910278,28.658066 45.291779,28.939362 45.573074C29.220657 45.854370,29.602158 46.012436,30.000000 46.012436C30.397842 46.012436,30.779343 45.854370,31.060638 45.573074C31.341934 45.291779,31.500000 44.910278,31.500000 44.512436Z" style="fill: rgb(0.000000%,0.000000%,0.000000%);stroke: none;"></path>
      <g transform="translate(20.066910 53.420227)" style="fill: rgb(0.000000%,0.000000%,0.000000%);">
        <use xlink:href="#GLYPHcmmi10_71"></use>
      </g>
      <path d="M95.987564 44.512436C95.987564 44.114594,95.829498 43.733093,95.548203 43.451797C95.266907 43.170502,94.885406 43.012436,94.487564 43.012436C94.089722 43.012436,93.708221 43.170502,93.426926 43.451797C93.145630 43.733093,92.987564 44.114594,92.987564 44.512436C92.987564 44.910278,93.145630 45.291779,93.426926 45.573074C93.708221 45.854370,94.089722 46.012436,94.487564 46.012436C94.885406 46.012436,95.266907 45.854370,95.548203 45.573074C95.829498 45.291779,95.987564 44.910278,95.987564 44.512436Z" style="fill: rgb(0.000000%,0.000000%,0.000000%);stroke: none;"></path>
      <g transform="translate(96.587555 53.420227)" style="fill: rgb(0.000000%,0.000000%,0.000000%);">
        <use xlink:href="#GLYPHcmmi10_70"></use>
      </g>
    </g>
  </g>
</svg>
