<?xml version="1.0"?>
<!-- Created by MetaPost 2.01 on 2021.10.19:2335 -->
<svg version="1.1" xmlns="http://www.w3.org/2000/svg" xmlns:xlink="http://www.w3.org/1999/xlink" width="72.232147" height="71.632156" viewBox="0 0 72.232147 71.632156">
<!-- Original BoundingBox: -2.099991 -2.099991 70.132156 69.532166 -->
  <g>
    <defs>
      <clipPath id="CLIP1">
        <path d="M-15.008041 86.008041L-15.008041 -33.048248L138.064331 -33.048248L138.064331 86.008041Z" style="fill: black; stroke: none;"></path>
      </clipPath>
    </defs>
    <g clip-path="url(#CLIP1);">
      <path d="M2.000000 69.000000L70.032166 69.000000L70.032166 0.967834L2.000000 0.967834L2.000000 69.000000" style="stroke:rgb(0.000000%,0.000000%,0.000000%); stroke-width: 1.250000;stroke-linecap: round;stroke-linejoin: round;stroke-miterlimit: 10.000000;fill: none;"></path>
      <path d="M70.032166 69.000000L2.000000 0.967834" style="stroke:rgb(0.000000%,0.000000%,0.000000%); stroke-width: 1.250000;stroke-linecap: round;stroke-linejoin: round;stroke-miterlimit: 10.000000;fill: none;"></path>
      <path d="M3.500000 69.000000C3.500000 68.602158,3.341934 68.220657,3.060638 67.939362C2.779343 67.658066,2.397842 67.500000,2.000000 67.500000C1.602158 67.500000,1.220657 67.658066,0.939362 67.939362C0.658066 68.220657,0.500000 68.602158,0.500000 69.000000C0.500000 69.397842,0.658066 69.779343,0.939362 70.060638C1.220657 70.341934,1.602158 70.500000,2.000000 70.500000C2.397842 70.500000,2.779343 70.341934,3.060638 70.060638C3.341934 69.779343,3.500000 69.397842,3.500000 69.000000Z" style="fill: rgb(0.000000%,0.000000%,0.000000%);stroke: none;"></path>
      <path d="M71.532166 69.000000C71.532166 68.602158,71.374100 68.220657,71.092804 67.939362C70.811508 67.658066,70.430008 67.500000,70.032166 67.500000C69.634323 67.500000,69.252823 67.658066,68.971527 67.939362C68.690231 68.220657,68.532166 68.602158,68.532166 69.000000C68.532166 69.397842,68.690231 69.779343,68.971527 70.060638C69.252823 70.341934,69.634323 70.500000,70.032166 70.500000C70.430008 70.500000,70.811508 70.341934,71.092804 70.060638C71.374100 69.779343,71.532166 69.397842,71.532166 69.000000Z" style="fill: rgb(0.000000%,0.000000%,0.000000%);stroke: none;"></path>
      <path d="M71.532166 0.967834C71.532166 0.569992,71.374100 0.188492,71.092804 -0.092804C70.811508 -0.374100,70.430008 -0.532166,70.032166 -0.532166C69.634323 -0.532166,69.252823 -0.374100,68.971527 -0.092804C68.690231 0.188492,68.532166 0.569992,68.532166 0.967834C68.532166 1.365677,68.690231 1.747177,68.971527 2.028473C69.252823 2.309769,69.634323 2.467834,70.032166 2.467834C70.430008 2.467834,70.811508 2.309769,71.092804 2.028473C71.374100 1.747177,71.532166 1.365677,71.532166 0.967834Z" style="fill: rgb(0.000000%,0.000000%,0.000000%);stroke: none;"></path>
      <path d="M3.500000 0.967834C3.500000 0.569992,3.341934 0.188492,3.060638 -0.092804C2.779343 -0.374100,2.397842 -0.532166,2.000000 -0.532166C1.602158 -0.532166,1.220657 -0.374100,0.939362 -0.092804C0.658066 0.188492,0.500000 0.569992,0.500000 0.967834C0.500000 1.365677,0.658066 1.747177,0.939362 2.028473C1.220657 2.309769,1.602158 2.467834,2.000000 2.467834C2.397842 2.467834,2.779343 2.309769,3.060638 2.028473C3.341934 1.747177,3.500000 1.365677,3.500000 0.967834Z" style="fill: rgb(0.000000%,0.000000%,0.000000%);stroke: none;"></path>
    </g>
  </g>
</svg>
