<?xml version="1.0"?>
<!-- Created by MetaPost 2.01 on 2021.10.20:2232 -->
<svg version="1.1" xmlns="http://www.w3.org/2000/svg" xmlns:xlink="http://www.w3.org/1999/xlink" width="186.490814" height="87.971344" viewBox="0 0 186.490814 87.971344">
<!-- Original BoundingBox: -10.156586 -9.807800 176.334229 78.163544 -->
  <defs>
    <g transform="scale(0.009963,0.009963)" id="GLYPHcmmi10_65">
      <path style="fill-rule: evenodd;" d="M179.000000 -115.000000C139.000000 -48.000000,100.000000 -34.000000,56.000000 -31.000000C44.000000 -30.000000,35.000000 -30.000000,35.000000 -11.000000C35.000000 -5.000000,40.000000 -0.000000,48.000000 -0.000000C75.000000 -0.000000,106.000000 -3.000000,134.000000 -3.000000C167.000000 -3.000000,202.000000 -0.000000,234.000000 -0.000000C240.000000 -0.000000,253.000000 -0.000000,253.000000 -19.000000C253.000000 -30.000000,244.000000 -31.000000,237.000000 -31.000000C214.000000 -33.000000,190.000000 -41.000000,190.000000 -66.000000C190.000000 -78.000000,196.000000 -89.000000,204.000000 -103.000000L280.000000 -231.000000L531.000000 -231.000000C533.000000 -210.000000,547.000000 -74.000000,547.000000 -64.000000C547.000000 -34.000000,495.000000 -31.000000,475.000000 -31.000000C461.000000 -31.000000,451.000000 -31.000000,451.000000 -11.000000C451.000000 -0.000000,463.000000 -0.000000,465.000000 -0.000000C506.000000 -0.000000,549.000000 -3.000000,590.000000 -3.000000C615.000000 -3.000000,678.000000 -0.000000,703.000000 -0.000000C709.000000 -0.000000,721.000000 -0.000000,721.000000 -20.000000C721.000000 -31.000000,711.000000 -31.000000,698.000000 -31.000000C636.000000 -31.000000,636.000000 -38.000000,633.000000 -67.000000L572.000000 -692.000000C570.000000 -712.000000,570.000000 -716.000000,553.000000 -716.000000C537.000000 -716.000000,533.000000 -709.000000,527.000000 -699.000000M299.000000 -262.000000L496.000000 -592.000000L528.000000 -262.000000"></path>
    </g>
    <g transform="scale(0.009963,0.009963)" id="GLYPHcmmi10_66">
      <path style="fill-rule: evenodd;" d="M160.000000 -78.000000C150.000000 -39.000000,148.000000 -31.000000,69.000000 -31.000000C52.000000 -31.000000,42.000000 -31.000000,42.000000 -11.000000C42.000000 -0.000000,51.000000 -0.000000,69.000000 -0.000000L426.000000 -0.000000C584.000000 -0.000000,702.000000 -118.000000,702.000000 -216.000000C702.000000 -288.000000,644.000000 -346.000000,547.000000 -357.000000C651.000000 -376.000000,756.000000 -450.000000,756.000000 -545.000000C756.000000 -619.000000,690.000000 -683.000000,570.000000 -683.000000L234.000000 -683.000000C215.000000 -683.000000,205.000000 -683.000000,205.000000 -663.000000C205.000000 -652.000000,214.000000 -652.000000,233.000000 -652.000000C235.000000 -652.000000,254.000000 -652.000000,271.000000 -650.000000C289.000000 -648.000000,298.000000 -647.000000,298.000000 -634.000000C298.000000 -630.000000,297.000000 -627.000000,294.000000 -615.000000M311.000000 -366.000000L373.000000 -614.000000C382.000000 -649.000000,384.000000 -652.000000,427.000000 -652.000000L556.000000 -652.000000C644.000000 -652.000000,665.000000 -593.000000,665.000000 -549.000000C665.000000 -461.000000,579.000000 -366.000000,457.000000 -366.000000M266.000000 -31.000000C252.000000 -31.000000,250.000000 -31.000000,244.000000 -32.000000C234.000000 -33.000000,231.000000 -34.000000,231.000000 -42.000000C231.000000 -45.000000,231.000000 -47.000000,236.000000 -65.000000L305.000000 -344.000000L494.000000 -344.000000C590.000000 -344.000000,609.000000 -270.000000,609.000000 -227.000000C609.000000 -128.000000,520.000000 -31.000000,402.000000 -31.000000"></path>
    </g>
    <g transform="scale(0.009963,0.009963)" id="GLYPHcmmi10_67">
      <path style="fill-rule: evenodd;" d="M760.000000 -695.000000C760.000000 -698.000000,758.000000 -705.000000,749.000000 -705.000000C746.000000 -705.000000,745.000000 -704.000000,734.000000 -693.000000L664.000000 -616.000000C655.000000 -630.000000,609.000000 -705.000000,498.000000 -705.000000C275.000000 -705.000000,50.000000 -484.000000,50.000000 -252.000000C50.000000 -87.000000,168.000000 22.000000,321.000000 22.000000C408.000000 22.000000,484.000000 -18.000000,537.000000 -64.000000C630.000000 -146.000000,647.000000 -237.000000,647.000000 -240.000000C647.000000 -250.000000,637.000000 -250.000000,635.000000 -250.000000C629.000000 -250.000000,624.000000 -248.000000,622.000000 -240.000000C613.000000 -211.000000,590.000000 -140.000000,521.000000 -82.000000C452.000000 -26.000000,389.000000 -9.000000,337.000000 -9.000000C247.000000 -9.000000,141.000000 -61.000000,141.000000 -217.000000C141.000000 -274.000000,162.000000 -436.000000,262.000000 -553.000000C323.000000 -624.000000,417.000000 -674.000000,506.000000 -674.000000C608.000000 -674.000000,667.000000 -597.000000,667.000000 -481.000000C667.000000 -441.000000,664.000000 -440.000000,664.000000 -430.000000C664.000000 -420.000000,675.000000 -420.000000,679.000000 -420.000000C692.000000 -420.000000,692.000000 -422.000000,697.000000 -440.000000"></path>
    </g>
    <g transform="scale(0.009963,0.009963)" id="GLYPHcmmi10_68">
      <path style="fill-rule: evenodd;" d="M159.000000 -78.000000C149.000000 -39.000000,147.000000 -31.000000,68.000000 -31.000000C51.000000 -31.000000,40.000000 -31.000000,40.000000 -12.000000C40.000000 -0.000000,49.000000 -0.000000,68.000000 -0.000000L399.000000 -0.000000C607.000000 -0.000000,804.000000 -211.000000,804.000000 -430.000000C804.000000 -571.000000,719.000000 -683.000000,569.000000 -683.000000L233.000000 -683.000000C214.000000 -683.000000,203.000000 -683.000000,203.000000 -664.000000C203.000000 -652.000000,212.000000 -652.000000,232.000000 -652.000000C245.000000 -652.000000,263.000000 -651.000000,275.000000 -650.000000C291.000000 -648.000000,297.000000 -645.000000,297.000000 -634.000000C297.000000 -630.000000,296.000000 -627.000000,293.000000 -615.000000M375.000000 -614.000000C384.000000 -649.000000,386.000000 -652.000000,429.000000 -652.000000L536.000000 -652.000000C634.000000 -652.000000,717.000000 -599.000000,717.000000 -467.000000C717.000000 -418.000000,697.000000 -254.000000,612.000000 -144.000000C583.000000 -107.000000,504.000000 -31.000000,381.000000 -31.000000L268.000000 -31.000000C254.000000 -31.000000,252.000000 -31.000000,246.000000 -32.000000C236.000000 -33.000000,233.000000 -34.000000,233.000000 -42.000000C233.000000 -45.000000,233.000000 -47.000000,238.000000 -65.000000"></path>
    </g>
    <g transform="scale(0.009963,0.009963)" id="GLYPHcmmi10_69">
      <path style="fill-rule: evenodd;" d="M708.000000 -233.000000C710.000000 -238.000000,713.000000 -245.000000,713.000000 -247.000000C713.000000 -248.000000,713.000000 -258.000000,701.000000 -258.000000C692.000000 -258.000000,690.000000 -252.000000,688.000000 -246.000000C623.000000 -98.000000,586.000000 -31.000000,415.000000 -31.000000L269.000000 -31.000000C255.000000 -31.000000,253.000000 -31.000000,247.000000 -32.000000C237.000000 -33.000000,234.000000 -34.000000,234.000000 -42.000000C234.000000 -45.000000,234.000000 -47.000000,239.000000 -65.000000L307.000000 -338.000000L406.000000 -338.000000C491.000000 -338.000000,491.000000 -317.000000,491.000000 -292.000000C491.000000 -285.000000,491.000000 -273.000000,484.000000 -243.000000C482.000000 -238.000000,481.000000 -235.000000,481.000000 -232.000000C481.000000 -227.000000,485.000000 -221.000000,494.000000 -221.000000C502.000000 -221.000000,505.000000 -226.000000,509.000000 -241.000000L566.000000 -475.000000C566.000000 -481.000000,561.000000 -486.000000,554.000000 -486.000000C545.000000 -486.000000,543.000000 -480.000000,540.000000 -468.000000C519.000000 -392.000000,501.000000 -369.000000,409.000000 -369.000000L315.000000 -369.000000L375.000000 -610.000000C384.000000 -645.000000,385.000000 -649.000000,429.000000 -649.000000L570.000000 -649.000000C692.000000 -649.000000,722.000000 -620.000000,722.000000 -538.000000C722.000000 -514.000000,722.000000 -512.000000,718.000000 -485.000000C718.000000 -479.000000,717.000000 -472.000000,717.000000 -467.000000C717.000000 -462.000000,720.000000 -455.000000,729.000000 -455.000000C740.000000 -455.000000,741.000000 -461.000000,743.000000 -480.000000L763.000000 -653.000000C766.000000 -680.000000,761.000000 -680.000000,736.000000 -680.000000L231.000000 -680.000000C211.000000 -680.000000,201.000000 -680.000000,201.000000 -660.000000C201.000000 -649.000000,210.000000 -649.000000,229.000000 -649.000000C266.000000 -649.000000,294.000000 -649.000000,294.000000 -631.000000C294.000000 -627.000000,294.000000 -625.000000,289.000000 -607.000000L157.000000 -78.000000C147.000000 -39.000000,145.000000 -31.000000,66.000000 -31.000000C49.000000 -31.000000,38.000000 -31.000000,38.000000 -12.000000C38.000000 -0.000000,47.000000 -0.000000,66.000000 -0.000000L585.000000 -0.000000C608.000000 -0.000000,609.000000 -1.000000,616.000000 -17.000000"></path>
    </g>
    <g transform="scale(0.009963,0.009963)" id="GLYPHcmmi10_70">
      <path style="fill-rule: evenodd;" d="M303.000000 -325.000000L400.000000 -325.000000C475.000000 -325.000000,483.000000 -309.000000,483.000000 -280.000000C483.000000 -273.000000,483.000000 -261.000000,476.000000 -231.000000C474.000000 -226.000000,473.000000 -222.000000,473.000000 -220.000000C473.000000 -212.000000,479.000000 -208.000000,485.000000 -208.000000C495.000000 -208.000000,495.000000 -211.000000,500.000000 -229.000000L555.000000 -446.000000C558.000000 -457.000000,558.000000 -459.000000,558.000000 -462.000000C558.000000 -464.000000,556.000000 -473.000000,546.000000 -473.000000C536.000000 -473.000000,535.000000 -468.000000,531.000000 -452.000000C510.000000 -374.000000,487.000000 -356.000000,402.000000 -356.000000L311.000000 -356.000000L375.000000 -610.000000C384.000000 -645.000000,385.000000 -649.000000,429.000000 -649.000000L561.000000 -649.000000C684.000000 -649.000000,707.000000 -616.000000,707.000000 -539.000000C707.000000 -516.000000,707.000000 -512.000000,704.000000 -485.000000C702.000000 -472.000000,702.000000 -470.000000,702.000000 -467.000000C702.000000 -462.000000,705.000000 -455.000000,714.000000 -455.000000C725.000000 -455.000000,726.000000 -461.000000,728.000000 -480.000000L748.000000 -653.000000C751.000000 -680.000000,746.000000 -680.000000,721.000000 -680.000000L231.000000 -680.000000C211.000000 -680.000000,201.000000 -680.000000,201.000000 -660.000000C201.000000 -649.000000,210.000000 -649.000000,229.000000 -649.000000C266.000000 -649.000000,294.000000 -649.000000,294.000000 -631.000000C294.000000 -627.000000,294.000000 -625.000000,289.000000 -607.000000L157.000000 -78.000000C147.000000 -39.000000,145.000000 -31.000000,66.000000 -31.000000C49.000000 -31.000000,38.000000 -31.000000,38.000000 -12.000000C38.000000 -0.000000,50.000000 -0.000000,53.000000 -0.000000C82.000000 -0.000000,156.000000 -3.000000,185.000000 -3.000000C218.000000 -3.000000,301.000000 -0.000000,334.000000 -0.000000C343.000000 -0.000000,355.000000 -0.000000,355.000000 -19.000000C355.000000 -27.000000,349.000000 -29.000000,349.000000 -30.000000C346.000000 -31.000000,344.000000 -31.000000,321.000000 -31.000000C299.000000 -31.000000,294.000000 -31.000000,269.000000 -33.000000C240.000000 -36.000000,237.000000 -40.000000,237.000000 -53.000000C237.000000 -55.000000,237.000000 -61.000000,241.000000 -76.000000"></path>
    </g>
    <g transform="scale(0.009963,0.009963)" id="GLYPHcmmi10_120">
      <path style="fill-rule: evenodd;" d="M334.000000 -302.000000C340.000000 -328.000000,363.000000 -420.000000,433.000000 -420.000000C438.000000 -420.000000,462.000000 -420.000000,483.000000 -407.000000C455.000000 -402.000000,435.000000 -377.000000,435.000000 -353.000000C435.000000 -337.000000,446.000000 -318.000000,473.000000 -318.000000C495.000000 -318.000000,527.000000 -336.000000,527.000000 -376.000000C527.000000 -428.000000,468.000000 -442.000000,434.000000 -442.000000C376.000000 -442.000000,341.000000 -389.000000,329.000000 -366.000000C304.000000 -432.000000,250.000000 -442.000000,221.000000 -442.000000C117.000000 -442.000000,60.000000 -313.000000,60.000000 -288.000000C60.000000 -278.000000,70.000000 -278.000000,72.000000 -278.000000C80.000000 -278.000000,83.000000 -280.000000,85.000000 -289.000000C119.000000 -395.000000,185.000000 -420.000000,219.000000 -420.000000C238.000000 -420.000000,273.000000 -411.000000,273.000000 -353.000000C273.000000 -322.000000,256.000000 -255.000000,219.000000 -115.000000C203.000000 -53.000000,168.000000 -11.000000,124.000000 -11.000000C118.000000 -11.000000,95.000000 -11.000000,74.000000 -24.000000C99.000000 -29.000000,121.000000 -50.000000,121.000000 -78.000000C121.000000 -105.000000,99.000000 -113.000000,84.000000 -113.000000C54.000000 -113.000000,29.000000 -87.000000,29.000000 -55.000000C29.000000 -9.000000,79.000000 11.000000,123.000000 11.000000C189.000000 11.000000,225.000000 -59.000000,228.000000 -65.000000C240.000000 -28.000000,276.000000 11.000000,336.000000 11.000000C439.000000 11.000000,496.000000 -118.000000,496.000000 -143.000000C496.000000 -153.000000,487.000000 -153.000000,484.000000 -153.000000C475.000000 -153.000000,473.000000 -149.000000,471.000000 -142.000000C438.000000 -35.000000,370.000000 -11.000000,338.000000 -11.000000C299.000000 -11.000000,283.000000 -43.000000,283.000000 -77.000000C283.000000 -99.000000,289.000000 -121.000000,300.000000 -165.000000"></path>
    </g>
    <g transform="scale(0.009963,0.009963)" id="GLYPHcmmi10_121">
      <path style="fill-rule: evenodd;" d="M486.000000 -381.000000C490.000000 -395.000000,490.000000 -397.000000,490.000000 -404.000000C490.000000 -422.000000,476.000000 -431.000000,461.000000 -431.000000C451.000000 -431.000000,435.000000 -425.000000,426.000000 -410.000000C424.000000 -405.000000,416.000000 -374.000000,412.000000 -356.000000C405.000000 -330.000000,398.000000 -303.000000,392.000000 -276.000000L347.000000 -96.000000C343.000000 -81.000000,300.000000 -11.000000,234.000000 -11.000000C183.000000 -11.000000,172.000000 -55.000000,172.000000 -92.000000C172.000000 -138.000000,189.000000 -200.000000,223.000000 -288.000000C239.000000 -329.000000,243.000000 -340.000000,243.000000 -360.000000C243.000000 -405.000000,211.000000 -442.000000,161.000000 -442.000000C66.000000 -442.000000,29.000000 -297.000000,29.000000 -288.000000C29.000000 -278.000000,39.000000 -278.000000,41.000000 -278.000000C51.000000 -278.000000,52.000000 -280.000000,57.000000 -296.000000C84.000000 -390.000000,124.000000 -420.000000,158.000000 -420.000000C166.000000 -420.000000,183.000000 -420.000000,183.000000 -388.000000C183.000000 -363.000000,173.000000 -337.000000,166.000000 -318.000000C126.000000 -212.000000,108.000000 -155.000000,108.000000 -108.000000C108.000000 -19.000000,171.000000 11.000000,230.000000 11.000000C269.000000 11.000000,303.000000 -6.000000,331.000000 -34.000000C318.000000 18.000000,306.000000 67.000000,266.000000 120.000000C240.000000 154.000000,202.000000 183.000000,156.000000 183.000000C142.000000 183.000000,97.000000 180.000000,80.000000 141.000000C96.000000 141.000000,109.000000 141.000000,123.000000 129.000000C133.000000 120.000000,143.000000 107.000000,143.000000 88.000000C143.000000 57.000000,116.000000 53.000000,106.000000 53.000000C83.000000 53.000000,50.000000 69.000000,50.000000 118.000000C50.000000 168.000000,94.000000 205.000000,156.000000 205.000000C259.000000 205.000000,362.000000 114.000000,390.000000 1.000000"></path>
    </g>
    <g transform="scale(0.009963,0.009963)" id="GLYPHcmmi10_122">
      <path style="fill-rule: evenodd;" d="M133.000000 -83.000000C187.000000 -141.000000,216.000000 -166.000000,252.000000 -197.000000C252.000000 -198.000000,314.000000 -251.000000,350.000000 -287.000000C445.000000 -380.000000,467.000000 -428.000000,467.000000 -432.000000C467.000000 -442.000000,458.000000 -442.000000,456.000000 -442.000000C449.000000 -442.000000,446.000000 -440.000000,441.000000 -431.000000C411.000000 -383.000000,390.000000 -367.000000,366.000000 -367.000000C342.000000 -367.000000,330.000000 -382.000000,315.000000 -399.000000C296.000000 -422.000000,279.000000 -442.000000,246.000000 -442.000000C171.000000 -442.000000,125.000000 -349.000000,125.000000 -328.000000C125.000000 -323.000000,128.000000 -317.000000,137.000000 -317.000000C146.000000 -317.000000,148.000000 -322.000000,150.000000 -328.000000C169.000000 -374.000000,227.000000 -375.000000,235.000000 -375.000000C256.000000 -375.000000,275.000000 -368.000000,298.000000 -360.000000C338.000000 -345.000000,349.000000 -345.000000,375.000000 -345.000000C339.000000 -302.000000,255.000000 -230.000000,236.000000 -214.000000L146.000000 -130.000000C78.000000 -63.000000,43.000000 -6.000000,43.000000 1.000000C43.000000 11.000000,53.000000 11.000000,55.000000 11.000000C63.000000 11.000000,65.000000 9.000000,71.000000 -2.000000C94.000000 -37.000000,124.000000 -64.000000,156.000000 -64.000000C179.000000 -64.000000,189.000000 -55.000000,214.000000 -26.000000C231.000000 -5.000000,249.000000 11.000000,278.000000 11.000000C377.000000 11.000000,435.000000 -116.000000,435.000000 -143.000000C435.000000 -148.000000,431.000000 -153.000000,423.000000 -153.000000C414.000000 -153.000000,412.000000 -147.000000,409.000000 -140.000000C386.000000 -75.000000,322.000000 -56.000000,289.000000 -56.000000C269.000000 -56.000000,251.000000 -62.000000,230.000000 -69.000000C196.000000 -82.000000,181.000000 -86.000000,160.000000 -86.000000C158.000000 -86.000000,142.000000 -86.000000,133.000000 -83.000000"></path>
    </g>
  </defs>
  <g>
    <defs>
      <clipPath id="CLIP1">
        <path d="M-82.125092 170.125092L-82.125092 -32.550110L194.250183 -32.550110L194.250183 170.125092Z" style="fill: black; stroke: none;"></path>
      </clipPath>
    </defs>
    <g clip-path="url(#CLIP1);">
      <path d="M35.207321 8.744247L157.400146 78.000000L176.305634 26.058182L10.000000 78.000000L35.207321 8.744247" style="stroke:rgb(0.000000%,0.000000%,0.000000%); stroke-width: 1.250000;stroke-linecap: round;stroke-linejoin: round;stroke-miterlimit: 10.000000;fill: none;"></path>
      <path d="M105.031555 48.318558L94.228333 78.000000" style="stroke:rgb(0.000000%,0.000000%,0.000000%); stroke-width: 1.250000;stroke-linecap: round;stroke-linejoin: round;stroke-miterlimit: 10.000000;fill: none;"></path>
      <path d="M10.000000 78.000000L157.400146 78.000000" style="stroke:rgb(0.000000%,0.000000%,0.000000%); stroke-width: 1.250000;stroke-linecap: round;stroke-linejoin: round;stroke-miterlimit: 10.000000;fill: none;"></path>
      <path d="M36.707321 8.744247C36.707321 8.346405,36.549255 7.964905,36.267960 7.683609C35.986664 7.402313,35.605164 7.244247,35.207321 7.244247C34.809479 7.244247,34.427979 7.402313,34.146683 7.683609C33.865387 7.964905,33.707321 8.346405,33.707321 8.744247C33.707321 9.142090,33.865387 9.523590,34.146683 9.804886C34.427979 10.086182,34.809479 10.244247,35.207321 10.244247C35.605164 10.244247,35.986664 10.086182,36.267960 9.804886C36.549255 9.523590,36.707321 9.142090,36.707321 8.744247Z" style="fill: rgb(0.000000%,0.000000%,0.000000%);stroke: none;"></path>
      <g transform="translate(25.635330 6.644257)" style="fill: rgb(0.000000%,0.000000%,0.000000%);">
        <use xlink:href="#GLYPHcmmi10_65"></use>
      </g>
      <path d="M11.500000 78.000000C11.500000 77.602158,11.341934 77.220657,11.060638 76.939362C10.779343 76.658066,10.397842 76.500000,10.000000 76.500000C9.602158 76.500000,9.220657 76.658066,8.939362 76.939362C8.658066 77.220657,8.500000 77.602158,8.500000 78.000000C8.500000 78.397842,8.658066 78.779343,8.939362 79.060638C9.220657 79.341934,9.602158 79.500000,10.000000 79.500000C10.397842 79.500000,10.779343 79.341934,11.060638 79.060638C11.341934 78.779343,11.500000 78.397842,11.500000 78.000000Z" style="fill: rgb(0.000000%,0.000000%,0.000000%);stroke: none;"></path>
      <g transform="translate(-0.156586 86.907791)" style="fill: rgb(0.000000%,0.000000%,0.000000%);">
        <use xlink:href="#GLYPHcmmi10_66"></use>
      </g>
      <path d="M106.531555 48.318558C106.531555 47.920715,106.373489 47.539215,106.092194 47.257919C105.810898 46.976624,105.429398 46.818558,105.031555 46.818558C104.633713 46.818558,104.252213 46.976624,103.970917 47.257919C103.689621 47.539215,103.531555 47.920715,103.531555 48.318558C103.531555 48.716400,103.689621 49.097900,103.970917 49.379196C104.252213 49.660492,104.633713 49.818558,105.031555 49.818558C105.429398 49.818558,105.810898 49.660492,106.092194 49.379196C106.373489 49.097900,106.531555 48.716400,106.531555 48.318558Z" style="fill: rgb(0.000000%,0.000000%,0.000000%);stroke: none;"></path>
      <g transform="translate(101.115005 45.318558)" style="fill: rgb(0.000000%,0.000000%,0.000000%);">
        <use xlink:href="#GLYPHcmmi10_67"></use>
      </g>
      <path d="M95.728333 78.000000C95.728333 77.602158,95.570267 77.220657,95.288971 76.939362C95.007675 76.658066,94.626175 76.500000,94.228333 76.500000C93.830490 76.500000,93.448990 76.658066,93.167694 76.939362C92.886398 77.220657,92.728333 77.602158,92.728333 78.000000C92.728333 78.397842,92.886398 78.779343,93.167694 79.060638C93.448990 79.341934,93.830490 79.500000,94.228333 79.500000C94.626175 79.500000,95.007675 79.341934,95.288971 79.060638C95.570267 78.779343,95.728333 78.397842,95.728333 78.000000Z" style="fill: rgb(0.000000%,0.000000%,0.000000%);stroke: none;"></path>
      <g transform="translate(89.965836 87.807800)" style="fill: rgb(0.000000%,0.000000%,0.000000%);">
        <use xlink:href="#GLYPHcmmi10_68"></use>
      </g>
      <path d="M177.805634 26.058182C177.805634 25.660339,177.647568 25.278839,177.366272 24.997543C177.084976 24.716248,176.703476 24.558182,176.305634 24.558182C175.907791 24.558182,175.526291 24.716248,175.244995 24.997543C174.963699 25.278839,174.805634 25.660339,174.805634 26.058182C174.805634 26.456024,174.963699 26.837524,175.244995 27.118820C175.526291 27.400116,175.907791 27.558182,176.305634 27.558182C176.703476 27.558182,177.084976 27.400116,177.366272 27.118820C177.647568 26.837524,177.805634 26.456024,177.805634 26.058182Z" style="fill: rgb(0.000000%,0.000000%,0.000000%);stroke: none;"></path>
      <g transform="translate(178.405624 23.958191)" style="fill: rgb(0.000000%,0.000000%,0.000000%);">
        <use xlink:href="#GLYPHcmmi10_69"></use>
      </g>
      <path d="M158.900146 78.000000C158.900146 77.602158,158.742081 77.220657,158.460785 76.939362C158.179489 76.658066,157.797989 76.500000,157.400146 76.500000C157.002304 76.500000,156.620804 76.658066,156.339508 76.939362C156.058212 77.220657,155.900146 77.602158,155.900146 78.000000C155.900146 78.397842,156.058212 78.779343,156.339508 79.060638C156.620804 79.341934,157.002304 79.500000,157.400146 79.500000C157.797989 79.500000,158.179489 79.341934,158.460785 79.060638C158.742081 78.779343,158.900146 78.397842,158.900146 78.000000Z" style="fill: rgb(0.000000%,0.000000%,0.000000%);stroke: none;"></path>
      <g transform="translate(159.500137 86.907791)" style="fill: rgb(0.000000%,0.000000%,0.000000%);">
        <use xlink:href="#GLYPHcmmi10_70"></use>
      </g>
      <g transform="translate(13.909775 45.516876)" style="fill: rgb(0.000000%,0.000000%,0.000000%);">
        <use xlink:href="#GLYPHcmmi10_120"></use>
      </g>
      <g transform="translate(169.852753 53.205261)" style="fill: rgb(0.000000%,0.000000%,0.000000%);">
        <use xlink:href="#GLYPHcmmi10_121"></use>
      </g>
      <g transform="translate(91.558640 65.304047)" style="fill: rgb(0.000000%,0.000000%,0.000000%);">
        <use xlink:href="#GLYPHcmmi10_122"></use>
      </g>
    </g>
  </g>
</svg>
