<?xml version="1.0"?>
<!-- Created by MetaPost 2.01 on 2021.10.19:2335 -->
<svg version="1.1" xmlns="http://www.w3.org/2000/svg" xmlns:xlink="http://www.w3.org/1999/xlink" width="65.362549" height="59.383774" viewBox="0 0 65.362549 59.383774">
<!-- Original BoundingBox: -1.500000 -2.376068 63.862549 57.007706 -->
  <g>
    <defs>
      <clipPath id="CLIP1">
        <path d="M-14.590637 72.590637L-14.590637 -20.953186L78.953186 -20.953186L78.953186 72.590637Z" style="fill: black; stroke: none;"></path>
      </clipPath>
    </defs>
    <g clip-path="url(#CLIP1);">
      <path d="M1.000000 57.000000L32.181274 2.992294L63.362549 57.000000Z" style="stroke:rgb(0.000000%,0.000000%,0.000000%); stroke-width: 1.250000;stroke-linecap: round;stroke-linejoin: round;stroke-miterlimit: 10.000000;fill: none;"></path>
      <path d="M2.500000 57.000000C2.500000 56.602158,2.341934 56.220657,2.060638 55.939362C1.779343 55.658066,1.397842 55.500000,1.000000 55.500000C0.602158 55.500000,0.220657 55.658066,-0.060638 55.939362C-0.341934 56.220657,-0.500000 56.602158,-0.500000 57.000000C-0.500000 57.397842,-0.341934 57.779343,-0.060638 58.060638C0.220657 58.341934,0.602158 58.500000,1.000000 58.500000C1.397842 58.500000,1.779343 58.341934,2.060638 58.060638C2.341934 57.779343,2.500000 57.397842,2.500000 57.000000Z" style="fill: rgb(0.000000%,0.000000%,0.000000%);stroke: none;"></path>
      <path d="M33.681274 2.992294C33.681274 2.594452,33.523209 2.212952,33.241913 1.931656C32.960617 1.650360,32.579117 1.492294,32.181274 1.492294C31.783432 1.492294,31.401932 1.650360,31.120636 1.931656C30.839340 2.212952,30.681274 2.594452,30.681274 2.992294C30.681274 3.390137,30.839340 3.771637,31.120636 4.052933C31.401932 4.334229,31.783432 4.492294,32.181274 4.492294C32.579117 4.492294,32.960617 4.334229,33.241913 4.052933C33.523209 3.771637,33.681274 3.390137,33.681274 2.992294Z" style="fill: rgb(0.000000%,0.000000%,0.000000%);stroke: none;"></path>
      <path d="M64.862549 57.000000C64.862549 56.602158,64.704483 56.220657,64.423187 55.939362C64.141891 55.658066,63.760391 55.500000,63.362549 55.500000C62.964706 55.500000,62.583206 55.658066,62.301910 55.939362C62.020615 56.220657,61.862549 56.602158,61.862549 57.000000C61.862549 57.397842,62.020615 57.779343,62.301910 58.060638C62.583206 58.341934,62.964706 58.500000,63.362549 58.500000C63.760391 58.500000,64.141891 58.341934,64.423187 58.060638C64.704483 57.779343,64.862549 57.397842,64.862549 57.000000Z" style="fill: rgb(0.000000%,0.000000%,0.000000%);stroke: none;"></path>
      <path d="M14.749329 28.932983L18.431946 31.059296" style="stroke:rgb(0.000000%,0.000000%,0.000000%); stroke-width: 0.500000;stroke-linecap: round;stroke-linejoin: round;stroke-miterlimit: 10.000000;fill: none;"></path>
      <path d="M32.181274 54.873932L32.181274 59.126068" style="stroke:rgb(0.000000%,0.000000%,0.000000%); stroke-width: 0.500000;stroke-linecap: round;stroke-linejoin: round;stroke-miterlimit: 10.000000;fill: none;"></path>
      <path d="M45.930603 31.059296L49.613220 28.932983" style="stroke:rgb(0.000000%,0.000000%,0.000000%); stroke-width: 0.500000;stroke-linecap: round;stroke-linejoin: round;stroke-miterlimit: 10.000000;fill: none;"></path>
      <path d="M32.181274 2.992294L26.517487 12.802109C29.121002 14.305115,32.214584 14.712158,35.118073 13.934250C36.087738 13.674469,37.009811 13.289551,37.863617 12.794968Z" style="stroke:rgb(0.000000%,0.000000%,0.000000%); stroke-width: 0.500000;stroke-linecap: round;stroke-linejoin: round;stroke-miterlimit: 10.000000;fill: none;"></path>
      <path d="M63.362549 57.000000L57.705658 47.178299C55.100723 48.680603,53.199463 51.155884,52.419891 54.059860C52.159393 55.029755,52.031174 56.021072,52.031891 57.008087Z" style="stroke:rgb(0.000000%,0.000000%,0.000000%); stroke-width: 0.500000;stroke-linecap: round;stroke-linejoin: round;stroke-miterlimit: 10.000000;fill: none;"></path>
      <path d="M1.000000 57.000000L12.340897 57.000000C12.340897 53.992065,11.145950 51.107605,9.019180 48.980820C8.310257 48.271896,7.517120 47.666458,6.663071 47.174500Z" style="stroke:rgb(0.000000%,0.000000%,0.000000%); stroke-width: 0.500000;stroke-linecap: round;stroke-linejoin: round;stroke-miterlimit: 10.000000;fill: none;"></path>
    </g>
  </g>
</svg>
