<?xml version="1.0"?>
<!-- Created by MetaPost 2.01 on 2021.10.19:2335 -->
<svg version="1.1" xmlns="http://www.w3.org/2000/svg" xmlns:xlink="http://www.w3.org/1999/xlink" width="58.347046" height="63.845810" viewBox="0 0 58.347046 63.845810">
<!-- Original BoundingBox: -1.500000 -1.500000 56.847046 62.345810 -->
  <g>
    <defs>
      <clipPath id="CLIP1">
        <path d="M-14.590637 77.590637L-14.590637 -15.953186L78.953186 -15.953186L78.953186 77.590637Z" style="fill: black; stroke: none;"></path>
      </clipPath>
    </defs>
    <g clip-path="url(#CLIP1);">
      <path d="M1.000000 62.000000L28.673523 2.654190L56.347046 62.000000Z" style="stroke:rgb(0.000000%,0.000000%,0.000000%); stroke-width: 1.250000;stroke-linecap: round;stroke-linejoin: round;stroke-miterlimit: 10.000000;fill: none;"></path>
      <path d="M2.500000 62.000000C2.500000 61.602158,2.341934 61.220657,2.060638 60.939362C1.779343 60.658066,1.397842 60.500000,1.000000 60.500000C0.602158 60.500000,0.220657 60.658066,-0.060638 60.939362C-0.341934 61.220657,-0.500000 61.602158,-0.500000 62.000000C-0.500000 62.397842,-0.341934 62.779343,-0.060638 63.060638C0.220657 63.341934,0.602158 63.500000,1.000000 63.500000C1.397842 63.500000,1.779343 63.341934,2.060638 63.060638C2.341934 62.779343,2.500000 62.397842,2.500000 62.000000Z" style="fill: rgb(0.000000%,0.000000%,0.000000%);stroke: none;"></path>
      <path d="M30.173523 2.654190C30.173523 2.256348,30.015457 1.874847,29.734161 1.593552C29.452866 1.312256,29.071365 1.154190,28.673523 1.154190C28.275681 1.154190,27.894180 1.312256,27.612885 1.593552C27.331589 1.874847,27.173523 2.256348,27.173523 2.654190C27.173523 3.052032,27.331589 3.433533,27.612885 3.714828C27.894180 3.996124,28.275681 4.154190,28.673523 4.154190C29.071365 4.154190,29.452866 3.996124,29.734161 3.714828C30.015457 3.433533,30.173523 3.052032,30.173523 2.654190Z" style="fill: rgb(0.000000%,0.000000%,0.000000%);stroke: none;"></path>
      <path d="M57.847046 62.000000C57.847046 61.602158,57.688980 61.220657,57.407684 60.939362C57.126389 60.658066,56.744888 60.500000,56.347046 60.500000C55.949203 60.500000,55.567703 60.658066,55.286407 60.939362C55.005112 61.220657,54.847046 61.602158,54.847046 62.000000C54.847046 62.397842,55.005112 62.779343,55.286407 63.060638C55.567703 63.341934,55.949203 63.500000,56.347046 63.500000C56.744888 63.500000,57.126389 63.341934,57.407684 63.060638C57.688980 62.779343,57.847046 62.397842,57.847046 62.000000Z" style="fill: rgb(0.000000%,0.000000%,0.000000%);stroke: none;"></path>
      <path d="M12.909821 31.428558L16.763702 33.225616" style="stroke:rgb(0.000000%,0.000000%,0.000000%); stroke-width: 0.500000;stroke-linecap: round;stroke-linejoin: round;stroke-miterlimit: 10.000000;fill: none;"></path>
      <path d="M40.583344 33.225616L44.437225 31.428558" style="stroke:rgb(0.000000%,0.000000%,0.000000%); stroke-width: 0.500000;stroke-linecap: round;stroke-linejoin: round;stroke-miterlimit: 10.000000;fill: none;"></path>
      <path d="M56.347046 62.000000L51.565842 51.721542C48.839813 52.991180,46.730179 55.291855,45.700333 58.117096C45.242142 59.374359,45.014236 60.689911,45.014725 62.003098Z" style="stroke:rgb(0.000000%,0.000000%,0.000000%); stroke-width: 0.500000;stroke-linecap: round;stroke-linejoin: round;stroke-miterlimit: 10.000000;fill: none;"></path>
      <path d="M1.000000 62.000000L12.340897 62.000000C12.340897 58.992065,11.145950 56.107605,9.019180 53.980820C8.073792 53.035675,6.978989 52.274414,5.789993 51.720352Z" style="stroke:rgb(0.000000%,0.000000%,0.000000%); stroke-width: 0.500000;stroke-linecap: round;stroke-linejoin: round;stroke-miterlimit: 10.000000;fill: none;"></path>
    </g>
  </g>
</svg>
