<?xml version="1.0"?>
<!-- Created by MetaPost 2.01 on 2021.10.19:2335 -->
<svg version="1.1" xmlns="http://www.w3.org/2000/svg" xmlns:xlink="http://www.w3.org/1999/xlink" width="49.771912" height="63.845810" viewBox="0 0 49.771912 63.845810">
<!-- Original BoundingBox: -1.500000 -1.500000 48.271912 62.345810 -->
  <g>
    <defs>
      <clipPath id="CLIP1">
        <path d="M-14.590637 77.590637L-14.590637 -15.953186L78.953186 -15.953186L78.953186 77.590637Z" style="fill: black; stroke: none;"></path>
      </clipPath>
    </defs>
    <g clip-path="url(#CLIP1);">
      <path d="M1.000000 62.000000L28.673523 2.654190L47.771912 62.000000Z" style="stroke:rgb(0.000000%,0.000000%,0.000000%); stroke-width: 1.250000;stroke-linecap: round;stroke-linejoin: round;stroke-miterlimit: 10.000000;fill: none;"></path>
      <path d="M2.500000 62.000000C2.500000 61.602158,2.341934 61.220657,2.060638 60.939362C1.779343 60.658066,1.397842 60.500000,1.000000 60.500000C0.602158 60.500000,0.220657 60.658066,-0.060638 60.939362C-0.341934 61.220657,-0.500000 61.602158,-0.500000 62.000000C-0.500000 62.397842,-0.341934 62.779343,-0.060638 63.060638C0.220657 63.341934,0.602158 63.500000,1.000000 63.500000C1.397842 63.500000,1.779343 63.341934,2.060638 63.060638C2.341934 62.779343,2.500000 62.397842,2.500000 62.000000Z" style="fill: rgb(0.000000%,0.000000%,0.000000%);stroke: none;"></path>
      <path d="M30.173523 2.654190C30.173523 2.256348,30.015457 1.874847,29.734161 1.593552C29.452866 1.312256,29.071365 1.154190,28.673523 1.154190C28.275681 1.154190,27.894180 1.312256,27.612885 1.593552C27.331589 1.874847,27.173523 2.256348,27.173523 2.654190C27.173523 3.052032,27.331589 3.433533,27.612885 3.714828C27.894180 3.996124,28.275681 4.154190,28.673523 4.154190C29.071365 4.154190,29.452866 3.996124,29.734161 3.714828C30.015457 3.433533,30.173523 3.052032,30.173523 2.654190Z" style="fill: rgb(0.000000%,0.000000%,0.000000%);stroke: none;"></path>
      <path d="M49.271912 62.000000C49.271912 61.602158,49.113846 61.220657,48.832550 60.939362C48.551254 60.658066,48.169754 60.500000,47.771912 60.500000C47.374069 60.500000,46.992569 60.658066,46.711273 60.939362C46.429977 61.220657,46.271912 61.602158,46.271912 62.000000C46.271912 62.397842,46.429977 62.779343,46.711273 63.060638C46.992569 63.341934,47.374069 63.500000,47.771912 63.500000C48.169754 63.500000,48.551254 63.341934,48.832550 63.060638C49.113846 62.779343,49.271912 62.397842,49.271912 62.000000Z" style="fill: rgb(0.000000%,0.000000%,0.000000%);stroke: none;"></path>
    </g>
  </g>
</svg>
