<?xml version="1.0"?>
<!-- Created by MetaPost 2.01 on 2021.10.19:2335 -->
<svg version="1.1" xmlns="http://www.w3.org/2000/svg" xmlns:xlink="http://www.w3.org/1999/xlink" width="104.545288" height="54.795135" viewBox="0 0 104.545288 54.795135">
<!-- Original BoundingBox: -9.571991 -8.907791 94.973297 45.887344 -->
  <defs>
    <g transform="scale(0.009963,0.009963)" id="GLYPHcmmi10_11">
      <path style="fill-rule: evenodd;" d="M477.000000 -236.000000C477.000000 -393.000000,384.000000 -442.000000,310.000000 -442.000000C173.000000 -442.000000,41.000000 -299.000000,41.000000 -158.000000C41.000000 -65.000000,101.000000 11.000000,203.000000 11.000000C266.000000 11.000000,338.000000 -12.000000,414.000000 -73.000000C427.000000 -20.000000,460.000000 11.000000,505.000000 11.000000C558.000000 11.000000,589.000000 -44.000000,589.000000 -60.000000C589.000000 -67.000000,583.000000 -70.000000,577.000000 -70.000000C570.000000 -70.000000,567.000000 -67.000000,564.000000 -60.000000C546.000000 -11.000000,510.000000 -11.000000,508.000000 -11.000000C477.000000 -11.000000,477.000000 -89.000000,477.000000 -113.000000C477.000000 -134.000000,477.000000 -136.000000,487.000000 -148.000000C581.000000 -266.000000,602.000000 -382.000000,602.000000 -383.000000C602.000000 -385.000000,601.000000 -393.000000,590.000000 -393.000000C580.000000 -393.000000,580.000000 -390.000000,575.000000 -372.000000C557.000000 -309.000000,524.000000 -233.000000,477.000000 -174.000000M410.000000 -99.000000C322.000000 -22.000000,245.000000 -11.000000,205.000000 -11.000000C145.000000 -11.000000,115.000000 -56.000000,115.000000 -120.000000C115.000000 -169.000000,141.000000 -277.000000,173.000000 -328.000000C220.000000 -401.000000,274.000000 -420.000000,309.000000 -420.000000C408.000000 -420.000000,408.000000 -289.000000,408.000000 -211.000000C408.000000 -174.000000,408.000000 -116.000000,410.000000 -99.000000"></path>
    </g>
    <g transform="scale(0.009963,0.009963)" id="GLYPHcmmi10_12">
      <path style="fill-rule: evenodd;" d="M575.000000 -569.000000C575.000000 -644.000000,520.000000 -706.000000,439.000000 -706.000000C381.000000 -706.000000,353.000000 -690.000000,318.000000 -664.000000C263.000000 -624.000000,208.000000 -527.000000,189.000000 -451.000000L30.000000 184.000000C29.000000 188.000000,34.000000 194.000000,42.000000 194.000000C50.000000 194.000000,53.000000 192.000000,54.000000 189.000000L124.000000 -87.000000C143.000000 -27.000000,187.000000 10.000000,260.000000 10.000000C333.000000 10.000000,408.000000 -25.000000,453.000000 -69.000000C501.000000 -115.000000,533.000000 -179.000000,533.000000 -253.000000C533.000000 -325.000000,496.000000 -377.000000,460.000000 -402.000000C518.000000 -435.000000,575.000000 -497.000000,575.000000 -569.000000M395.000000 -403.000000C382.000000 -398.000000,371.000000 -396.000000,347.000000 -396.000000C333.000000 -396.000000,313.000000 -395.000000,303.000000 -400.000000C305.000000 -410.000000,341.000000 -408.000000,352.000000 -408.000000C373.000000 -408.000000,382.000000 -408.000000,395.000000 -403.000000M519.000000 -592.000000C519.000000 -522.000000,481.000000 -450.000000,429.000000 -419.000000C402.000000 -429.000000,382.000000 -431.000000,352.000000 -431.000000C331.000000 -431.000000,275.000000 -432.000000,275.000000 -399.000000C274.000000 -371.000000,326.000000 -374.000000,344.000000 -374.000000C381.000000 -374.000000,396.000000 -375.000000,426.000000 -387.000000C464.000000 -351.000000,469.000000 -320.000000,470.000000 -274.000000C472.000000 -216.000000,448.000000 -141.000000,420.000000 -102.000000C381.000000 -48.000000,314.000000 -12.000000,257.000000 -12.000000C181.000000 -12.000000,143.000000 -70.000000,143.000000 -141.000000C143.000000 -151.000000,143.000000 -166.000000,148.000000 -185.000000L212.000000 -438.000000C234.000000 -524.000000,306.000000 -683.000000,426.000000 -683.000000C484.000000 -683.000000,519.000000 -652.000000,519.000000 -592.000000"></path>
    </g>
    <g transform="scale(0.009963,0.009963)" id="GLYPHcmmi10_13">
      <path style="fill-rule: evenodd;" d="M41.000000 -254.000000C80.000000 -369.000000,189.000000 -370.000000,200.000000 -370.000000C351.000000 -370.000000,362.000000 -195.000000,362.000000 -116.000000C362.000000 -55.000000,357.000000 -38.000000,350.000000 -18.000000C328.000000 55.000000,298.000000 171.000000,298.000000 197.000000C298.000000 208.000000,303.000000 215.000000,311.000000 215.000000C324.000000 215.000000,332.000000 193.000000,343.000000 155.000000C366.000000 71.000000,376.000000 14.000000,380.000000 -17.000000C382.000000 -30.000000,384.000000 -43.000000,388.000000 -56.000000C420.000000 -155.000000,484.000000 -304.000000,524.000000 -383.000000C531.000000 -395.000000,543.000000 -417.000000,543.000000 -421.000000C543.000000 -431.000000,533.000000 -431.000000,531.000000 -431.000000C528.000000 -431.000000,522.000000 -431.000000,519.000000 -424.000000C467.000000 -329.000000,427.000000 -229.000000,387.000000 -128.000000C386.000000 -159.000000,385.000000 -235.000000,346.000000 -332.000000C322.000000 -393.000000,282.000000 -442.000000,213.000000 -442.000000C88.000000 -442.000000,18.000000 -290.000000,18.000000 -259.000000C18.000000 -249.000000,27.000000 -249.000000,37.000000 -249.000000"></path>
    </g>
    <g transform="scale(0.009963,0.009963)" id="GLYPHcmmi10_65">
      <path style="fill-rule: evenodd;" d="M179.000000 -115.000000C139.000000 -48.000000,100.000000 -34.000000,56.000000 -31.000000C44.000000 -30.000000,35.000000 -30.000000,35.000000 -11.000000C35.000000 -5.000000,40.000000 -0.000000,48.000000 -0.000000C75.000000 -0.000000,106.000000 -3.000000,134.000000 -3.000000C167.000000 -3.000000,202.000000 -0.000000,234.000000 -0.000000C240.000000 -0.000000,253.000000 -0.000000,253.000000 -19.000000C253.000000 -30.000000,244.000000 -31.000000,237.000000 -31.000000C214.000000 -33.000000,190.000000 -41.000000,190.000000 -66.000000C190.000000 -78.000000,196.000000 -89.000000,204.000000 -103.000000L280.000000 -231.000000L531.000000 -231.000000C533.000000 -210.000000,547.000000 -74.000000,547.000000 -64.000000C547.000000 -34.000000,495.000000 -31.000000,475.000000 -31.000000C461.000000 -31.000000,451.000000 -31.000000,451.000000 -11.000000C451.000000 -0.000000,463.000000 -0.000000,465.000000 -0.000000C506.000000 -0.000000,549.000000 -3.000000,590.000000 -3.000000C615.000000 -3.000000,678.000000 -0.000000,703.000000 -0.000000C709.000000 -0.000000,721.000000 -0.000000,721.000000 -20.000000C721.000000 -31.000000,711.000000 -31.000000,698.000000 -31.000000C636.000000 -31.000000,636.000000 -38.000000,633.000000 -67.000000L572.000000 -692.000000C570.000000 -712.000000,570.000000 -716.000000,553.000000 -716.000000C537.000000 -716.000000,533.000000 -709.000000,527.000000 -699.000000M299.000000 -262.000000L496.000000 -592.000000L528.000000 -262.000000"></path>
    </g>
    <g transform="scale(0.009963,0.009963)" id="GLYPHcmmi10_66">
      <path style="fill-rule: evenodd;" d="M160.000000 -78.000000C150.000000 -39.000000,148.000000 -31.000000,69.000000 -31.000000C52.000000 -31.000000,42.000000 -31.000000,42.000000 -11.000000C42.000000 -0.000000,51.000000 -0.000000,69.000000 -0.000000L426.000000 -0.000000C584.000000 -0.000000,702.000000 -118.000000,702.000000 -216.000000C702.000000 -288.000000,644.000000 -346.000000,547.000000 -357.000000C651.000000 -376.000000,756.000000 -450.000000,756.000000 -545.000000C756.000000 -619.000000,690.000000 -683.000000,570.000000 -683.000000L234.000000 -683.000000C215.000000 -683.000000,205.000000 -683.000000,205.000000 -663.000000C205.000000 -652.000000,214.000000 -652.000000,233.000000 -652.000000C235.000000 -652.000000,254.000000 -652.000000,271.000000 -650.000000C289.000000 -648.000000,298.000000 -647.000000,298.000000 -634.000000C298.000000 -630.000000,297.000000 -627.000000,294.000000 -615.000000M311.000000 -366.000000L373.000000 -614.000000C382.000000 -649.000000,384.000000 -652.000000,427.000000 -652.000000L556.000000 -652.000000C644.000000 -652.000000,665.000000 -593.000000,665.000000 -549.000000C665.000000 -461.000000,579.000000 -366.000000,457.000000 -366.000000M266.000000 -31.000000C252.000000 -31.000000,250.000000 -31.000000,244.000000 -32.000000C234.000000 -33.000000,231.000000 -34.000000,231.000000 -42.000000C231.000000 -45.000000,231.000000 -47.000000,236.000000 -65.000000L305.000000 -344.000000L494.000000 -344.000000C590.000000 -344.000000,609.000000 -270.000000,609.000000 -227.000000C609.000000 -128.000000,520.000000 -31.000000,402.000000 -31.000000"></path>
    </g>
    <g transform="scale(0.009963,0.009963)" id="GLYPHcmmi10_67">
      <path style="fill-rule: evenodd;" d="M760.000000 -695.000000C760.000000 -698.000000,758.000000 -705.000000,749.000000 -705.000000C746.000000 -705.000000,745.000000 -704.000000,734.000000 -693.000000L664.000000 -616.000000C655.000000 -630.000000,609.000000 -705.000000,498.000000 -705.000000C275.000000 -705.000000,50.000000 -484.000000,50.000000 -252.000000C50.000000 -87.000000,168.000000 22.000000,321.000000 22.000000C408.000000 22.000000,484.000000 -18.000000,537.000000 -64.000000C630.000000 -146.000000,647.000000 -237.000000,647.000000 -240.000000C647.000000 -250.000000,637.000000 -250.000000,635.000000 -250.000000C629.000000 -250.000000,624.000000 -248.000000,622.000000 -240.000000C613.000000 -211.000000,590.000000 -140.000000,521.000000 -82.000000C452.000000 -26.000000,389.000000 -9.000000,337.000000 -9.000000C247.000000 -9.000000,141.000000 -61.000000,141.000000 -217.000000C141.000000 -274.000000,162.000000 -436.000000,262.000000 -553.000000C323.000000 -624.000000,417.000000 -674.000000,506.000000 -674.000000C608.000000 -674.000000,667.000000 -597.000000,667.000000 -481.000000C667.000000 -441.000000,664.000000 -440.000000,664.000000 -430.000000C664.000000 -420.000000,675.000000 -420.000000,679.000000 -420.000000C692.000000 -420.000000,692.000000 -422.000000,697.000000 -440.000000"></path>
    </g>
    <g transform="scale(0.009963,0.009963)" id="GLYPHcmmi10_68">
      <path style="fill-rule: evenodd;" d="M159.000000 -78.000000C149.000000 -39.000000,147.000000 -31.000000,68.000000 -31.000000C51.000000 -31.000000,40.000000 -31.000000,40.000000 -12.000000C40.000000 -0.000000,49.000000 -0.000000,68.000000 -0.000000L399.000000 -0.000000C607.000000 -0.000000,804.000000 -211.000000,804.000000 -430.000000C804.000000 -571.000000,719.000000 -683.000000,569.000000 -683.000000L233.000000 -683.000000C214.000000 -683.000000,203.000000 -683.000000,203.000000 -664.000000C203.000000 -652.000000,212.000000 -652.000000,232.000000 -652.000000C245.000000 -652.000000,263.000000 -651.000000,275.000000 -650.000000C291.000000 -648.000000,297.000000 -645.000000,297.000000 -634.000000C297.000000 -630.000000,296.000000 -627.000000,293.000000 -615.000000M375.000000 -614.000000C384.000000 -649.000000,386.000000 -652.000000,429.000000 -652.000000L536.000000 -652.000000C634.000000 -652.000000,717.000000 -599.000000,717.000000 -467.000000C717.000000 -418.000000,697.000000 -254.000000,612.000000 -144.000000C583.000000 -107.000000,504.000000 -31.000000,381.000000 -31.000000L268.000000 -31.000000C254.000000 -31.000000,252.000000 -31.000000,246.000000 -32.000000C236.000000 -33.000000,233.000000 -34.000000,233.000000 -42.000000C233.000000 -45.000000,233.000000 -47.000000,238.000000 -65.000000"></path>
    </g>
    <g transform="scale(0.009963,0.009963)" id="GLYPHcmmi10_69">
      <path style="fill-rule: evenodd;" d="M708.000000 -233.000000C710.000000 -238.000000,713.000000 -245.000000,713.000000 -247.000000C713.000000 -248.000000,713.000000 -258.000000,701.000000 -258.000000C692.000000 -258.000000,690.000000 -252.000000,688.000000 -246.000000C623.000000 -98.000000,586.000000 -31.000000,415.000000 -31.000000L269.000000 -31.000000C255.000000 -31.000000,253.000000 -31.000000,247.000000 -32.000000C237.000000 -33.000000,234.000000 -34.000000,234.000000 -42.000000C234.000000 -45.000000,234.000000 -47.000000,239.000000 -65.000000L307.000000 -338.000000L406.000000 -338.000000C491.000000 -338.000000,491.000000 -317.000000,491.000000 -292.000000C491.000000 -285.000000,491.000000 -273.000000,484.000000 -243.000000C482.000000 -238.000000,481.000000 -235.000000,481.000000 -232.000000C481.000000 -227.000000,485.000000 -221.000000,494.000000 -221.000000C502.000000 -221.000000,505.000000 -226.000000,509.000000 -241.000000L566.000000 -475.000000C566.000000 -481.000000,561.000000 -486.000000,554.000000 -486.000000C545.000000 -486.000000,543.000000 -480.000000,540.000000 -468.000000C519.000000 -392.000000,501.000000 -369.000000,409.000000 -369.000000L315.000000 -369.000000L375.000000 -610.000000C384.000000 -645.000000,385.000000 -649.000000,429.000000 -649.000000L570.000000 -649.000000C692.000000 -649.000000,722.000000 -620.000000,722.000000 -538.000000C722.000000 -514.000000,722.000000 -512.000000,718.000000 -485.000000C718.000000 -479.000000,717.000000 -472.000000,717.000000 -467.000000C717.000000 -462.000000,720.000000 -455.000000,729.000000 -455.000000C740.000000 -455.000000,741.000000 -461.000000,743.000000 -480.000000L763.000000 -653.000000C766.000000 -680.000000,761.000000 -680.000000,736.000000 -680.000000L231.000000 -680.000000C211.000000 -680.000000,201.000000 -680.000000,201.000000 -660.000000C201.000000 -649.000000,210.000000 -649.000000,229.000000 -649.000000C266.000000 -649.000000,294.000000 -649.000000,294.000000 -631.000000C294.000000 -627.000000,294.000000 -625.000000,289.000000 -607.000000L157.000000 -78.000000C147.000000 -39.000000,145.000000 -31.000000,66.000000 -31.000000C49.000000 -31.000000,38.000000 -31.000000,38.000000 -12.000000C38.000000 -0.000000,47.000000 -0.000000,66.000000 -0.000000L585.000000 -0.000000C608.000000 -0.000000,609.000000 -1.000000,616.000000 -17.000000"></path>
    </g>
  </defs>
  <g>
    <defs>
      <clipPath id="CLIP1">
        <path d="M-8.008041 62.008041L-8.008041 -57.048248L111.048248 -57.048248L111.048248 62.008041Z" style="fill: black; stroke: none;"></path>
      </clipPath>
    </defs>
    <g clip-path="url(#CLIP1);">
      <path d="M9.000000 8.920456L94.040207 8.920456" style="stroke:rgb(0.000000%,50.000000%,0.000000%); stroke-width: 1.250000;stroke-linecap: round;stroke-linejoin: round;stroke-miterlimit: 10.000000;fill: none;"></path>
      <path d="M9.000000 45.000000L45.079544 8.920456L94.040207 45.000000Z" style="stroke:rgb(0.000000%,0.000000%,0.000000%); stroke-width: 1.250000;stroke-linecap: round;stroke-linejoin: round;stroke-miterlimit: 10.000000;fill: none;"></path>
      <path d="M10.500000 45.000000C10.500000 44.602158,10.341934 44.220657,10.060638 43.939362C9.779343 43.658066,9.397842 43.500000,9.000000 43.500000C8.602158 43.500000,8.220657 43.658066,7.939362 43.939362C7.658066 44.220657,7.500000 44.602158,7.500000 45.000000C7.500000 45.397842,7.658066 45.779343,7.939362 46.060638C8.220657 46.341934,8.602158 46.500000,9.000000 46.500000C9.397842 46.500000,9.779343 46.341934,10.060638 46.060638C10.341934 45.779343,10.500000 45.397842,10.500000 45.000000Z" style="fill: rgb(0.000000%,0.000000%,0.000000%);stroke: none;"></path>
      <g transform="translate(-0.571991 53.907791)" style="fill: rgb(0.000000%,0.000000%,0.000000%);">
        <use xlink:href="#GLYPHcmmi10_65"></use>
      </g>
      <path d="M46.579544 8.920456C46.579544 8.522614,46.421478 8.141113,46.140182 7.859818C45.858887 7.578522,45.477386 7.420456,45.079544 7.420456C44.681702 7.420456,44.300201 7.578522,44.018906 7.859818C43.737610 8.141113,43.579544 8.522614,43.579544 8.920456C43.579544 9.318298,43.737610 9.699799,44.018906 9.981094C44.300201 10.262390,44.681702 10.420456,45.079544 10.420456C45.477386 10.420456,45.858887 10.262390,46.140182 9.981094C46.421478 9.699799,46.579544 9.318298,46.579544 8.920456Z" style="fill: rgb(0.000000%,0.000000%,0.000000%);stroke: none;"></path>
      <g transform="translate(41.051239 5.920456)" style="fill: rgb(0.000000%,0.000000%,0.000000%);">
        <use xlink:href="#GLYPHcmmi10_66"></use>
      </g>
      <path d="M95.540207 45.000000C95.540207 44.602158,95.382141 44.220657,95.100845 43.939362C94.819550 43.658066,94.438049 43.500000,94.040207 43.500000C93.642365 43.500000,93.260864 43.658066,92.979568 43.939362C92.698273 44.220657,92.540207 44.602158,92.540207 45.000000C92.540207 45.397842,92.698273 45.779343,92.979568 46.060638C93.260864 46.341934,93.642365 46.500000,94.040207 46.500000C94.438049 46.500000,94.819550 46.341934,95.100845 46.060638C95.382141 45.779343,95.540207 45.397842,95.540207 45.000000Z" style="fill: rgb(0.000000%,0.000000%,0.000000%);stroke: none;"></path>
      <g transform="translate(96.140198 53.907791)" style="fill: rgb(0.000000%,0.000000%,0.000000%);">
        <use xlink:href="#GLYPHcmmi10_67"></use>
      </g>
      <path d="M12.563461 8.920456C12.563461 8.522614,12.405396 8.141113,12.124100 7.859818C11.842804 7.578522,11.461304 7.420456,11.063461 7.420456C10.665619 7.420456,10.284119 7.578522,10.002823 7.859818C9.721527 8.141113,9.563461 8.522614,9.563461 8.920456C9.563461 9.318298,9.721527 9.699799,10.002823 9.981094C10.284119 10.262390,10.665619 10.420456,11.063461 10.420456C11.461304 10.420456,11.842804 10.262390,12.124100 9.981094C12.405396 9.699799,12.563461 9.318298,12.563461 8.920456Z" style="fill: rgb(0.000000%,0.000000%,0.000000%);stroke: none;"></path>
      <g transform="translate(6.800964 5.920456)" style="fill: rgb(0.000000%,0.000000%,0.000000%);">
        <use xlink:href="#GLYPHcmmi10_68"></use>
      </g>
      <path d="M80.595627 8.920456C80.595627 8.522614,80.437561 8.141113,80.156265 7.859818C79.874969 7.578522,79.493469 7.420456,79.095627 7.420456C78.697784 7.420456,78.316284 7.578522,78.034988 7.859818C77.753693 8.141113,77.595627 8.522614,77.595627 8.920456C77.595627 9.318298,77.753693 9.699799,78.034988 9.981094C78.316284 10.262390,78.697784 10.420456,79.095627 10.420456C79.493469 10.420456,79.874969 10.262390,80.156265 9.981094C80.437561 9.699799,80.595627 9.318298,80.595627 8.920456Z" style="fill: rgb(0.000000%,0.000000%,0.000000%);stroke: none;"></path>
      <g transform="translate(75.131317 5.920456)" style="fill: rgb(0.000000%,0.000000%,0.000000%);">
        <use xlink:href="#GLYPHcmmi10_69"></use>
      </g>
      <g transform="translate(42.223846 19.611511)" style="fill: rgb(0.000000%,0.000000%,0.000000%);">
        <use xlink:href="#GLYPHcmmi10_13"></use>
      </g>
      <g transform="translate(28.065521 15.309952)" style="fill: rgb(0.000000%,0.000000%,0.000000%);">
        <use xlink:href="#GLYPHcmmi10_11"></use>
      </g>
      <g transform="translate(60.786026 17.938950)" style="fill: rgb(0.000000%,0.000000%,0.000000%);">
        <use xlink:href="#GLYPHcmmi10_12"></use>
      </g>
      <g transform="translate(21.304916 40.962814)" style="fill: rgb(0.000000%,0.000000%,0.000000%);">
        <use xlink:href="#GLYPHcmmi10_12"></use>
      </g>
      <g transform="translate(75.325287 42.900009)" style="fill: rgb(0.000000%,0.000000%,0.000000%);">
        <use xlink:href="#GLYPHcmmi10_11"></use>
      </g>
    </g>
  </g>
</svg>
