<?xml version="1.0"?>
<!-- Created by MetaPost 2.01 on 2021.10.20:2232 -->
<svg version="1.1" xmlns="http://www.w3.org/2000/svg" xmlns:xlink="http://www.w3.org/1999/xlink" width="151.136154" height="52.780685" viewBox="0 0 151.136154 52.780685">
<!-- Original BoundingBox: -3.736008 -42.972885 147.400146 9.807800 -->
  <defs>
    <g transform="scale(0.009963,0.009963)" id="GLYPHcmmi10_65">
      <path style="fill-rule: evenodd;" d="M179.000000 -115.000000C139.000000 -48.000000,100.000000 -34.000000,56.000000 -31.000000C44.000000 -30.000000,35.000000 -30.000000,35.000000 -11.000000C35.000000 -5.000000,40.000000 -0.000000,48.000000 -0.000000C75.000000 -0.000000,106.000000 -3.000000,134.000000 -3.000000C167.000000 -3.000000,202.000000 -0.000000,234.000000 -0.000000C240.000000 -0.000000,253.000000 -0.000000,253.000000 -19.000000C253.000000 -30.000000,244.000000 -31.000000,237.000000 -31.000000C214.000000 -33.000000,190.000000 -41.000000,190.000000 -66.000000C190.000000 -78.000000,196.000000 -89.000000,204.000000 -103.000000L280.000000 -231.000000L531.000000 -231.000000C533.000000 -210.000000,547.000000 -74.000000,547.000000 -64.000000C547.000000 -34.000000,495.000000 -31.000000,475.000000 -31.000000C461.000000 -31.000000,451.000000 -31.000000,451.000000 -11.000000C451.000000 -0.000000,463.000000 -0.000000,465.000000 -0.000000C506.000000 -0.000000,549.000000 -3.000000,590.000000 -3.000000C615.000000 -3.000000,678.000000 -0.000000,703.000000 -0.000000C709.000000 -0.000000,721.000000 -0.000000,721.000000 -20.000000C721.000000 -31.000000,711.000000 -31.000000,698.000000 -31.000000C636.000000 -31.000000,636.000000 -38.000000,633.000000 -67.000000L572.000000 -692.000000C570.000000 -712.000000,570.000000 -716.000000,553.000000 -716.000000C537.000000 -716.000000,533.000000 -709.000000,527.000000 -699.000000M299.000000 -262.000000L496.000000 -592.000000L528.000000 -262.000000"></path>
    </g>
    <g transform="scale(0.009963,0.009963)" id="GLYPHcmmi10_66">
      <path style="fill-rule: evenodd;" d="M160.000000 -78.000000C150.000000 -39.000000,148.000000 -31.000000,69.000000 -31.000000C52.000000 -31.000000,42.000000 -31.000000,42.000000 -11.000000C42.000000 -0.000000,51.000000 -0.000000,69.000000 -0.000000L426.000000 -0.000000C584.000000 -0.000000,702.000000 -118.000000,702.000000 -216.000000C702.000000 -288.000000,644.000000 -346.000000,547.000000 -357.000000C651.000000 -376.000000,756.000000 -450.000000,756.000000 -545.000000C756.000000 -619.000000,690.000000 -683.000000,570.000000 -683.000000L234.000000 -683.000000C215.000000 -683.000000,205.000000 -683.000000,205.000000 -663.000000C205.000000 -652.000000,214.000000 -652.000000,233.000000 -652.000000C235.000000 -652.000000,254.000000 -652.000000,271.000000 -650.000000C289.000000 -648.000000,298.000000 -647.000000,298.000000 -634.000000C298.000000 -630.000000,297.000000 -627.000000,294.000000 -615.000000M311.000000 -366.000000L373.000000 -614.000000C382.000000 -649.000000,384.000000 -652.000000,427.000000 -652.000000L556.000000 -652.000000C644.000000 -652.000000,665.000000 -593.000000,665.000000 -549.000000C665.000000 -461.000000,579.000000 -366.000000,457.000000 -366.000000M266.000000 -31.000000C252.000000 -31.000000,250.000000 -31.000000,244.000000 -32.000000C234.000000 -33.000000,231.000000 -34.000000,231.000000 -42.000000C231.000000 -45.000000,231.000000 -47.000000,236.000000 -65.000000L305.000000 -344.000000L494.000000 -344.000000C590.000000 -344.000000,609.000000 -270.000000,609.000000 -227.000000C609.000000 -128.000000,520.000000 -31.000000,402.000000 -31.000000"></path>
    </g>
    <g transform="scale(0.009963,0.009963)" id="GLYPHcmmi10_67">
      <path style="fill-rule: evenodd;" d="M760.000000 -695.000000C760.000000 -698.000000,758.000000 -705.000000,749.000000 -705.000000C746.000000 -705.000000,745.000000 -704.000000,734.000000 -693.000000L664.000000 -616.000000C655.000000 -630.000000,609.000000 -705.000000,498.000000 -705.000000C275.000000 -705.000000,50.000000 -484.000000,50.000000 -252.000000C50.000000 -87.000000,168.000000 22.000000,321.000000 22.000000C408.000000 22.000000,484.000000 -18.000000,537.000000 -64.000000C630.000000 -146.000000,647.000000 -237.000000,647.000000 -240.000000C647.000000 -250.000000,637.000000 -250.000000,635.000000 -250.000000C629.000000 -250.000000,624.000000 -248.000000,622.000000 -240.000000C613.000000 -211.000000,590.000000 -140.000000,521.000000 -82.000000C452.000000 -26.000000,389.000000 -9.000000,337.000000 -9.000000C247.000000 -9.000000,141.000000 -61.000000,141.000000 -217.000000C141.000000 -274.000000,162.000000 -436.000000,262.000000 -553.000000C323.000000 -624.000000,417.000000 -674.000000,506.000000 -674.000000C608.000000 -674.000000,667.000000 -597.000000,667.000000 -481.000000C667.000000 -441.000000,664.000000 -440.000000,664.000000 -430.000000C664.000000 -420.000000,675.000000 -420.000000,679.000000 -420.000000C692.000000 -420.000000,692.000000 -422.000000,697.000000 -440.000000"></path>
    </g>
    <g transform="scale(0.009963,0.009963)" id="GLYPHcmmi10_68">
      <path style="fill-rule: evenodd;" d="M159.000000 -78.000000C149.000000 -39.000000,147.000000 -31.000000,68.000000 -31.000000C51.000000 -31.000000,40.000000 -31.000000,40.000000 -12.000000C40.000000 -0.000000,49.000000 -0.000000,68.000000 -0.000000L399.000000 -0.000000C607.000000 -0.000000,804.000000 -211.000000,804.000000 -430.000000C804.000000 -571.000000,719.000000 -683.000000,569.000000 -683.000000L233.000000 -683.000000C214.000000 -683.000000,203.000000 -683.000000,203.000000 -664.000000C203.000000 -652.000000,212.000000 -652.000000,232.000000 -652.000000C245.000000 -652.000000,263.000000 -651.000000,275.000000 -650.000000C291.000000 -648.000000,297.000000 -645.000000,297.000000 -634.000000C297.000000 -630.000000,296.000000 -627.000000,293.000000 -615.000000M375.000000 -614.000000C384.000000 -649.000000,386.000000 -652.000000,429.000000 -652.000000L536.000000 -652.000000C634.000000 -652.000000,717.000000 -599.000000,717.000000 -467.000000C717.000000 -418.000000,697.000000 -254.000000,612.000000 -144.000000C583.000000 -107.000000,504.000000 -31.000000,381.000000 -31.000000L268.000000 -31.000000C254.000000 -31.000000,252.000000 -31.000000,246.000000 -32.000000C236.000000 -33.000000,233.000000 -34.000000,233.000000 -42.000000C233.000000 -45.000000,233.000000 -47.000000,238.000000 -65.000000"></path>
    </g>
    <g transform="scale(0.009963,0.009963)" id="GLYPHcmmi10_69">
      <path style="fill-rule: evenodd;" d="M708.000000 -233.000000C710.000000 -238.000000,713.000000 -245.000000,713.000000 -247.000000C713.000000 -248.000000,713.000000 -258.000000,701.000000 -258.000000C692.000000 -258.000000,690.000000 -252.000000,688.000000 -246.000000C623.000000 -98.000000,586.000000 -31.000000,415.000000 -31.000000L269.000000 -31.000000C255.000000 -31.000000,253.000000 -31.000000,247.000000 -32.000000C237.000000 -33.000000,234.000000 -34.000000,234.000000 -42.000000C234.000000 -45.000000,234.000000 -47.000000,239.000000 -65.000000L307.000000 -338.000000L406.000000 -338.000000C491.000000 -338.000000,491.000000 -317.000000,491.000000 -292.000000C491.000000 -285.000000,491.000000 -273.000000,484.000000 -243.000000C482.000000 -238.000000,481.000000 -235.000000,481.000000 -232.000000C481.000000 -227.000000,485.000000 -221.000000,494.000000 -221.000000C502.000000 -221.000000,505.000000 -226.000000,509.000000 -241.000000L566.000000 -475.000000C566.000000 -481.000000,561.000000 -486.000000,554.000000 -486.000000C545.000000 -486.000000,543.000000 -480.000000,540.000000 -468.000000C519.000000 -392.000000,501.000000 -369.000000,409.000000 -369.000000L315.000000 -369.000000L375.000000 -610.000000C384.000000 -645.000000,385.000000 -649.000000,429.000000 -649.000000L570.000000 -649.000000C692.000000 -649.000000,722.000000 -620.000000,722.000000 -538.000000C722.000000 -514.000000,722.000000 -512.000000,718.000000 -485.000000C718.000000 -479.000000,717.000000 -472.000000,717.000000 -467.000000C717.000000 -462.000000,720.000000 -455.000000,729.000000 -455.000000C740.000000 -455.000000,741.000000 -461.000000,743.000000 -480.000000L763.000000 -653.000000C766.000000 -680.000000,761.000000 -680.000000,736.000000 -680.000000L231.000000 -680.000000C211.000000 -680.000000,201.000000 -680.000000,201.000000 -660.000000C201.000000 -649.000000,210.000000 -649.000000,229.000000 -649.000000C266.000000 -649.000000,294.000000 -649.000000,294.000000 -631.000000C294.000000 -627.000000,294.000000 -625.000000,289.000000 -607.000000L157.000000 -78.000000C147.000000 -39.000000,145.000000 -31.000000,66.000000 -31.000000C49.000000 -31.000000,38.000000 -31.000000,38.000000 -12.000000C38.000000 -0.000000,47.000000 -0.000000,66.000000 -0.000000L585.000000 -0.000000C608.000000 -0.000000,609.000000 -1.000000,616.000000 -17.000000"></path>
    </g>
    <g transform="scale(0.009963,0.009963)" id="GLYPHcmmi10_70">
      <path style="fill-rule: evenodd;" d="M303.000000 -325.000000L400.000000 -325.000000C475.000000 -325.000000,483.000000 -309.000000,483.000000 -280.000000C483.000000 -273.000000,483.000000 -261.000000,476.000000 -231.000000C474.000000 -226.000000,473.000000 -222.000000,473.000000 -220.000000C473.000000 -212.000000,479.000000 -208.000000,485.000000 -208.000000C495.000000 -208.000000,495.000000 -211.000000,500.000000 -229.000000L555.000000 -446.000000C558.000000 -457.000000,558.000000 -459.000000,558.000000 -462.000000C558.000000 -464.000000,556.000000 -473.000000,546.000000 -473.000000C536.000000 -473.000000,535.000000 -468.000000,531.000000 -452.000000C510.000000 -374.000000,487.000000 -356.000000,402.000000 -356.000000L311.000000 -356.000000L375.000000 -610.000000C384.000000 -645.000000,385.000000 -649.000000,429.000000 -649.000000L561.000000 -649.000000C684.000000 -649.000000,707.000000 -616.000000,707.000000 -539.000000C707.000000 -516.000000,707.000000 -512.000000,704.000000 -485.000000C702.000000 -472.000000,702.000000 -470.000000,702.000000 -467.000000C702.000000 -462.000000,705.000000 -455.000000,714.000000 -455.000000C725.000000 -455.000000,726.000000 -461.000000,728.000000 -480.000000L748.000000 -653.000000C751.000000 -680.000000,746.000000 -680.000000,721.000000 -680.000000L231.000000 -680.000000C211.000000 -680.000000,201.000000 -680.000000,201.000000 -660.000000C201.000000 -649.000000,210.000000 -649.000000,229.000000 -649.000000C266.000000 -649.000000,294.000000 -649.000000,294.000000 -631.000000C294.000000 -627.000000,294.000000 -625.000000,289.000000 -607.000000L157.000000 -78.000000C147.000000 -39.000000,145.000000 -31.000000,66.000000 -31.000000C49.000000 -31.000000,38.000000 -31.000000,38.000000 -12.000000C38.000000 -0.000000,50.000000 -0.000000,53.000000 -0.000000C82.000000 -0.000000,156.000000 -3.000000,185.000000 -3.000000C218.000000 -3.000000,301.000000 -0.000000,334.000000 -0.000000C343.000000 -0.000000,355.000000 -0.000000,355.000000 -19.000000C355.000000 -27.000000,349.000000 -29.000000,349.000000 -30.000000C346.000000 -31.000000,344.000000 -31.000000,321.000000 -31.000000C299.000000 -31.000000,294.000000 -31.000000,269.000000 -33.000000C240.000000 -36.000000,237.000000 -40.000000,237.000000 -53.000000C237.000000 -55.000000,237.000000 -61.000000,241.000000 -76.000000"></path>
    </g>
    <g transform="scale(0.009963,0.009963)" id="GLYPHcmmi10_71">
      <path style="fill-rule: evenodd;" d="M760.000000 -695.000000C760.000000 -698.000000,758.000000 -705.000000,749.000000 -705.000000C746.000000 -705.000000,745.000000 -704.000000,734.000000 -693.000000L664.000000 -616.000000C655.000000 -630.000000,609.000000 -705.000000,498.000000 -705.000000C275.000000 -705.000000,50.000000 -484.000000,50.000000 -252.000000C50.000000 -93.000000,161.000000 22.000000,323.000000 22.000000C367.000000 22.000000,412.000000 13.000000,448.000000 -2.000000C498.000000 -22.000000,517.000000 -43.000000,535.000000 -63.000000C544.000000 -38.000000,570.000000 -1.000000,580.000000 -1.000000C585.000000 -1.000000,587.000000 -4.000000,587.000000 -5.000000C589.000000 -7.000000,599.000000 -45.000000,604.000000 -66.000000L623.000000 -143.000000C627.000000 -160.000000,632.000000 -177.000000,636.000000 -194.000000C647.000000 -239.000000,648.000000 -241.000000,705.000000 -242.000000C710.000000 -242.000000,721.000000 -243.000000,721.000000 -262.000000C721.000000 -269.000000,716.000000 -273.000000,708.000000 -273.000000C685.000000 -273.000000,626.000000 -270.000000,603.000000 -270.000000C572.000000 -270.000000,494.000000 -273.000000,463.000000 -273.000000C454.000000 -273.000000,442.000000 -273.000000,442.000000 -253.000000C442.000000 -242.000000,450.000000 -242.000000,472.000000 -242.000000C473.000000 -242.000000,502.000000 -242.000000,525.000000 -240.000000C551.000000 -237.000000,556.000000 -234.000000,556.000000 -221.000000C556.000000 -212.000000,545.000000 -167.000000,535.000000 -130.000000C507.000000 -20.000000,377.000000 -9.000000,342.000000 -9.000000C246.000000 -9.000000,141.000000 -66.000000,141.000000 -219.000000C141.000000 -250.000000,151.000000 -415.000000,256.000000 -545.000000C310.000000 -613.000000,407.000000 -674.000000,506.000000 -674.000000C608.000000 -674.000000,667.000000 -597.000000,667.000000 -481.000000C667.000000 -441.000000,664.000000 -440.000000,664.000000 -430.000000C664.000000 -420.000000,675.000000 -420.000000,679.000000 -420.000000C692.000000 -420.000000,692.000000 -422.000000,697.000000 -440.000000"></path>
    </g>
    <g transform="scale(0.009963,0.009963)" id="GLYPHcmmi10_72">
      <path style="fill-rule: evenodd;" d="M763.000000 -606.000000C772.000000 -642.000000,774.000000 -652.000000,847.000000 -652.000000C873.000000 -652.000000,881.000000 -652.000000,881.000000 -672.000000C881.000000 -683.000000,870.000000 -683.000000,867.000000 -683.000000C839.000000 -683.000000,767.000000 -680.000000,739.000000 -680.000000C710.000000 -680.000000,639.000000 -683.000000,610.000000 -683.000000C602.000000 -683.000000,591.000000 -683.000000,591.000000 -663.000000C591.000000 -652.000000,600.000000 -652.000000,619.000000 -652.000000C621.000000 -652.000000,640.000000 -652.000000,657.000000 -650.000000C675.000000 -648.000000,684.000000 -647.000000,684.000000 -634.000000C684.000000 -630.000000,683.000000 -628.000000,680.000000 -615.000000L620.000000 -371.000000L315.000000 -371.000000L374.000000 -606.000000C383.000000 -642.000000,386.000000 -652.000000,458.000000 -652.000000C484.000000 -652.000000,492.000000 -652.000000,492.000000 -672.000000C492.000000 -683.000000,481.000000 -683.000000,478.000000 -683.000000C450.000000 -683.000000,378.000000 -680.000000,350.000000 -680.000000C321.000000 -680.000000,250.000000 -683.000000,221.000000 -683.000000C213.000000 -683.000000,202.000000 -683.000000,202.000000 -663.000000C202.000000 -652.000000,211.000000 -652.000000,230.000000 -652.000000C232.000000 -652.000000,251.000000 -652.000000,268.000000 -650.000000C286.000000 -648.000000,295.000000 -647.000000,295.000000 -634.000000C295.000000 -630.000000,294.000000 -627.000000,291.000000 -615.000000L157.000000 -78.000000C147.000000 -39.000000,145.000000 -31.000000,66.000000 -31.000000C48.000000 -31.000000,39.000000 -31.000000,39.000000 -11.000000C39.000000 -0.000000,51.000000 -0.000000,53.000000 -0.000000C81.000000 -0.000000,152.000000 -3.000000,180.000000 -3.000000C201.000000 -3.000000,223.000000 -2.000000,244.000000 -2.000000C266.000000 -2.000000,288.000000 -0.000000,309.000000 -0.000000C317.000000 -0.000000,329.000000 -0.000000,329.000000 -20.000000C329.000000 -31.000000,320.000000 -31.000000,301.000000 -31.000000C264.000000 -31.000000,236.000000 -31.000000,236.000000 -49.000000C236.000000 -55.000000,238.000000 -60.000000,239.000000 -66.000000L307.000000 -340.000000L612.000000 -340.000000C570.000000 -174.000000,547.000000 -79.000000,543.000000 -64.000000C533.000000 -32.000000,514.000000 -31.000000,452.000000 -31.000000C437.000000 -31.000000,428.000000 -31.000000,428.000000 -11.000000C428.000000 -0.000000,440.000000 -0.000000,442.000000 -0.000000C470.000000 -0.000000,541.000000 -3.000000,569.000000 -3.000000C590.000000 -3.000000,612.000000 -2.000000,633.000000 -2.000000C655.000000 -2.000000,677.000000 -0.000000,698.000000 -0.000000C706.000000 -0.000000,718.000000 -0.000000,718.000000 -20.000000C718.000000 -31.000000,709.000000 -31.000000,690.000000 -31.000000C653.000000 -31.000000,625.000000 -31.000000,625.000000 -49.000000C625.000000 -55.000000,627.000000 -60.000000,628.000000 -66.000000"></path>
    </g>
    <g transform="scale(0.009963,0.009963)" id="GLYPHcmmi10_73">
      <path style="fill-rule: evenodd;" d="M374.000000 -606.000000C383.000000 -642.000000,386.000000 -652.000000,465.000000 -652.000000C489.000000 -652.000000,497.000000 -652.000000,497.000000 -671.000000C497.000000 -683.000000,486.000000 -683.000000,482.000000 -683.000000C453.000000 -683.000000,379.000000 -680.000000,350.000000 -680.000000C320.000000 -680.000000,247.000000 -683.000000,217.000000 -683.000000C210.000000 -683.000000,197.000000 -683.000000,197.000000 -663.000000C197.000000 -652.000000,206.000000 -652.000000,225.000000 -652.000000C267.000000 -652.000000,294.000000 -652.000000,294.000000 -633.000000C294.000000 -628.000000,294.000000 -626.000000,292.000000 -617.000000L157.000000 -78.000000C148.000000 -41.000000,145.000000 -31.000000,66.000000 -31.000000C43.000000 -31.000000,34.000000 -31.000000,34.000000 -11.000000C34.000000 -0.000000,46.000000 -0.000000,49.000000 -0.000000C78.000000 -0.000000,151.000000 -3.000000,180.000000 -3.000000C210.000000 -3.000000,284.000000 -0.000000,314.000000 -0.000000C322.000000 -0.000000,334.000000 -0.000000,334.000000 -19.000000C334.000000 -31.000000,326.000000 -31.000000,304.000000 -31.000000C286.000000 -31.000000,281.000000 -31.000000,261.000000 -33.000000C240.000000 -35.000000,236.000000 -39.000000,236.000000 -50.000000C236.000000 -58.000000,238.000000 -66.000000,240.000000 -73.000000"></path>
    </g>
    <g transform="scale(0.009963,0.009963)" id="GLYPHcmmi10_74">
      <path style="fill-rule: evenodd;" d="M541.000000 -610.000000C549.000000 -643.000000,551.000000 -652.000000,606.000000 -652.000000C622.000000 -652.000000,633.000000 -652.000000,633.000000 -671.000000C633.000000 -680.000000,627.000000 -683.000000,619.000000 -683.000000C594.000000 -683.000000,533.000000 -680.000000,508.000000 -680.000000C475.000000 -680.000000,394.000000 -683.000000,361.000000 -683.000000C352.000000 -683.000000,340.000000 -683.000000,340.000000 -663.000000C340.000000 -652.000000,348.000000 -652.000000,374.000000 -652.000000C397.000000 -652.000000,407.000000 -652.000000,432.000000 -650.000000C456.000000 -647.000000,463.000000 -644.000000,463.000000 -630.000000C463.000000 -624.000000,461.000000 -617.000000,459.000000 -609.000000L344.000000 -150.000000C320.000000 -53.000000,252.000000 -0.000000,200.000000 -0.000000C174.000000 -0.000000,121.000000 -10.000000,105.000000 -62.000000C108.000000 -61.000000,115.000000 -61.000000,117.000000 -61.000000C156.000000 -61.000000,182.000000 -95.000000,182.000000 -125.000000C182.000000 -157.000000,155.000000 -167.000000,138.000000 -167.000000C120.000000 -167.000000,71.000000 -155.000000,71.000000 -87.000000C71.000000 -25.000000,124.000000 22.000000,203.000000 22.000000C295.000000 22.000000,399.000000 -44.000000,424.000000 -143.000000"></path>
    </g>
    <g transform="scale(0.009963,0.009963)" id="GLYPHcmmi10_75">
      <path style="fill-rule: evenodd;" d="M509.000000 -404.000000C508.000000 -407.000000,504.000000 -415.000000,504.000000 -418.000000C504.000000 -419.000000,522.000000 -433.000000,533.000000 -441.000000L708.000000 -576.000000C802.000000 -645.000000,841.000000 -649.000000,871.000000 -652.000000C879.000000 -653.000000,889.000000 -654.000000,889.000000 -672.000000C889.000000 -676.000000,886.000000 -683.000000,878.000000 -683.000000C856.000000 -683.000000,831.000000 -680.000000,807.000000 -680.000000C771.000000 -680.000000,732.000000 -683.000000,696.000000 -683.000000C689.000000 -683.000000,677.000000 -683.000000,677.000000 -663.000000C677.000000 -656.000000,682.000000 -653.000000,689.000000 -652.000000C711.000000 -650.000000,720.000000 -645.000000,720.000000 -631.000000C720.000000 -613.000000,690.000000 -590.000000,684.000000 -585.000000L294.000000 -285.000000L374.000000 -606.000000C383.000000 -642.000000,385.000000 -652.000000,458.000000 -652.000000C483.000000 -652.000000,492.000000 -652.000000,492.000000 -672.000000C492.000000 -681.000000,484.000000 -683.000000,478.000000 -683.000000C450.000000 -683.000000,378.000000 -680.000000,350.000000 -680.000000C321.000000 -680.000000,250.000000 -683.000000,221.000000 -683.000000C214.000000 -683.000000,201.000000 -683.000000,201.000000 -664.000000C201.000000 -652.000000,210.000000 -652.000000,230.000000 -652.000000C243.000000 -652.000000,261.000000 -651.000000,273.000000 -650.000000C289.000000 -648.000000,295.000000 -645.000000,295.000000 -634.000000C295.000000 -630.000000,294.000000 -627.000000,291.000000 -615.000000L157.000000 -78.000000C147.000000 -39.000000,145.000000 -31.000000,66.000000 -31.000000C49.000000 -31.000000,38.000000 -31.000000,38.000000 -12.000000C38.000000 -0.000000,50.000000 -0.000000,53.000000 -0.000000C81.000000 -0.000000,152.000000 -3.000000,180.000000 -3.000000C201.000000 -3.000000,223.000000 -2.000000,244.000000 -2.000000C266.000000 -2.000000,288.000000 -0.000000,309.000000 -0.000000C316.000000 -0.000000,329.000000 -0.000000,329.000000 -20.000000C329.000000 -31.000000,320.000000 -31.000000,301.000000 -31.000000C264.000000 -31.000000,236.000000 -31.000000,236.000000 -49.000000C236.000000 -56.000000,242.000000 -78.000000,245.000000 -93.000000C259.000000 -145.000000,272.000000 -198.000000,285.000000 -250.000000L434.000000 -366.000000L550.000000 -97.000000C562.000000 -70.000000,562.000000 -68.000000,562.000000 -62.000000C562.000000 -32.000000,519.000000 -31.000000,510.000000 -31.000000C499.000000 -31.000000,488.000000 -31.000000,488.000000 -11.000000C488.000000 -0.000000,500.000000 -0.000000,502.000000 -0.000000C542.000000 -0.000000,584.000000 -3.000000,624.000000 -3.000000C646.000000 -3.000000,700.000000 -0.000000,722.000000 -0.000000C727.000000 -0.000000,740.000000 -0.000000,740.000000 -20.000000C740.000000 -31.000000,729.000000 -31.000000,720.000000 -31.000000C679.000000 -32.000000,666.000000 -41.000000,651.000000 -76.000000"></path>
    </g>
  </defs>
  <g>
    <defs>
      <clipPath id="CLIP1">
        <path d="M-89.125092 101.125092L-89.125092 -101.550110L150.400146 -101.550110L150.400146 101.125092Z" style="fill: black; stroke: none;"></path>
      </clipPath>
    </defs>
    <g clip-path="url(#CLIP1);">
      <path d="M3.000000 9.000000L150.400146 9.000000" style="stroke:rgb(0.000000%,0.000000%,0.000000%); stroke-width: 1.250000;stroke-linecap: round;stroke-linejoin: round;stroke-miterlimit: 10.000000;fill: none;"></path>
      <path d="M4.500000 9.000000C4.500000 8.602158,4.341934 8.220657,4.060638 7.939362C3.779343 7.658066,3.397842 7.500000,3.000000 7.500000C2.602158 7.500000,2.220657 7.658066,1.939362 7.939362C1.658066 8.220657,1.500000 8.602158,1.500000 9.000000C1.500000 9.397842,1.658066 9.779343,1.939362 10.060638C2.220657 10.341934,2.602158 10.500000,3.000000 10.500000C3.397842 10.500000,3.779343 10.341934,4.060638 10.060638C4.341934 9.779343,4.500000 9.397842,4.500000 9.000000Z" style="fill: rgb(0.000000%,0.000000%,0.000000%);stroke: none;"></path>
      <g transform="translate(-0.736008 6.000000)" style="fill: rgb(0.000000%,0.000000%,0.000000%);">
        <use xlink:href="#GLYPHcmmi10_65"></use>
      </g>
      <path d="M151.900146 9.000000C151.900146 8.602158,151.742081 8.220657,151.460785 7.939362C151.179489 7.658066,150.797989 7.500000,150.400146 7.500000C150.002304 7.500000,149.620804 7.658066,149.339508 7.939362C149.058212 8.220657,148.900146 8.602158,148.900146 9.000000C148.900146 9.397842,149.058212 9.779343,149.339508 10.060638C149.620804 10.341934,150.002304 10.500000,150.400146 10.500000C150.797989 10.500000,151.179489 10.341934,151.460785 10.060638C151.742081 9.779343,151.900146 9.397842,151.900146 9.000000Z" style="fill: rgb(0.000000%,0.000000%,0.000000%);stroke: none;"></path>
      <g transform="translate(146.505035 6.000000)" style="fill: rgb(0.000000%,0.000000%,0.000000%);">
        <use xlink:href="#GLYPHcmmi10_70"></use>
      </g>
      <path d="M26.609116 9.000000C26.609116 8.602158,26.451050 8.220657,26.169754 7.939362C25.888458 7.658066,25.506958 7.500000,25.109116 7.500000C24.711273 7.500000,24.329773 7.658066,24.048477 7.939362C23.767181 8.220657,23.609116 8.602158,23.609116 9.000000C23.609116 9.397842,23.767181 9.779343,24.048477 10.060638C24.329773 10.341934,24.711273 10.500000,25.109116 10.500000C25.506958 10.500000,25.888458 10.341934,26.169754 10.060638C26.451050 9.779343,26.609116 9.397842,26.609116 9.000000Z" style="fill: rgb(0.000000%,0.000000%,0.000000%);stroke: none;"></path>
      <g transform="translate(21.080811 6.000000)" style="fill: rgb(0.000000%,0.000000%,0.000000%);">
        <use xlink:href="#GLYPHcmmi10_66"></use>
      </g>
      <path d="M70.829620 9.000000C70.829620 8.602158,70.671555 8.220657,70.390259 7.939362C70.108963 7.658066,69.727463 7.500000,69.329620 7.500000C68.931778 7.500000,68.550278 7.658066,68.268982 7.939362C67.987686 8.220657,67.829620 8.602158,67.829620 9.000000C67.829620 9.397842,67.987686 9.779343,68.268982 10.060638C68.550278 10.341934,68.931778 10.500000,69.329620 10.500000C69.727463 10.500000,70.108963 10.341934,70.390259 10.060638C70.671555 9.779343,70.829620 9.397842,70.829620 9.000000Z" style="fill: rgb(0.000000%,0.000000%,0.000000%);stroke: none;"></path>
      <g transform="translate(65.413071 6.000000)" style="fill: rgb(0.000000%,0.000000%,0.000000%);">
        <use xlink:href="#GLYPHcmmi10_67"></use>
      </g>
      <path d="M92.940994 9.000000C92.940994 8.602158,92.782928 8.220657,92.501633 7.939362C92.220337 7.658066,91.838837 7.500000,91.440994 7.500000C91.043152 7.500000,90.661652 7.658066,90.380356 7.939362C90.099060 8.220657,89.940994 8.602158,89.940994 9.000000C89.940994 9.397842,90.099060 9.779343,90.380356 10.060638C90.661652 10.341934,91.043152 10.500000,91.440994 10.500000C91.838837 10.500000,92.220337 10.341934,92.501633 10.060638C92.782928 9.779343,92.940994 9.397842,92.940994 9.000000Z" style="fill: rgb(0.000000%,0.000000%,0.000000%);stroke: none;"></path>
      <g transform="translate(87.178497 6.000000)" style="fill: rgb(0.000000%,0.000000%,0.000000%);">
        <use xlink:href="#GLYPHcmmi10_68"></use>
      </g>
      <path d="M122.420563 9.000000C122.420563 8.602158,122.262497 8.220657,121.981201 7.939362C121.699905 7.658066,121.318405 7.500000,120.920563 7.500000C120.522720 7.500000,120.141220 7.658066,119.859924 7.939362C119.578629 8.220657,119.420563 8.602158,119.420563 9.000000C119.420563 9.397842,119.578629 9.779343,119.859924 10.060638C120.141220 10.341934,120.522720 10.500000,120.920563 10.500000C121.318405 10.500000,121.699905 10.341934,121.981201 10.060638C122.262497 9.779343,122.420563 9.397842,122.420563 9.000000Z" style="fill: rgb(0.000000%,0.000000%,0.000000%);stroke: none;"></path>
      <g transform="translate(116.956253 6.000000)" style="fill: rgb(0.000000%,0.000000%,0.000000%);">
        <use xlink:href="#GLYPHcmmi10_69"></use>
      </g>
      <path d="M21.425018 36.637527L113.550110 42.165085" style="stroke:rgb(0.000000%,0.000000%,0.000000%); stroke-width: 1.250000;stroke-linecap: round;stroke-linejoin: round;stroke-miterlimit: 10.000000;fill: none;"></path>
      <path d="M22.925018 36.637527C22.925018 36.239685,22.766953 35.858185,22.485657 35.576889C22.204361 35.295593,21.822861 35.137527,21.425018 35.137527C21.027176 35.137527,20.645676 35.295593,20.364380 35.576889C20.083084 35.858185,19.925018 36.239685,19.925018 36.637527C19.925018 37.035370,20.083084 37.416870,20.364380 37.698166C20.645676 37.979462,21.027176 38.137527,21.425018 38.137527C21.822861 38.137527,22.204361 37.979462,22.485657 37.698166C22.766953 37.416870,22.925018 37.035370,22.925018 36.637527Z" style="fill: rgb(0.000000%,0.000000%,0.000000%);stroke: none;"></path>
      <g transform="translate(17.508469 46.445328)" style="fill: rgb(0.000000%,0.000000%,0.000000%);">
        <use xlink:href="#GLYPHcmmi10_71"></use>
      </g>
      <path d="M115.050110 42.165085C115.050110 41.767242,114.892044 41.385742,114.610748 41.104446C114.329453 40.823151,113.947952 40.665085,113.550110 40.665085C113.152267 40.665085,112.770767 40.823151,112.489471 41.104446C112.208176 41.385742,112.050110 41.767242,112.050110 42.165085C112.050110 42.562927,112.208176 42.944427,112.489471 43.225723C112.770767 43.507019,113.152267 43.665085,113.550110 43.665085C113.947952 43.665085,114.329453 43.507019,114.610748 43.225723C114.892044 42.944427,115.050110 42.562927,115.050110 42.165085Z" style="fill: rgb(0.000000%,0.000000%,0.000000%);stroke: none;"></path>
      <g transform="translate(108.963150 51.972885)" style="fill: rgb(0.000000%,0.000000%,0.000000%);">
        <use xlink:href="#GLYPHcmmi10_75"></use>
      </g>
      <path d="M59.774490 38.848434C59.774490 38.450592,59.616425 38.069092,59.335129 37.787796C59.053833 37.506500,58.672333 37.348434,58.274490 37.348434C57.876648 37.348434,57.495148 37.506500,57.213852 37.787796C56.932556 38.069092,56.774490 38.450592,56.774490 38.848434C56.774490 39.246277,56.932556 39.627777,57.213852 39.909073C57.495148 40.190369,57.876648 40.348434,58.274490 40.348434C58.672333 40.348434,59.053833 40.190369,59.335129 39.909073C59.616425 39.627777,59.774490 39.246277,59.774490 38.848434Z" style="fill: rgb(0.000000%,0.000000%,0.000000%);stroke: none;"></path>
      <g transform="translate(53.729034 48.656235)" style="fill: rgb(0.000000%,0.000000%,0.000000%);">
        <use xlink:href="#GLYPHcmmi10_72"></use>
      </g>
      <path d="M78.200638 39.954178C78.200638 39.556335,78.042572 39.174835,77.761276 38.893539C77.479980 38.612244,77.098480 38.454178,76.700638 38.454178C76.302795 38.454178,75.921295 38.612244,75.639999 38.893539C75.358704 39.174835,75.200638 39.556335,75.200638 39.954178C75.200638 40.352020,75.358704 40.733521,75.639999 41.014816C75.921295 41.296112,76.302795 41.454178,76.700638 41.454178C77.098480 41.454178,77.479980 41.296112,77.761276 41.014816C78.042572 40.733521,78.200638 40.352020,78.200638 39.954178Z" style="fill: rgb(0.000000%,0.000000%,0.000000%);stroke: none;"></path>
      <g transform="translate(74.120041 49.761978)" style="fill: rgb(0.000000%,0.000000%,0.000000%);">
        <use xlink:href="#GLYPHcmmi10_73"></use>
      </g>
      <path d="M92.018845 40.783264C92.018845 40.385422,91.860779 40.003922,91.579483 39.722626C91.298187 39.441330,90.916687 39.283264,90.518845 39.283264C90.121002 39.283264,89.739502 39.441330,89.458206 39.722626C89.176910 40.003922,89.018845 40.385422,89.018845 40.783264C89.018845 41.181107,89.176910 41.562607,89.458206 41.843903C89.739502 42.125198,90.121002 42.283264,90.518845 42.283264C90.916687 42.283264,91.298187 42.125198,91.579483 41.843903C91.860779 41.562607,92.018845 41.181107,92.018845 40.783264Z" style="fill: rgb(0.000000%,0.000000%,0.000000%);stroke: none;"></path>
      <g transform="translate(87.277542 50.591064)" style="fill: rgb(0.000000%,0.000000%,0.000000%);">
        <use xlink:href="#GLYPHcmmi10_74"></use>
      </g>
    </g>
  </g>
</svg>
