<?xml version="1.0"?>
<!-- Created by MetaPost 2.01 on 2021.10.19:1803 -->
<svg version="1.1" xmlns="http://www.w3.org/2000/svg" xmlns:xlink="http://www.w3.org/1999/xlink" width="104.012817" height="49.169403" viewBox="0 0 104.012817 49.169403">
<!-- Original BoundingBox: -52.006409 -24.584702 52.006409 24.584702 -->
  <defs>
    <g transform="scale(0.006974,0.006974)" id="GLYPHcmsy7_48">
      <path style="fill-rule: evenodd;" d="M290.000000 -472.000000C298.000000 -489.000000,299.000000 -497.000000,299.000000 -504.000000C299.000000 -535.000000,271.000000 -559.000000,240.000000 -559.000000C202.000000 -559.000000,190.000000 -528.000000,185.000000 -512.000000L53.000000 -79.000000C52.000000 -77.000000,48.000000 -64.000000,48.000000 -63.000000C48.000000 -51.000000,79.000000 -41.000000,87.000000 -41.000000C94.000000 -41.000000,95.000000 -43.000000,102.000000 -58.000000"></path>
    </g>
    <g transform="scale(0.009963,0.009963)" id="GLYPHcmmi10_18">
      <path style="fill-rule: evenodd;" d="M455.000000 -500.000000C455.000000 -566.000000,437.000000 -705.000000,335.000000 -705.000000C196.000000 -705.000000,42.000000 -423.000000,42.000000 -194.000000C42.000000 -100.000000,71.000000 11.000000,162.000000 11.000000C303.000000 11.000000,455.000000 -276.000000,455.000000 -500.000000M148.000000 -363.000000C165.000000 -427.000000,185.000000 -507.000000,225.000000 -578.000000C252.000000 -627.000000,289.000000 -683.000000,334.000000 -683.000000C383.000000 -683.000000,389.000000 -619.000000,389.000000 -562.000000C389.000000 -513.000000,381.000000 -462.000000,357.000000 -363.000000M348.000000 -331.000000C337.000000 -285.000000,316.000000 -200.000000,278.000000 -128.000000C243.000000 -60.000000,205.000000 -11.000000,162.000000 -11.000000C129.000000 -11.000000,108.000000 -40.000000,108.000000 -133.000000C108.000000 -175.000000,114.000000 -233.000000,140.000000 -331.000000"></path>
    </g>
    <g transform="scale(0.009963,0.009963)" id="GLYPHcmmi10_30">
      <path style="fill-rule: evenodd;" d="M437.000000 -670.000000C437.000000 -672.000000,440.000000 -683.000000,440.000000 -684.000000C440.000000 -685.000000,440.000000 -694.000000,428.000000 -694.000000C418.000000 -694.000000,417.000000 -691.000000,413.000000 -674.000000L355.000000 -443.000000C196.000000 -438.000000,49.000000 -305.000000,49.000000 -169.000000C49.000000 -74.000000,119.000000 5.000000,241.000000 12.000000C233.000000 43.000000,226.000000 75.000000,218.000000 106.000000C206.000000 153.000000,196.000000 191.000000,196.000000 194.000000C196.000000 204.000000,203.000000 205.000000,208.000000 205.000000C213.000000 205.000000,215.000000 204.000000,218.000000 201.000000C220.000000 199.000000,226.000000 175.000000,229.000000 161.000000L267.000000 12.000000C428.000000 7.000000,573.000000 -128.000000,573.000000 -262.000000C573.000000 -341.000000,520.000000 -433.000000,381.000000 -443.000000M246.000000 -10.000000C186.000000 -13.000000,114.000000 -48.000000,114.000000 -148.000000C114.000000 -268.000000,200.000000 -408.000000,349.000000 -421.000000M375.000000 -421.000000C451.000000 -417.000000,508.000000 -371.000000,508.000000 -283.000000C508.000000 -165.000000,422.000000 -22.000000,272.000000 -10.000000"></path>
    </g>
  </defs>
  <g>
    <defs>
      <clipPath id="CLIP1">
        <path d="M-89.732254 165.732254L-89.732254 -117.732254L193.732254 -117.732254L193.732254 165.732254Z" style="fill: black; stroke: none;"></path>
      </clipPath>
    </defs>
    <g clip-path="url(#CLIP1);">
      <path d="M52.000000 24.000000L103.381409 0.040298" style="stroke:rgb(0.000000%,0.000000%,0.000000%); stroke-width: 1.250000;stroke-linecap: round;stroke-linejoin: round;stroke-miterlimit: 10.000000;fill: none;"></path>
      <path d="M100.679062 2.989502L103.381409 0.040298L99.385147 0.214783L101.568771 0.885574Z" style="stroke:rgb(0.000000%,0.000000%,0.000000%); stroke-width: 1.250000;fill: rgb(0.000000%,0.000000%,0.000000%);"></path>
      <path d="M52.000000 24.000000L103.381409 47.959702" style="stroke:rgb(0.000000%,0.000000%,0.000000%); stroke-width: 1.250000;stroke-linecap: round;stroke-linejoin: round;stroke-miterlimit: 10.000000;fill: none;"></path>
      <path d="M99.385147 47.785217L103.381409 47.959702L100.679062 45.010498L101.568771 47.114426Z" style="stroke:rgb(0.000000%,0.000000%,0.000000%); stroke-width: 1.250000;fill: rgb(0.000000%,0.000000%,0.000000%);"></path>
      <path d="M52.000000 24.000000L0.618591 47.959702" style="stroke:rgb(0.000000%,0.000000%,0.000000%); stroke-width: 1.250000;stroke-linecap: round;stroke-linejoin: round;stroke-miterlimit: 10.000000;fill: none;"></path>
      <path d="M3.320938 45.010498L0.618591 47.959702L4.614853 47.785217L2.431229 47.114426Z" style="stroke:rgb(0.000000%,0.000000%,0.000000%); stroke-width: 1.250000;fill: rgb(0.000000%,0.000000%,0.000000%);"></path>
      <path d="M52.000000 24.000000L0.618591 0.040298" style="stroke:rgb(0.000000%,0.000000%,0.000000%); stroke-width: 1.250000;stroke-linecap: round;stroke-linejoin: round;stroke-miterlimit: 10.000000;fill: none;"></path>
      <path d="M4.614853 0.214783L0.618591 0.040298L3.320938 2.989502L2.431229 0.885574Z" style="stroke:rgb(0.000000%,0.000000%,0.000000%); stroke-width: 1.250000;fill: rgb(0.000000%,0.000000%,0.000000%);"></path>
      <path d="M52.000000 24.000000l0 0" style="stroke:rgb(0.000000%,0.000000%,0.000000%); stroke-width: 2.500000;stroke-linecap: round;stroke-linejoin: round;stroke-miterlimit: 10.000000;fill: none;"></path>
      <g transform="translate(66.338287 27.452682)" style="fill: rgb(0.000000%,0.000000%,0.000000%);">
        <use xlink:href="#GLYPHcmmi10_30"></use>
      </g>
      <g transform="translate(28.930420 27.751953)" style="fill: rgb(0.000000%,0.000000%,0.000000%);">
        <use xlink:href="#GLYPHcmmi10_30"></use>
      </g>
      <g transform="translate(34.866516 24.136551)" style="fill: rgb(0.000000%,0.000000%,0.000000%);">
        <use xlink:href="#GLYPHcmsy7_48"></use>
      </g>
      <g transform="translate(49.523148 16.748199)" style="fill: rgb(0.000000%,0.000000%,0.000000%);">
        <use xlink:href="#GLYPHcmmi10_18"></use>
      </g>
      <g transform="translate(48.125641 38.741501)" style="fill: rgb(0.000000%,0.000000%,0.000000%);">
        <use xlink:href="#GLYPHcmmi10_18"></use>
      </g>
      <g transform="translate(53.079346 35.126099)" style="fill: rgb(0.000000%,0.000000%,0.000000%);">
        <use xlink:href="#GLYPHcmsy7_48"></use>
      </g>
    </g>
  </g>
</svg>
